<svg xmlns="http://www.w3.org/2000/svg" width="1004.61" height="1487.62" viewBox="0 0 1004.61 1487.62"><defs><style>.cls-1{opacity:0.2;}.cls-2{fill:#7c1929;fill-rule:evenodd;}</style></defs><title>アセット 1</title><g id="レイヤー_2" data-name="レイヤー 2"><g id="編集モード"><g class="cls-1"><path class="cls-2" d="M744.54,32.55c-.24,4.31-2.66.84-5.07-.53-3.52-2-.65-2.48,2.08-2-.48,1.2,2.1,2,3,2.51"/><path class="cls-2" d="M724.25,31.83c-1,2.6-6.69.1-7.1,1.17-1.19-.48-2.37,1.92-3.08,2.75-2.34-.93.44-2.48-1.38-3.2,1.35-3.42-.65-3.92,1.79-7.92,1.46-.1,3.91-.86,5.38-.19s4.31,4.69,1.27,3.5c-.77.87,2.62,3.57,3.12,3.89"/><path class="cls-2" d="M724.47,31.24c.94.74,5.34,3.32,4.85,4.57-2.26-.88-4.38-1.78-4.85-4.57"/><path class="cls-2" d="M732.29,38.32c2-.08,2.72.42,2.06,1.48-2,.08-2.71-.41-2.06-1.48"/><path class="cls-2" d="M735.52,40.25c.88.45,2.26,1,1.83,2.07-2.21,0-2.84-.69-1.83-2.07"/><path class="cls-2" d="M736.8,45.4l2.29.92c-.41,1-1.36,1-2.4,1,.27-.7,0-1.16.11-2"/><path class="cls-2" d="M613.61,294.64c-1.06,2.69,2.7,1.05,0,0"/><path class="cls-2" d="M612.94,296.35c-1.14,2.88-7.07,5.46-5.58,9.07.37-1,2.56-.9,3.08-2.76.62-.78,2.92-4.51,3.65-5.86l-1.15-.45"/><path class="cls-2" d="M547,280.21c-.55,1.36-5.15,2.6-6.17,2.19.58-1.5,4.39-2.38,6.17-2.19"/><path class="cls-2" d="M540.82,282.4c-1.2,1.71-2.68,1.86-4.6,1.51,1.09-1.48,2.91-1.6,4.6-1.51"/><path class="cls-2" d="M533,285.3c.14-1.4.93-1.74,2.4-1-.54,1.39-1,1.16-2.4,1"/><path class="cls-2" d="M530.85,285.77c-.23,2.23-1.49,2.62-3.77,1.15.34-.84,2.61-1.3,3.77-1.15"/><path class="cls-2" d="M519.07,290.39c.46,1.86-2,2.72-4.24,2.3.71-1.78,2.71-1.43,4.24-2.3"/><path class="cls-2" d="M437.16,297.81c8.06,1.45,8.19,9,15.21,10.53,4.76,1,5.37.38,8.33-3.07,1.5-1.76,7.82-4.36,10.05-3.46a21.9,21.9,0,0,1-2.73,3.55c9.53,1.34,20.24-4.95,29.66-6.17-2.84,7.16-14.94,2.51-17.72,9.56,7.1,1.32,14.2-4.9,20.71-3.74-.83,1.33-.41,1.93,1.27,1.83-1.38,2.08-10.89,7-13.62,5.89-1.67,4.23,12.8-1.84,14-1.76-1.9,4.77-10,4.15-13.45,6.73-3.29,2.48-9.49,5.6-13.77,5.05,1.23-1.66,3.42-1.81,4.68-3.45-3.84-1.52-8.73,2.47-12.2,3.65-1.42.45-4,2.05-4.62,3.62-1.8-.71-.05,2.52-.56,3.11-4.32-1.71-8.76,5.54-10.62,8.39,3.45,1.38,7.46-2,10.87-2.33-1.52,3.86-8.52,2.47-8.79,7.14,2.66-.49,11.31-4.59,13.46-3.45,2.72,1.44-3.33,4-3.95,4.57,2.43,1-.59.95,2.87,1.13-1.73,2.58-4,3.54-4.68,6.77-2-.78-4.42,1.71-5.25,3.24,2.46,1,5-1.63,7.67-.94-1.55,7.17-9.77,5.63-15.84,8.36-3.68,1.68-10.14,5.85-10.94,8.61-.5,1.71-13.31,8-15.45,9.44-4.05,2.77-10,6.77-12.06,11.82,2.09.83,4.2-.88,6.3-.82-1.44,3.65-.53,7.15-5,8.88-1.23.48-6.33,2.88-7.45,1.48-1.56-2-4.25,1-5.77,2.78-1.09,1.27-1.95-.3-3.18.86s-1.08,3.63-1.15,5.21c-.05,2-7.17,4.23-8.25,7.66-.85,2.71-.88,5.63-1.68,8.35-3.41,11.52-8.58,23-12.94,34.22-1.28,3.3-1.44,6.28-2.07,9.74-.79,4.47-3.43,7.08-6.26,10.42-1.54,1.81-2,4.68-4.6,5.28-2.26.52-4.54-.3-6.81.43-3.53,1.13-6,4.46-9.73,5.19-3,.58-7.07,1.06-10-.05-1,2.82-1.22,3.61-4.12,2.39s-3.64-3.6-7.36-4.47c-3.21-.74-6.15-2.11-9.31-3-3.65-1-4.73-3.32-7.5-5.25-3.8-2.68-5.12-5.27-8.28-8.31-2.66-2.58-6.67-4.62-8.15-8.2-1.37-3.35-4.77-8.34-7.18-11.41-3.29-4.18-6.59-8.6-9.9-12.69a52.65,52.65,0,0,1-6.94-10c-2.37-4.7-5.61-9.1-7.61-14.2-1.51-3.95-1.33-8-2.86-11.81a85.47,85.47,0,0,1-3.76-9.73c-1.33-5.22-2.89-12.36-2.38-17.6a54.12,54.12,0,0,1,1.11-8.74c.95-3.79.57-7.88,1.71-11.11,1.49-4.25,4.8-7.7,6.94-11.62,2.94-5.4,5.73-10.67,9.13-15.81,1.76-2.65,11.34-21.53,14.93-20.12,2-5,5.68-1.66,9.66-5.93s5.67-9.57,10.84-12.94c1.69-1.11,4.69-2.57,4.89-4.39.11-1.06,2.78-5.41,4.28-4.81,1.55-3.87,7.08-5.69,9.15-9.25,1.56-2.71,4-3.49,6-5.66a34.88,34.88,0,0,1,7.48-6.84C337.59,257,342,252.53,347,248.67s10.39-4.35,16.4-5.72c5.61-1.28,12.87.24,17.42-2,9.85-4.77,24,6.19,32.86,9.68,3.5,1.39,7.36,7.25,10.29,10,2.63,2.41,9,8.06,9.32,11.76,2.79,1.09,5.68,8.89,6.47,11.5,1.24,4.18-1.06,10.05-2.6,13.93"/><path class="cls-2" d="M511.4,294.66c-.37-.16-.76-.3-1.15-.45.61-.39.75-.2,1-.92a1.2,1.2,0,0,1,.12,1.37"/><path class="cls-2" d="M508.42,295.47l-1.13-.45c.59-.37.73-.2,1-.92a1.22,1.22,0,0,1,.11,1.37"/><path class="cls-2" d="M504.91,302.7c.48,1.87-2.06,2.19-4.24,2.31,1.15-2.89,1.85-1,4.24-2.31"/><path class="cls-2" d="M484,295.1c4.08,1.61-1.06,2.69,0,0"/><path class="cls-2" d="M680.84,376.31c-.17.38-.31.75-.46,1.13a1.82,1.82,0,0,1-1.26-1.82l1.72.69"/><path class="cls-2" d="M562,331.26c2.7,1.06-1.07,2.7,0,0"/><path class="cls-2" d="M570.68,336c.16-.39.31-.78.45-1.15-1.24-.5-.14.6-1.37.12a1.3,1.3,0,0,0,.92,1"/><path class="cls-2" d="M476.24,298c4.64,1.83-3.28,3.53-4.69,3.45.8-2,3.29-1.51,4.69-3.45"/><path class="cls-2" d="M739.49,404.16c-5.35,9.37,8.84,3.53,0,0"/><path class="cls-2" d="M465,296.21c4.53,3.31-7.22,5.44-9.83,4.72,1-2.49,7.8-3.31,9.83-4.72"/><path class="cls-2" d="M568.28,337.07a6.51,6.51,0,0,1-1.71,2.65c.87.35,2.28-1.31,2.86-2.19l-1.15-.46"/><path class="cls-2" d="M559.8,335.05c1.54.59-1.35,3.45-2.52,3a3.52,3.52,0,0,1,2.52-3"/><path class="cls-2" d="M478.11,306.7c-1.41-.4-6.5-.35-7.1,1.18,1.84.72,5.46,1,7.1-1.18"/><path class="cls-2" d="M563.83,343.28c.39.14.77.3,1.15.46.7-1.27.54-2-.47-2.18-.21.57-.45,1.15-.68,1.72"/><path class="cls-2" d="M502.9,317.84c.38,1.5-1.69,1.94-1.83,1.26.61-.42,1.2-.84,1.83-1.26"/><path class="cls-2" d="M568.88,344c-.75.79-.71,1.27.12,1.37a1.22,1.22,0,0,0-.12-1.37"/><path class="cls-2" d="M680.09,389.94c-1.52-.59-1.38-2.52.11-1.95-.29.71,0,1.16-.11,1.95"/><path class="cls-2" d="M454,300.48c1.1,0,1.41.36.91,1a1.2,1.2,0,0,1-.91-1"/><path class="cls-2" d="M581.17,351.47c-.77.8-.72,1.26.12,1.37a1.22,1.22,0,0,0-.12-1.37"/><path class="cls-2" d="M467.57,309.82c.43-.47.85-1,1.26-1.49-1.22-.49-4.76.31-5.15,1.29,1.5.59,2.27-.06,3.89.2"/><path class="cls-2" d="M552,341.26a1.24,1.24,0,0,1,.13,1.38c-.85-.12-.89-.58-.13-1.38"/><path class="cls-2" d="M493.86,322.23c1.06-1.48,2.37-2.39,4-1.73-.6,1.52-2.39,1.93-4,1.73"/><path class="cls-2" d="M481.58,314.71c-.93,2.34-1.2-.34-1.83,1.26,1.38.55,4.64-.14,1.83-1.26"/><path class="cls-2" d="M466.54,310.75a7.42,7.42,0,0,1-1.69,2.64c1.14.64,2.23.17,3.2-1.38-.7-.28-.87-.76-1.51-1.26"/><path class="cls-2" d="M578.2,355.6c-.48.69-1,1.38-1.47,2.07.54.22,2.63-1.61,1.47-2.07"/><path class="cls-2" d="M462.45,314.43c.78-2,.34-5.64-2.83-4.31-2.5,1.06,1.32,4.12,2.83,4.31"/><path class="cls-2" d="M460.13,310.21c1.11,0,1.42.33.93,1a1.25,1.25,0,0,1-.93-1"/><path class="cls-2" d="M556.06,349.49c.4.17.77.31,1.17.46-.45.89-1,2.28-2.07,1.84l.9-2.3"/><path class="cls-2" d="M487.45,325c-.72,1.79-5.41,4.15-8,3.45,1.24-1.77,5.86-3.75,8-3.45"/><path class="cls-2" d="M673.7,399.36a1.28,1.28,0,0,1,.12,1.38c-.83-.12-.88-.57-.12-1.38"/><path class="cls-2" d="M661.56,399.86c.79-2-.88-3.59-1.86-5.37-.85,2.15-.15,3.89,1.86,5.37"/><path class="cls-2" d="M554.48,353.51c-.79,1.45-1.61,2.92-2.4,4.36-3.44-1.71-.08-4.56,2.4-4.36"/><path class="cls-2" d="M725.72,423.92c0-.64.06-1.29.09-1.94,1.94.76,1.38.7,2.64,1.7a5.88,5.88,0,0,1-2.73.24"/><path class="cls-2" d="M560.35,357.15a9.64,9.64,0,0,1,3.2,1.94c-2.83,2.87-3,6-7.18,6.45,1.49-3.83,3.2-3.29,4-8.39"/><path class="cls-2" d="M555.06,360.39l-1.13-.46c.45-1.05,1.89-3.91,3.3-3.33a10.77,10.77,0,0,1-2.17,3.79"/><path class="cls-2" d="M570.91,367.32a1.28,1.28,0,0,1,.13,1.37c-.84-.11-.89-.56-.13-1.37"/><path class="cls-2" d="M552.32,360.63c.6.22,1.16.45,1.73.67-.34.91-2.83,2.2-3.44,2,.78-1.94.71-1.4,1.71-2.64"/><path class="cls-2" d="M760.84,445.79c.43-.51.83-1,1.27-1.49-.66-.27-4.86-3.87-5-.42-.07,2.09,2.06,1.78,3.7,1.91"/><path class="cls-2" d="M753,442a1.44,1.44,0,0,0,1.48,1.26c.58-.88.07-1.29-1.48-1.26"/><path class="cls-2" d="M544.73,381.51c-.21,1.6-1.2,1.88-3,.8a9.53,9.53,0,0,1,1.36-3.43c-.93-.37-.75.32-1.61.68,1.26-3.12.73-3.25,4.36-4.24-1,2.48,1.21,1.05,1.94.1-3.73-2.14-3-2.13-6,.29-2.45,2-3.7-.69-6.25-1.15,1.25-3.14,5.66-10.38,8.9-9.1-1,1.85-1.9,3.69-2.84,5.52.88.55,1.69.2,2.38-1,3-1.8,2.46-.52,5.41.93,2.09,1,3.71-.5,4.45-2.41,3.37,1.33-2.4,7.1-2.82,8.83-.23.9-4,4.4-6.29,4.16"/><path class="cls-2" d="M643.35,403.94l1.15.45c-.61,2.85-2,3.43-4,1.74,1.2-1.64,2.13-.38,2.85-2.19"/><path class="cls-2" d="M695.91,425.41c-.16.38-.31.76-.45,1.15a1.85,1.85,0,0,1-1.27-1.84c.57.24,1.14.46,1.72.69"/><path class="cls-2" d="M663.9,414.07c-.33,1.36,0,2.18,1,2.4.56-1.4.1-1.52-1-2.4"/><path class="cls-2" d="M756.63,451.43c-.16.38-.3.76-.46,1.13,1.23.5.13-.6,1.38-.12a1.27,1.27,0,0,0-.92-1"/><path class="cls-2" d="M548.94,372.56c-1.08,2.69,2.71,1.06,0,0"/><path class="cls-2" d="M633.08,413.15c3.24,1.29,2.86-4.84,5.48-3.81-.9,2.27,1.69-2.6-.78,3.68.14.06-2.67,1.67-2.86,2.19,2.25.88-1.89,3.9-3.32,3.34.7-1.77.73-3.53,1.48-5.4"/><path class="cls-2" d="M680.11,428.44c-.76.8-.72,1.27.11,1.39a1.25,1.25,0,0,0-.11-1.39"/><path class="cls-2" d="M682.18,433.25c-.67,1.76.34,2.54,2,3.43.46-1.18-1.07-2.76-2-3.43"/><path class="cls-2" d="M700.32,441.08c1.11,0,1.42.35.92,1a1.26,1.26,0,0,1-.92-1"/><path class="cls-2" d="M666.6,432.39c-.76.81-.72,1.27.13,1.37.31-2.5-.27-4.9-2.66-5,.17,1.81,1,2.64,2.53,3.66"/><path class="cls-2" d="M722.94,452.69c2.71,1.07-1.06,2.72,0,0"/><path class="cls-2" d="M707.22,447.13a57.78,57.78,0,0,1,7.92,3.47c2.53,1.39,2,1.31,2.65,3.81a3.49,3.49,0,0,0,1.84,1.62c-.82,2.09-2.87.57-4.71.13,1.85-4.65-9.34-4.89-7.7-9"/><path class="cls-2" d="M738.22,459.39c-8.09,6.43,6,2.38,0,0"/><path class="cls-2" d="M680.6,437.27c-1,2.39,3,6.21,5.08,7.31a3.73,3.73,0,0,0-3.69-4.11c.47-1.2-.44-2.49-1.39-3.2"/><path class="cls-2" d="M535.34,381.77l-1.16-.45c.5-1.25.54.33,1-.93a1.28,1.28,0,0,1,.13,1.38"/><path class="cls-2" d="M539.47,388.05l-1.7-.68c.36-1.38,1-1.8,1.81-1.25-.28.7,0,1.14-.11,1.93"/><path class="cls-2" d="M686.81,445c.49,1.63.71,1.6.71,1.6C688.15,446.25,686.91,445.23,686.81,445Z"/><path class="cls-2" d="M633,425.06c4.58,3.28-1.28,3.24,0,0"/><path class="cls-2" d="M723,466c1.11.18,5.34,1.58,5.84.32-2.44-1.55-4.71-3.2-5.84-.32"/><path class="cls-2" d="M700.14,455c-.76.81-.73,1.26.13,1.37a1.25,1.25,0,0,0-.13-1.37"/><path class="cls-2" d="M665.49,441.9c2.16.84,1.09,3.09-.32,2.52.67-1.72-1,.88.32-2.52"/><path class="cls-2" d="M690.63,453.84c.07,2.38.93,3.05,3.11,3.89.49-1.23-2.27-3.06-3.11-3.89"/><path class="cls-2" d="M723.68,467.59c-1.26-.7-2-.55-2.18.47,1.25.49-.3.52.94,1,.27-.69.75-.88,1.24-1.49"/><path class="cls-2" d="M678.25,454.92c-2.82-1.15-5.33-3.29-4.14-6.29,1.88.75,4.26,4.45,4.14,6.29"/><path class="cls-2" d="M668.62,449.11c2.7,1.07-1.07,2.71,0,0"/><path class="cls-2" d="M672.07,453.8c-.15.38-.29.77-.45,1.15a1.35,1.35,0,0,1-.71-1.61l1.16.46"/><path class="cls-2" d="M681.38,462.13c-1.1,1.11-1.14,1.76-.11,1.95,1.11-1.12,1.14-1.76.11-1.95"/><path class="cls-2" d="M679.58,470.05c-.77.8-.73,1.24.11,1.37a1.24,1.24,0,0,0-.11-1.37"/><path class="cls-2" d="M707.71,481.16c.37.91-.12.23.91,1C708.21,481.28,708.7,482,707.71,481.16Z"/><path class="cls-2" d="M684,479.07c-1.39-.35-1.81-1-1.28-1.82,1.24.48.14-.61,1.38-.12-.27.69,0,1.15-.1,1.94"/><path class="cls-2" d="M501,413.29l1.14.46c-.6.37-.75.19-1,.92a1.26,1.26,0,0,1-.11-1.38"/><path class="cls-2" d="M495.92,412.62c2.69,1.07-1.08,2.71,0,0"/><path class="cls-2" d="M493.42,415.62a1.31,1.31,0,0,1,.12,1.38c-.85-.13-.9-.59-.12-1.38"/><path class="cls-2" d="M416.11,396.31c2.68,1.05-1.63,4.07,0,0"/><path class="cls-2" d="M464.64,444.71c1.2-2.75,6.46-7.77,8.45-7.94.41-1.07,7.74-9.54,9.47-8.86-1,2.44-3.78,9.2-6.38,9.43-1.72,2.67-7.54,7.86-11.54,7.37"/><path class="cls-2" d="M484.11,445.79c-.14.37-.29.76-.45,1.15,1.25.49.14-.61,1.38-.14a1.24,1.24,0,0,0-.93-1"/><path class="cls-2" d="M454.41,438.67l1.73.68c-.62,1.71-1.63,2-3,.83.29-.71.77-.89,1.25-1.51"/><path class="cls-2" d="M480.82,449.11a16.52,16.52,0,0,1-3.33,3.35c.93.35,3.74-1.78,3.33-3.35"/><path class="cls-2" d="M517.54,467c.83-2.14,1.14.2.92-2.31a7.7,7.7,0,0,0-2.86,2.2c.7.27,1.15.05,1.94.11"/><path class="cls-2" d="M500,462.68c1.68,1.33,2.57.8,2.64-1.61-1-.38-1.84.65-2.64,1.61"/><path class="cls-2" d="M456.17,446a1.85,1.85,0,0,1,.47,2.16c-.78-.28-.55-1.29-.47-2.16"/><path class="cls-2" d="M514.69,469.17c-2.83-.17-2,.7-3.65,2.52,2.49,1,2.66-.17,3.65-2.52"/><path class="cls-2" d="M461.1,448.61c-1.9,4.77-4.77-1.88,0,0"/><path class="cls-2" d="M547.52,486.8l-.45,1.14c2.12.32,5.53-.55,6.18-2.19-1.27-.51-3.89,1.3-5.73,1.05"/><path class="cls-2" d="M567.6,491.42a1.28,1.28,0,0,1,.12,1.37c-.85-.11-.88-.56-.12-1.37"/><path class="cls-2" d="M485.78,461.7c2.72,1.07-1.06,2.71,0,0"/><path class="cls-2" d="M510.22,472.05a6,6,0,0,1-1.47,2.06c.54.21,2.47-1.24,2.62-1.62l-1.15-.44"/><path class="cls-2" d="M488.91,468.91c-.16,1.28.52,2.86,1.38,3.2a2.57,2.57,0,0,1,2.06-1.84l-3.44-1.36"/><path class="cls-2" d="M462.06,459.6c-1.12,2.83-1,2.25-3.67,2.53,1.17-2.9,1.06-3.55,3.67-2.53"/><path class="cls-2" d="M458,466.62c2.12.18,2.38,1.17.81,3-2.08-1.05-2.4-1.1-.81-3"/><path class="cls-2" d="M536.82,500.47c-.61.72-1.81,2-.35,2.52,1.45-1.41,1.56-2.25.35-2.52"/><path class="cls-2" d="M452,471.57c.66-1.05,2.67-2.93,3.67-2.54-.67,1.62-.31,3.86-3.67,2.54"/><path class="cls-2" d="M531.89,504.5c1.51.6,2.73-.91,1.26-1.49-.29.71-.77.87-1.26,1.49"/><path class="cls-2" d="M477.15,483.51l1.26-1.5c1,.78.79,1,2.07,1.49-.51,1.29-2,.55-3.33,0"/><path class="cls-2" d="M485.53,487.48c-.41.5-.84,1-1.25,1.49.87.35,1.24-.28,2.18-.45a1.3,1.3,0,0,0-.93-1"/><path class="cls-2" d="M469.59,482.5c-.3.77-.6,1.53-.91,2.29-1.81-1.32-1.68-2.42.91-2.29"/><path class="cls-2" d="M474.75,484.54a1.28,1.28,0,0,1,.12,1.38c-.83-.11-.88-.58-.12-1.38"/><path class="cls-2" d="M453.08,480.61c-.76.81-.71,1.27.12,1.37a1.26,1.26,0,0,0-.12-1.37"/><path class="cls-2" d="M442.66,481.8c-2.2-.87-7.64,4.44-8.79,7.13,3,1.2,7.67-5,8.79-7.13"/><path class="cls-2" d="M424.55,477.29c-1.06,1.41-.68,1.21-2.42,1C423.18,476.91,422.8,477.1,424.55,477.29Z"/><path class="cls-2" d="M527.92,519.53l1.17.45c-.49,1.25-.55-.32-1,.93a1.34,1.34,0,0,1-.13-1.38"/><path class="cls-2" d="M525.66,521.94a1.3,1.3,0,0,1,.12,1.37c-.84-.11-.89-.58-.12-1.37"/><path class="cls-2" d="M418.38,482.8c-2.68-1.06-.24-2.15,1.47-2.06-.49,1.26-.72,1.12-1.47,2.06"/><path class="cls-2" d="M524.62,522.86a1.24,1.24,0,0,1,.13,1.38c-.84-.11-.88-.57-.13-1.38"/><path class="cls-2" d="M412.41,484.44c.39.14.77.3,1.15.45-.59.38-.73.19-1,.92a1.26,1.26,0,0,1-.14-1.37"/><path class="cls-2" d="M403.85,491l1.16.46c-.66.4-1.42,1-2.19.47l1-.93"/><path class="cls-2" d="M386,505.84c-.08,1.78-.95,2.34-2.63,1.61.7-1.76,6.43-6.07,7-5.87,1-2.62,7.5-7,10.4-7.82C399.71,496.41,390,507.4,386,505.84"/><path class="cls-2" d="M412.14,500.25c.37.15.77.32,1.15.44-.6.39-.75.2-1,.94a1.24,1.24,0,0,1-.11-1.38"/><path class="cls-2" d="M493.85,535.23c-.15.38-.31.77-.47,1.15,1.26.49.13-.6,1.38-.12a1.27,1.27,0,0,0-.91-1"/><path class="cls-2" d="M426.26,509.82c-.9,1.3-2.05,1.58-3.43,2,.78-2,1.25-2.25,3.43-2"/><path class="cls-2" d="M419.19,514.32a1.32,1.32,0,0,1,.12,1.36c-.85-.1-.9-.56-.12-1.36"/><path class="cls-2" d="M377.34,511c1.1,0,1.42.32.92,1a1.25,1.25,0,0,1-.92-1"/><path class="cls-2" d="M477.3,555.23l-.9,2.3c-1.31-1-.74-.88.11-1.95-2.67-1.05-1,1.6-4.71.13.93-2.33,3.61-1.22,5.5-.48"/><path class="cls-2" d="M387.46,522.34c-.76.81-.71,1.26.13,1.38a1.22,1.22,0,0,0-.13-1.38"/><path class="cls-2" d="M470.91,558c2.75,1.38,1.49,1.26.79,3-1.42-1.11-1.55-1.07-.79-3"/><path class="cls-2" d="M467.92,558.82c1.57,0,2.07.37,1.5,1.26-1.57,0-2.06-.37-1.5-1.26"/><path class="cls-2" d="M357.8,525.2c-1.09,1.29-2.43,2.52-4.22,2.31,1-1.66,2.17-2.58,4.22-2.31"/><path class="cls-2" d="M374.45,531.79c1.09,0,1.4.33.9,1a1.24,1.24,0,0,1-.9-1"/><path class="cls-2" d="M392.58,542.94c.22-.57.46-1.15.69-1.72-1-.37-1.84.67-2.63,1.63.69.26,1.15,0,1.94.09"/><path class="cls-2" d="M363,530.57c-.9,2.24-3.3,3-3.09-.57a7.7,7.7,0,0,1,3.09.57"/><path class="cls-2" d="M602.13,627.2c2.36,1.48,13.08,7.18,11.72,10.61-3.28-1.31-11-7.19-11.72-10.61"/><path class="cls-2" d="M351.73,528.77c.25.85.24,2.09-1.24,1.49l1.24-1.49"/><path class="cls-2" d="M355.52,530.93l1.73.69c-.28.72-2.09.73-3,.82.41-.51.82-1,1.24-1.51"/><path class="cls-2" d="M597.43,627.33c2-.09,2.71.41,2.06,1.48-2,.08-2.71-.41-2.06-1.48"/><path class="cls-2" d="M589.74,625c.83.57,2.61,1.81,2.18,2.86-1.91-.68-3.55-.76-2.18-2.86"/><path class="cls-2" d="M346.26,535.89c-.37-.16-.76-.3-1.14-.45.49-1.24.52.33,1-.92a1.21,1.21,0,0,1,.13,1.37"/><path class="cls-2" d="M342.94,535.9a1.32,1.32,0,0,1,.12,1.38c-.85-.1-.88-.57-.12-1.38"/><path class="cls-2" d="M627.3,649.1c-.92,2.35-2.71.71-2.87-1.12l2.87,1.12"/><path class="cls-2" d="M628.68,652.31c1.11,0,1.43.33.94,1a1.26,1.26,0,0,1-.94-1"/><path class="cls-2" d="M631.67,654.8c2.53,1,5.6,2.15,3.45,4.71-1.32-1.29-3.07-2.78-3.45-4.71"/><path class="cls-2" d="M631.57,660.08l.48-1.14c.36.59.18.73.91,1a1.25,1.25,0,0,1-1.39.12"/><path class="cls-2" d="M312.38,769a6.38,6.38,0,0,0-.78,1.86A14.66,14.66,0,0,0,312.38,769Zm435.38-2.81a2.06,2.06,0,0,0,.86.57A1.65,1.65,0,0,0,747.76,766.21ZM319,757.37c-3.63-1.43-4.75,6.5-6.62,11.65a4.36,4.36,0,0,1,1.18-1.25C316.21,765.83,317.57,760.25,319,757.37ZM431.81,891.59c-.2.49.21,1.07,1.09,1.68C434.14,892.6,434.51,891.9,431.81,891.59Zm367.33,6c-.39-8.77-2.62-18.13.17-26.73,3-9.18,12.73-33.24-3.17-35.91-7.72-1.29-2.84-14.32-2.4-19.28.16-1.79-.82-7.21,1.44-7.94,2.42-.79.94-6.77,1.68-8.61-8.6-1.18-7.35,11-14.39,12.89-.54-4.7-2.64-8.63-1.14-13.27,1.18-3.67-1.69-7.69-3.86-10.38-3.19-3.88-3.57-4.51-5-9.26-1.24-4-10.42-4.4-13.8-5.74-.91,2.26.88,4.43,0,6.64-2.27-.7-4-2.52-6.16-3.45-4.27-1.85-.83,1.43-4,2.1-4.06.83-5.69-2.34-6.82-5.33-1.07-2.83-10.46-12.92-1.79-13.54-.68.05,1.67,6.81,1.89,7.37,1.39,3.62,4.69,6.67,8,8.65,1.41-3.91-2.14-5.94-3.1-9.31a1.4,1.4,0,0,1,1.17-.31,1.63,1.63,0,0,1-.18-1.82c2.79,1.12,4.55,3.79,7.35,4.9-1.58-5.7-10-7.89-9.57-14.4a29.14,29.14,0,0,1,7.81,3.75,3.68,3.68,0,0,0-.81-3c.74.63,4.2,2.46,6,3.9,3.27,2.65,4.93,6.83,9,8.66.37-3-4.36-4.07-3.11-7.22,2.46,2.09,4.36,5.06,7.46,6.29,1.15-2.89-4.65-6.46-6.48-7.68s-1.24-4.29-3.89-5.56-1.51,1.71-5.58-.06a24.07,24.07,0,0,0-7.9-1.73c-6-.43-11.29-2.89-17.12-4.1s-11.48-3.38-15.62-7.86c-2.87-3.09-2.66-8.06-5.83-10.72-9.23-7.72-.61,5.83-1.17,7.24-5.26-2.61-5.61-9.92-11-12.35-.26,1.94,1.22,3.59.48,5.51-1.22-.27-6.13-1.3-5.3-3.41-1.28-.77-3.45,2.24-3.19-.83.19-2.2-3.19-8.27-5.21-9.81-4.25,5.06,11.55,20.26,14.63,22.89,1.7,1.44,11.46,12.63,4.46,9.92-2.51-1-6-2.2-7.45-4.68a2.81,2.81,0,0,1,.49-3.42c-1.71-.68-2.5-.79-2.39-.35.29.4.56.75.79,1a2.73,2.73,0,0,1-.79-1c-1.26-1.63-2.94-3.89-3.06-4.62-.83-4.94-2.58-3.22-5.81-4.94-6.08-3.23-3.56-9.75-10-12.29-7.49-3-11.9-13.62-17.69-18.87-2.26-2-9.77-7-8.25-10.78,1.26.71,2.54,1.42,3.79,2.16-.49-1.66-2.62-3.44-1.86-5.37,2.27,1.11,7.34,8.92,1.86,5.37.71,3.25,4.76,3.41,5.8,6.09.67,1.67,2.06,4.81,4.2,5,2.44.21,3-4.63,5.69-2.8,1.79,1.18,3.11,4.51,5.77,2.87-1.55-1.76-6.23-4.36-5.07-7.31,7.13,2.81,2.63-5.81-.75-8.13-2.56-1.74-1.74,1.15-4.83-1.22-1.24-.82-2.51-1.63-3.79-2.41-1.93-1.73-2.72-4.32-4.9-5.84-.82,2,.63,4,.26,6.06-2.92-1.07-6,.27-8.94-.88-.08,1.31-.13,2.6-.21,3.9-2.11-.83-3-3-5.07-4-1.4,3.51-3.41.7-5.26,3.23-3.52-4-4.38-9.43-7.73-13.47-1.78-2.18-5.76-6.11-4.5-9.29,4.85,1.92-.45-5.44-3.8-5.49.29,1.41,3,2.57,2.33,4.23-3-1.64-5.08-4.61-8.29-5.92-.31,5.77-12.49-.29-12.87-3.24-.6-4.41-2.5-5.81-6.75-6.91-3.71-1-2.24-2.81-3.71-5.46-2.59-4.65-10.56-4.82-11.88-10.41-1-4.41,2.39-4.22,5.13-6s3.68-6.32,8.07-4.59c-2.11-4.64,12.21-13,15-14.93a82.56,82.56,0,0,0,21.81-21.69c8.08-12,5-25.19,2.47-38.08-.45-2.36-2.24-4.65-1.21-7.13a9.3,9.3,0,0,0,.64-5.92c-1.38-5.8-3-6.52-8.13-5.89-.37,0-4-13-4.11-14.27-.46-5.09,3.61-5.73,6.94-8,6.34-4.29,4.51-20.31-5.61-17.52-5.25,1.42-5.77,10.21-11,10.41-5.7.22-6.29,1.43-10.14,5.31-1.35,1.36-10.18,6.4-10.35,1.81-.21-5.37-4.75.35-5.68,2-4-3.08-5.19-9.57-11.44-8.69-3.62.52-4.91,3.17-8.3,3.88-2.13.44-5.08.11-7,1.23-3.63,2.09-6.18,6-10,8.15s-10.7,5.23-13.2,8.88c-6.13,8.84-16.32,14.86-24.58,21.63-5.2,4.26-13.72,19.2-22.11,16.26-.52,1.34,0,1,.47,2.17-2.08-.83-4.66,1.61-5.83,3a11.7,11.7,0,0,0-7.55,2.32c-2.66.69-6.19,2.11-8.6-.08.64-1.6,1.52-4-.69-4.93,1.51-1.81,4.21-1.57,6-3s1.74-4.41,2.3-6.35c4.5,2,4.08,5.8,9.17,1.73,2.86-2.31,6.5-4.69,8-8.23-5.31-1.34-6.9,5.58-11.68,6,1.38-3.47,5.77-4.76,8.15-7.41,1.48-1.63,3.59-4.69,6-4.9,0,5.48,4.23,2.57,7.6.08,2.33-1.73,2.79-3.81-.52-4.58.88-2.2,4.67.33,6,.56,3.58.59.83-2.73,1.42-4.25,1.69.23,1.95-.23,2.89,1.14,1.31-3.35,7.61-3.73,10-6.14,4.12-4.09,8.12-8.3,12.47-12.17-1.64-1.62-2.91-3-5.29-3.41,1.08-2.76,8.44.65,11.42-.89,2.51-1.27,5.44-3,6.53-5.72q-.84-3.75,2.86-3.24a7.59,7.59,0,0,0,4.12-2.86c-3.23-.75-5-3.64-.49-2.88,4.87.82,6,1,9.75-2.58,1.86-1.78,4.18-3,6-4.84,1.18-1.13-3.49-2.7-2.52-5.2,6.3,2.49,10.88-1.41,15.07-5.66,1.95-2,13.78-10.66,13.51-13-.58-.19-1.14-.37-1.72-.53,1.63-2.15,4.85-4,7.18-5.19,2.62-1.39.08-3.22,3.16-3.53,5.46-.56,6.22-4.17,9.25-8.16,2.78-3.61,6.28-.47,8.3-3.27-4.79-1.9-2.55-4.49.54-7.36,2.51-2.34,1.16.45,3.57-3.09a21.57,21.57,0,0,1,4.49-4.46c1.49-1.16,5.83-3.41,2.93-5.42-2.21-1.54-4.24-.52-2.84-3.9a12.12,12.12,0,0,1,3.33-4.31c2.84-2.63,12.44-20.45,16.06-11.32,1.08,2.7.91,7.95,3.35,9.87,1.69,1.35,3,.24,3.53,2.61.29,1.31.58,3.61,2.07,4.2.72-2.51-1.34-5-.36-7.45,1.95,1.65,12.21,15.24,7.46,17.17-2.08,1.87,3.25,8.35,4.25,9.63.43.54,2.79,3.64,3.51,1.8,2.09,1.58,2.6,4.28,3.59,6.55,2.24,5.19,8.6,7.76,11.24,13,1.65,3.24,18.16,10.49,16,14.15-2.89,4.84-20.62-14.52-22.6-15.86-1,1.85,1,2.43.36,4.14-2-1.15-2.94-3.34-4.83-4.57-1.71,4.12,1.53,8,1.87,12-4-1.6-4.25,2-1.46,3.94a33.1,33.1,0,0,0,6.53,3.37c1.92-5.37,5.9-4.68,11.72-3.23,1.94.49,9.41,3.49,8.24,6.47-4-1.62-7.71-4-11.58-5.91-.73,2.51-3,4.06-3.9,6.44,1.89-.16,7.27,5.6,7.09,7.46-.06.61-5.48-1.52-6-1.73.67,7.66,9-.66,9.74,4.68.35,2.48,8,1.38,9.77,3-2.13,2.53-2.27-.24-4.25-1a8.15,8.15,0,0,0,1.34,7.45,8,8,0,0,0,3.4,2.39,9.47,9.47,0,0,0,1.69,4.23c1.78,2.39,2.34,2,4.79,1.71,3.26-.42,5.08,3,7.19,4.78-.87,2.23-5.67-.26-7-.79-.43,3.2,3.33,4.07,3.93,6.86,1.49.13,3,.27,4.46.45.12-2.34,1.1-3.05,2.95-2.11,2.6,1.27,2.85-1.11,4.47-.69,3.07.76,6.58,3.11,9.57,4.37,5.19,2.22,9.7,8.43,16,7.42,1.67-.27,3.45.64,5.14.57s3.07-1.17,4.75-1.58c2.68-.65,6.26.64,9.11.37,3-.31,6.15-1.19,9.26-1.06,2.25.07,6.9,1.85,8.88.39a12.55,12.55,0,0,1,7.19-2.93c1.18-.13,4.54.52,5.56-.34,2.09-1.75,3.43-3.12,6.43-2.43,4.86,1.15,10-3.11,14.37-5.21,17.61-8.43,37.07-11.55,53.56-20.42,4.61-2.48,7.9-6.22,13-8.18a47.21,47.21,0,0,1,15.1-3.17c4.82-.17,8.5-2.63,12.14-5.51s7.57-4.09,11.34-6.5c4.59-2.95,8.63-7.27,14.26-8.22,2.56-.45,7.32-5.4,8.85-7.45,5.9-7.89,15.17-10.62,20.66-19,7-10.69,11.8-22.24,16.14-34.26,1.62-4.52,1.66-8.46,4.68-12.27,2.34-3,.5-5.57,1.87-8.9,3.49-8.66,7.09-17.69,7.28-27.17.08-4.49,1.3-9.28,0-13.69-.56-1.88-.52-8-1.51-9.13-4.65-5.53-1.57-10.43-4.09-17.08-1.35-3.54-1.84-7.74-3.23-11.06-1.68-4-2.78-8.91-4.71-12.77-3.16-6.29-2-17.88-10.2-20.48-5-1.58-8.29-5.75-13.58-7.19s-10.75-2.09-16.12-3.17c-6.15-1.2-12.58.91-18.8.63-3.13-.14-9.84-.71-11.49,3-1.32,2.91-.49,8.11-5.26,5.85-5.6-2.65-10.79-6.11-16.56-8.41-.31,3.77,4,5.1,6.5,6.8,1.7,1.19,3,3.08,5.31,3.14,2.11,0,1.47,2,3.13,2.61.92-2.31,2.63-2.39,4.81-2.08-1.21,2.68.5,5.07-3.26,5.5-3.08.36-6.31-1.15-9-2.5-5.11-2.57-9.47-6.42-14.55-9-.65,4.29,5.63,6.83,6.79,10.46.67,2.14,3.21,3.78,4.57,5.83a21.53,21.53,0,0,1,3,8.78c1.16,7,1.31,14.18-1.49,20.81-2.2,5.24-1.45,9.46-2.69,14.7-1.37,5.77-4.56,11.38-9.34,14.9-2.1,1.55-3.6,3-2.34,5.61.24.46,1.76,2.59.21,2.76-2.3.24-1.9-1.8-3.91.17-2.41,1.83-5.23,2.94-7.72,4.66-2,1.38-2.67,5-4.53,5.88-1.92-.24-3.78,2.13-5.28,3-10.72,6.12-20.45,14.73-32.33,18.65-3.6,1.17-12.6,1.06-14.19,5.08-2.8-.37-5.22,1.36-7.19,3.11-1.31-.5-3.23.16-4.44.54-4.55,1.41-8.3,5.1-13.11,4.68-4.27-.35-8.94,2.94-13.32,3.13-2.87.12-5,1.48-7.8,2.16-3,.73-6.07-.18-9.12-.28-3.88-.11-9.65.65-10.48,4.55-2.49-1-5.08-1.73-7.47-2.94-.24,4.43,11,5.6,2.14,7.41-7.05,1.44-4.39-3-.52-1.47.24-4.43-9.9-4.91-12.7-5.15a24.88,24.88,0,0,1-7.26-1.42c-1.22-.48-5.41.47-3,.8-3.48,4.42-15.07.75-19.35-.5-2.61-.75-14.21-1.41-6.69,1.7,4.32,1.81,5.48,1.95,6.72,6.37.89,3.1,4.18,5,6.76,6.44C725.08,421,735.69,423.89,746,428c-3,4.39-8.72.28-12.26-.89-1.77,5.14,6.46,5.79,9.62,5.11,2.23-.48,6.31,2.85,7.57,4.51,1,1.33-1.1,3.39-1.55,4.53,1,.39,1.35-.12,2.53.36-.18.41-19.77-3.19-21.67-4-1.49,3.73,5.11,3.36,7,4.1,3.07-2.74,8.67,1.44,11.58,2.6-1.18,3-9.12-.93-11.68-.45a37.36,37.36,0,0,1-12.35.1c-3.31-.49-8.17,1.93-3,1.8,4.87-.12,5.75.63,9.79,3.66-2.33,1.51-.57,4-1.12,6.18a19,19,0,0,0-4-1.58c-1.06,2.68,5.42,3.37,6.12,4.72,1.68,3.31-5.15,2.81-6.63,2.7-4.4-.35-7.56-2.08-11.55-3.84-2.27-1-6.56-1.26-8.17-3.43,0,0,0,0-.09-.11l.09.11c.06,0-2.45-4.25-2.17-2.35a2.07,2.07,0,0,1,.18,1.36,21,21,0,0,1-4.83-1.24c-.46,1.55-.29,11,1.94,9.56-5.43,3.52-10.88-12.74-2.28-10.37,1.58-4-8.73-4.83-7.22-8.62-.23.54,9.2.13,8-1-3-2.86-12.15-.54-11.19-7.72,2.79,1.93,5.1,4.57,8.25,5.93.88-2.16-1.77-4-3.22-5-2.22-1.5.32-1.71-.84-3.67-.61-1.05-6.63-4.09-5.23-5.77,2.41-.8,2.28.3,3.39-2.54-2.62-.62-4.57-1.08-5.62-3.81-.38-1-1-3.71-2.06-4.5a.25.25,0,0,1-.25-.14,1,1,0,0,1,.25.14c.68,0,2.24-1.4,2.38-1.75-5.12.45-9.28-5.29-12.24-9.11a23.23,23.23,0,0,1-4-6.74c-1.14-3.46-.38-2.53,2-2.19.59-.18-2.1-6-1.76-6.89,1.09.62,5.22,4,6.47,3s-2.42-4.07-1.79-5.33c.54-1,4.13,1.93,5.06-.42-10.87-7.35-4.25-15.95.57-24.94,5.66-10.6,11-20.74,17.82-30.67,3.65-5.33,6.88-10.25,11.58-14.76,3.77-3.62,7.77-7.13,10.68-11.52,3.2-4.79,5.1-10.24,8.45-15,3.63-5.18,7.37-10.18,10.41-15.75,1.58-2.89,2.38-6.42,5.38-8.17,1.16-.69,3.21-1.48,3.29-3.18.27-5.36,3.61-6.29,6.58-9.91,6.12-7.5,9.53-17.06,15.87-24.45,3.5-4.07,6.86-7.51,8.89-12.62-2.71-1.06,2.67-5,3.52-5.57,3.59-2.69,3.22-6.07,4.71-9.87,1.39-3.48,4.09-5.54,5.31-9.24s4.18-8.57,6.08-11.8c2.31-3.93,6.28-3.76,7.71-8.3,1.7-5.37,5.57-9.17,7.7-14.27,1.25-3,4.23-6.2,4.62-9.29a107.75,107.75,0,0,1,3.08-15.47c.56-1.95,2.15-3.25,1.66-5.31-.35-1.44-.88-2.6-.09-4,4.21-7.3,4.53-14.84,3.88-23.07-.82-10.56-.36-21.48-3.15-31.82-.85-3.07-2.2-7.59-5.51-8.9-.36-4.1,1.74-9.64-2-12.71-3.16-2.56-5.93-4.82-9.8-6.06-3.45-1.1-6.71-8.93-9.06-11.66-3.56-4.15-6.09-9.35-10-13.1-2.32-2.19-5.81-6.13-4.42-9.62-2.1-1.52-2.22-3.48-5-4-1.27,1.81-4.33,1-6,.41-3.4-1.19-5.56,1.51-8,3.78-8.83,8.29-13.62,15.28-16.8,27.2-.8,3.06,2.09,11.22-.69,13.3-1.91,1.42-4.66,1.51-6.82,2.39-1.41.6-1.71,2.23-3,3.08-3.09,2.1-11-6.59-13-8.48-1.85-1.69-4-5.3-6.62-5.91-3.63-.85.06,3.41-4.6.24-3.23-2.21-9.73-7.85-12.89-2.41-2.22,3.83-.85,8.83-.5,12.93.47,6-.45,10.93-.67,17-.25,6.78-3.88,12.34-4.44,19-1.15,13.62-14.43,22.73-14.47,35.73,0,4.34-3,12.3-5.74,15.74-1.91,2.41-7,7.2-4.81,10.7a2.85,2.85,0,0,1,2.3-.57.33.33,0,0,1,.19,0,.68.68,0,0,0-.19,0c-1.55.18-3.8,9.59-5,10.67-4,3.84-3.8,4.54-5.85,9.76.38.14-1.51,3.66-1.58,3.83-2.17,4.23-4.47,8.39-6.86,12.48-2,3.36-4.64,6.3-6.75,9.56s-3.08,7.35-5.41,10.59c-10.62,14.94-17.18,33-25.81,49.38a127.51,127.51,0,0,1-17.15,25.16c-6.53,7.45-13.49,14.92-17.2,24.27,2.84-.14,4.26-2.17,5.14-4.59,1,1.75,1.51,2.3,3.57,2.73a93.26,93.26,0,0,1-17.16,28.4c-2.48,2.75-9.6,8-8.71,12.24.48,2.3-3.72,6-1,7.12.44-1.68,1.63-2.65,3.22-1.39-1.42,2.36-2.16,3.17-5,2.67-.21,2,.45,3.87-.32,5.84,3.45.29,7.1-4.58,8.21-7.37,2,.8-3.19,9.8-3.73,11.13,3.67,1.45,8.11-6.25,9.93-8.42,1.08-1.29,2.81-4.08,4.64-4.27,3-.32,3.26,3.14,1.49,4.68-2.54,2.18-3.27,4.7-4.86,7.55-1.32,2.31-3.94,2.29-4.79,4.36-1.25,3-4.07,9.64-8.44,7.9,3.63,5.08-16.31,21-19.61,24.29-3.49,3.48-6,7.78-9.25,11.46-2.63,3-6.07,4.92-8.85,7.69-2.22,2.24-1.58,4.16-4.72,3.43a3.83,3.83,0,0,0-3.59,1.2c-1.19,1.15-2.62,3.69-4.65,2.9a31.55,31.55,0,0,0,2.95-4.15,29,29,0,0,0-6.3-2.5c-1.8,9.91-12.27,14-18.07,21.24a50.73,50.73,0,0,1-14.9,13.2c-.75.42-8.45,6.36-8.45,5.95.12,3.92,6.41,1.47,3.66,6.39,3.19,1.27,6.8,2.82,10.31,2.34a5.83,5.83,0,0,0,4.1-2.45c1.68-2.39-1.09-2.61-.33-3.3,1.15-1,5.2-1.07,5-3.5-.1-1.09-1.82.51-2.52.2.12-1.83,1-2.67,2.87-2.19-.65,1.66.12,2.53,1.85,2.06-.86,2.14-5.67,5.69-3.46,8.27,3.22,3.76-1.71,4.75-2.9,7.8-3.43-4.05-9.28.08-11.33,3.48,2.4.94-1.06,2.9-2.3,2.41-2.42.56-1.69,2.64-2.38,4.36,2.64-.22,3.69,1.32,5.51,2.85.4-2.16-.09-7.62,3.47-5.66,3.29,1.78,4.82-4.34,9.11-2.64-1.49,2.5-12.56,14.95-5.67,17.67-3.58,2-5.12-2.7-7.82-4.06a33.65,33.65,0,0,0-8.82-2.53c.43-2.36,2.39-2.65,3.19-4.71-7.18-1.54-11.94,5.65-17.83,8.22.11-2.47.36-5.85,3.76-4.5,1.49-3.8,5.1-6.2,6.61-10,1.05-.85,5.51-2.46,2.16-3.78,1.11-1.83,1.87-3.24,4.22-2.31-.27.68-3.79,1.74-3,2.54,2.41,2.53,3.26-2.22,5.42-3,.53.45.49.91-.08,1.4,1.48.58,6-3.49,5.94-5-1.48.43-7.15,4.06-6.65,0-5.55,1.54-9.86,6.18-13.31,10.46-2.38,3-7.83,9-12.29,7.28.89-1.09,3.79-1.78,4-3.3.21-1.24-.2-3.93-1.88-2.87-1.11.71-6.83,5.16-7,1.6.49.41.76.3.78-.34-2.77-1.11-3.61,2.93-4.83,4.45-2,2.49-6.5,2.4-7.84,5.79-5.11.44-9.73,8.75-11.64,12.65,6.1.56,9.8-10.06,16.24-7.5-3.48,2.61-3.61,6.53.72,8.24-1.38,1.23.23,2.48-.59,3.95-1,1.85-2.82,3-3.63,5a17.81,17.81,0,0,0,11.58-4c3.45,1.35,5.89-3,9.26-1.65-3.63,6-7.89,13.51-13,17.56-3.12,2.48-1.3.53-4.64,1.57-2.32.73-2.94-.35-3.56-1.2-.66.45-1.31.39-.83-.78a2.06,2.06,0,0,1,.83.78,2.47,2.47,0,0,0,1.16-1.85c-.09-3.59-3.22-2.08-5.22-1.33-2.9,1.07-4-1.48-6.55-1.91s-5.92.52-8.59.37c2.18-2.92,5.34-5.13,6.74-8.63-3.37-1.33-5.49,3.54-7.53,4.59-3.17,1.62-2,.08-3.67,3.16-.86,1.55-2.95,3.91-5,3.08.65-1.06,1.28-2.12,1.94-3.2-1.89-.75-1.83,1.93-3.79,1.15,3.34-6.12,11.13-8,14.29-14.25-3.42-1.36-8.76,5-10.93,6.95-1.85,1.68-3.9,1.53-6.13,2.32-2.78,1-4.32,4-6.74,5.53-5.41,3.51-21.73,22.26-29.48,19.2a3.52,3.52,0,0,0,2.51-3c-2.66-1-11.86,10.08-13.68,11.87-6.66,6.51-15.08,12.54-24.16,15a8.14,8.14,0,0,1,1.13-6.2c-2.29-.3-2.87.44-3.52,2.33-.75,2.16-2.8,2.05-4.37,3.36-.27.21-7,6.61-4.25,1.2,3.59-7.07-7.07-3.06-7.87-8.07-.5-3.12,3.07-4.83,6.31-4.67,4.22.19,3.17.14,6.34-1.15,2.69-1.09,2.82.94,6-.61a24.16,24.16,0,0,1,4.06-1.42c2.54-.64,6.67-1.25,7.8-4.07-4.27-1.07-8.66.55-12.85-1.1.84-1.61,3.21-1.38,3.88-3.12-3.63-.47-28.22-4.11-30.36,1.28,4,1.58,8.42,1,12.62,1.67-2.18,5.48-20.2-.64-23.4-1.29,1.7-3.12-4.4-1.1-1.36.13-.36.89-7.78-.49-8.68-.51-2.83-.07-4.05,1.41-6.48,1.94-4.59,1-12.67,1.48-17.16-.3,2.48-.72,1.3-2.46-.87-1.85s-4.24,1.9-6.55,2.38c-4.12.87-8.43,1.35-12.84,2-11.3,1.54-22.88,6.54-34.2,5.68-5.68-.43-7.51,3-12.55,3.62-4.1.53-7.75,1.44-11.72,2.15-2.48.45-8.44,1.28-9,4.47-.42,2.48,2.7,3.86,4.31,4.9,2.71,1.74,1.83.16,4.09,1.06-4.74,4.21,4.45,3.4,4.13-.36,4.11,1.62,14.3-6.47,15.63-1.78.76,2.71-1.63,2.59,2.59,3.2a21.12,21.12,0,0,0,5.5.08c4.15-.49,7.15-3,11-4,2.57-.65,3.81-2.39,6.75-2.49,2.27-.07,5.37.3,6.93-1.78a23.15,23.15,0,0,1-5-.67c1.34-3.38,10.69-3,13.4-2-.73,1.85-3.17.76-4.24,2.31a28.49,28.49,0,0,1,4.71-.13,2,2,0,0,1,.95-2.39c1.95.77,2.32,3.14,4.58,0l-.19-.16c-1-.31-1.87-.11-2.84-.49.67-1.68,1.78-.5,2.84.49a1.11,1.11,0,0,1,.26.07.31.31,0,0,0-.07.09,2.18,2.18,0,0,0,1.32.78c2.18-.15,4.58-.54,6.77-.83,6.45-.83,14.26.58,20.85.78-2.24,5.71-12.08-1.31-14.53,4.86,2.65.26,5-1.71,7.67-.94-.7,1.75-3,1.51-3.87,3.11,1.55.19,11.89-1.26,7.78-2.91,4.86-3,10.19-1.57,15.36-2.8,2.94-.73,6.91-4.1,1.68-5.05,3.18-8,7,9.93,7.23,12,.58,4.89-1.6,10.19-7.74,7.76,1.34-1,3-1.5,3.89-3.1-3-1.19-4.08-6.07-8-4.63-1.82.68-6,3.76-8,3,1.54-3.88-4.77-2.44-5.84-.33,3,1.19-.86,2.3-2.38,1.23-1.23-.87-3.07-2.23-4.16-3.15.63,5.21-4.85,3.68-8,3.35-3.39-.36-7,1.8-10,3.1-4.9,2.12-8.17,2.42-13.49,2.33-1.69,0-3.74,1.33-4.76-.86-.5-1.06.12-3-1.3-3.54-.48,2.73-2.69,4.49-5.49,3.79a20.89,20.89,0,0,0,2.86-2.17c-2.1-.22-4.35-.77-6.44-.13-3.08.94-1.77,1.43-.52,2.46.27.77-6.35,2.8-5-.46-2.6-.14-4.35,4.92-1.7,6,0,0,5.14.7,5.61.89,1.19-3,12.25-.47,14.44.41a15.68,15.68,0,0,0-3.8,4.63l1.73.19c2.84-1.19,6.6-4.81,5.87.66-2.05-.21-4-.46-5.87-.66a2.73,2.73,0,0,1-1.93.23,4.09,4.09,0,0,1,.2-.42c-5.63-.59-10.77-.74-16.88,1.22-4.61,1.5-12.14,2.89-14.83-3.32-1.25,3.15-3.16-.77-4.14,4.21-1,1.41-2.91.16-3.63,2,1.58.22,2-.25,2.88,1.14-1.47,1.29-7.38.17-6.33-2.51-1,1.78-8.62-3.2-10.26-3.45-5.86-.85-9.2-5-13.49-8.59a6.65,6.65,0,0,0-1.6,4,6.27,6.27,0,0,0-3-2.49c-.27,1.66-.48,3.35-.67,5-2.12-.38-8.42-3.13-10-2.78-1,.22-4.84,6.3-5.49,7.43-3.35,5.77,3.73,11.69,1.35,17.62,5.43-1.16,3,6.74,5.54,8.8,1.69,1.37,2.77-.52,4.45,2.11,1.15,1.81,1.93,5.19,3.73,6.47a89.7,89.7,0,0,0,3.1-13.71c.55-4.18,2.34-3.62,2.91.7s-.28,11,3.12,14.2c2.53,2.41,1.11,2.24,0,5.56-.7,2.06-.75,4.36,1.37,5.61,3.12,1.82,4.23,5.33,7.15,7.13,2.13,1.32,4.72,1.75,7.07,2.47,6.76,2,4.6,8.67,10,12.21,1.37.9,8.6,4.74,10,2.68,1.56-2.4,1.33-3.41,4.37-4.53,2-.74,5-1.23,6.4-3.07-2.43-1-3.37-3.69-3.42-6.08-.08-4.43.3-2.28,3.05-2.66.49-1.18-1.13-1-1.69-1.06.1-.69.66-1,1.67-1-2-.78-3.44-1.43-3.12-3.9a26.86,26.86,0,0,0,3.61,1.58c3.88.92,0-1.75-.1-1.93,5.83-5.44-.42,0,1.53-2.3a25.17,25.17,0,0,0-4.91.71c-1.52-5.33,14.83-6.06,17.4-3.73-2.06,1.05-6.19.54-7.2,3.12,3.33.72,2.61,1.52,3-.82,8.11,3.21-7.15,3-7.67,4.27,4.36,1.64,10.23-1.86,14,1.55-1,.93-14,2.27-5.91,3.65,3.63.6,12.89,2.69,16.37,1,4.28-2.11,4.48-4,9.77-4.39,1.9-.16,3.62-1.08,5.5-1.22,2.27-.15,1.91,1.73,3.53,2.68,2.92,1.71,16.32.53,17.72-3-4.16-.64-8.41,1.17-12.5-.31,3-3.9,26.85-9.36,21-1,2.15.86,4.31-.29,6.43.55-2.31,5.82-23.5,10.41-28.85,9.16-.17,1.38,1.49,2.87-.14,4-1.15.77-2.1,0-2.71,1.53,2.62,0,11.14.38,10,3.29,3.91,1.11,8.47-.47,11.95-2.1,4.15-1.92,2.52-1.87,7.15-1,7.19,1.32,11.9-3.76,18.48-4.31a12.16,12.16,0,0,1,5.38,1.21,10,10,0,0,1,2.22-3.82,11.37,11.37,0,0,1,7.63-3c2.85-.18,13.76-.77,13.36-5.43.07.9-2.1,0-2.4-.08,2.78-2,6.79,3,8.48-1.29-1.17-.46-1.1-1.09-2.07-1.49,1.94-2.59,5.65-2.41,8.39-1.39a16.51,16.51,0,0,0,4.9.5q3.27-.54,1.87,2.21c2,.94,8.14-8,12.67-6.22.71-1.83-.41-2.84-2.2-2.87,4-7.14,17.72-7.66,24.31-10.29,6.2-2.5,12.67-4.51,19-6.8,3.19-1.15,10.6-4.57,13.8-2.14,3.92,3-7.48,10-8.82,12.1-4.79,7.55-12.45,9.46-20,13.33-7.94,4.1-10.84,11.23-13.57,19.26-1.55,4.5-1.08,7.66-4.52,11.53-2.12,2.38-4.45,4.57-6.7,6.82-1.29,1.31-9.28,8.71-6.48,10.75,0-1.27.25-3.8,2.28-2.41-3.63,7.3-6.47,13.69-13.42,18.48-5.94,4.07-13,7.89-13.49,16-5.31-3.43-3.05,9.08-3.1,12,0,1.82-.79,7.44.91,8.73,1.27,1,4.36-7.84,6.15-8.11,1.1-.16-5.77,16.3-5.77,16.32.62,5.86-2.7,11-4.79,16.25,1.31.52,2.39-3.16,4.47-2.89-.73,2-2.64,3.28-3.43,5.29,3.67,1.45,5.14-3,6.17-5.53,1.32,3.66-2.77,6-3.17,9.4s-1.41,6.5-2,9.77c-.61,3.62-.47,7.27-1.38,10.87-.35,1.45-5.08,7.83-4.69,3.81a56,56,0,0,1,2.47-10.1c-2.54-1-4.35,5.87-4.9,7.36a6.18,6.18,0,0,1-2.83-5.37c.17-2.72.57-2.9,1.2-.59.55-2.19.2-4.89.77-7.14-.88,1.72-1.94,2.7-3.43,2.12,1.8-8.61,5.87-16.61,10.34-24.1,1.69-2.83,7.41-11.22,3.52-14.23-2.86,3.4-4.86,7.71-8.31,10.58-2.2,1.82-5,7.88-8.14,7.48,1.64-4.73-2.22-1.4-3.65-3.84-1-1.75.14-3.91-1.8-5.34-2.6-1.95-3.23,6.34-.74,8.06.08-1.63,1.18-2.25,2.63-1.61-1,1.31-4.86,5.16-.68,5-1.34,3.68-2.85,12.8-8.77,10.46.5-1.8,1-3.59,1.46-5.4-2.82-1.12-3.06,4.39-3.65,5.87-5.53-2.2,6.12-12.19-.16-14.68-1.81,4.6-3.11,9.5-6,13.56-1-.75-2.4-6.89-4.45-3.8s1.17,3.83,3.42,4.71c-1.3,2.43-3.76,7.21-1.43,9.73,2.48,2.67-.83,5.31-4,4C276.49,784,280.68,783,282,786c1.5,3.5-1.53,6.2,1.11,10.07,3.08,4.54,7.7,3.87,8.92,10.11a19,19,0,0,1-1.51,11.59c1.43-.13,2.87-4.18,4.11-3.7.58,3.16-4.14,11.09-7.7,11-2.87-.06-3.11-1.3-2.82-3.72.18-1.33-2-4.81-2.3-1.71-.8-2.08.41-4.3-.82-6.29-5.69,4.13-7.34,12.79-8,19.27-.53,5.27-6.2,10.39-9.56,5-1.12,1.58-2.28,3.7-4.34,4.25,0-2.84-.86-3.84-3.22-5.27-1.7,4.5,1.6,6.65,1.29,10.85a29.14,29.14,0,0,1-2.17,8.85c-2.85,7.28-11.73,8.28-13.87,15.7-1.94,6.71-7.06,10.62-11,16.37-4.27,6.18-7.53,12.67-12.55,18.43-7.13,8.14-13.36,17.66-21.54,24.78-6.45,5.61-13.13,10.26-19.82,15.47-7.56,5.92-13,14.82-19.88,21.44s-14.59,14.4-22.73,19.36c-7.85,4.81-15.15,11-22.84,16.26a84.94,84.94,0,0,1-10.5,6.35c-2.13,1-4.64,4-6.5,4.46-5,1.28-8.23,7.24-12.6,9.73-4.14,2.37-8.45,4.53-12.26,7.43-3.38,2.57-6,3.51-9.52,5.68a137.42,137.42,0,0,0-18.69,14.42,84.72,84.72,0,0,0-16.81,20.58c-2.87,5.07-5.45,10.37-8.76,15.19-1.79,2.58-4.38,4.77-5.35,7.86-.83,2.64.88,5.82.75,8.67,2.52,1-1.42,4.24-2.06,5.18-.89-.7-.37-4.38-1.86-4.25s-2.18.55-2.37-1.46c-.16-1.79-1-3.48-.88-5.28.17-2.64,2.44-4.54,3-7.11-4-1.59-4.41,9.48-4,10.88,1.35,4.94-2.41,9.91-2.23,14.91.17,5.17,1.56,13.85,4.59,18.14,1.59,2.27,3.53,4.51,4.25,7.26.5,1.87,3.59,1,1.62.24,1.29-3.25,3.89,7.41,3.41,6.88,2.65,2.94,6.19,2,4.67,6.27,1.66.7,7.1-.15,4.71,3.2,2.41.13,3-3,2.32-3.54a7.85,7.85,0,0,1,1.91,1.22c.4-4.76,7.46,2.43,9.76,1,4.84-3,5,4,10.09,5.69,5.38,1.8,10.19,2,15.58,4.53,1.34.62,7.74-.72,4.86,2.73,1.61.65,3.53-.9,5.11-1,1.83-.15,2.84,1,4.8.59,3-.59,5.74-4.25,8.45-4.28,2,0,13,6.73,13.34,0,1.32.55,2.67,1.09,4,1.58l1.06-1.88c.52-.1.43,3.34,1,3.47,2.06.47,5.27,3.37,8.62,4.29,4.32,1.19,7.57,0,11.79.44,5.76.61,1,1.87-.28,3.74-2.2,3.27,6.47,1.49,7,1.61,5.39,1.27,4.57-2.48,8-5,1.33-1,4.45-.17,5.79.36.46-1.95,1.89-1.07,3.27-1.38,7.75-1.81,16.16-5.36,24.52-3,2.77.78,4.62-.53,7.28.17,2.42.65,5,.47,7.43.73,5.23.55,9.64.38,14.79,1.53,6.88,1.56,14.2,1.66,21.17,2.85,5.41.94,10.53,2.08,16.06,1.86,10.58-.44,20,4.13,30.32,5.34,7.66.91,20.7-1,27.26,4.94-.86,2.15-4.79.53-6.18,2.21,1.17.46,1.55-.06,2.51.31-2.17,2.9-6.58,1.1-8.8,3.83,9.1,3.39,19.54-5.36,28.41-.28,4.63,2.61,4.79,8.48,9.71,11.06s10.9,3.22,16.28,2.69c7.93-.79,8.6,4,13.84,8.57,5.73,5,12.73,9.58,19.11,13.79a200.25,200.25,0,0,1,23,17.57,99.54,99.54,0,0,1,16.25,17.6c3.55,5,8.24,8.65,12.16,13.22,4.19,4.93,5.22,9.72,8.93,14.81,4,5.53,8.25,12.38,10.45,18.83,1.76,5.16,1.64,12,2.41,17.4.67,4.69,2.88,12.76-1.3,16.59-.78.72-8.12,2.68-4.19,3.07-3.48,6.34-6.11,10-13.14,12.65-3.83,1.41-5.07-.65-7.44,3.2-1.51,2.43-5.23,3.75-7.79,4.62a58.32,58.32,0,0,1-20.82,3c-4.74-.3-11.27-1.14-16.08.26-6.05,1.72-12.38.59-18.43,2.34-5.84,1.68-11.44.1-17.74,1a147.27,147.27,0,0,1-40.77.24c2.06-2.45,6.52-.87,9.18-1s6.68-2.82,9.18-3.78c3.7-1.41,2.24-3.11,6.05-1.86a12.92,12.92,0,0,0,4.68.4,21.19,21.19,0,0,0,6.23-1c6.82-2.57-3.29-3.62-5.67-3.19-5.21,1-10-.92-15.21.77a62.9,62.9,0,0,1-11.29,2.6c-3.13.42-2.45,2.92-5,2.67-4.28-.43-9.63-.66-13.71.83-3.88,1.4-22.89.34-25-4.54-.58,1.46-14.38-2.72-16.83-2.57-6.85.45-13.13-.81-19.79-2.36-5.26-1.22-10-1.21-15.24-2-8.86-1.4-17.38-3.38-26.25-5-9.88-1.83-20-3-29.95-4.62-7.67-1.24-14.65-6.48-22.12-7.82-5-.9-8.91-.72-13.59-2.12-3-.89-10.79-5.26-11.14-2.92-4.33-3.11-12.69-7.71-17.74-7.46-3.37.18-4.75-4.2-8.5-3.27-2.17.58-4.11,2-6.45,1.12,1.57-4,2.22-3.75-3.33-5.61a50.32,50.32,0,0,1-5.87-2.41c-3.59-1.76-7.68-2.27-11.44-3.49-.3,2,1.38,2.58,3,2.51-2.65,5,2.71,4.89.84,9.64-2-1.47-2.36.17-2,1.83-2.21-1.59-4.8-2.52-7-4.08-.8,3-.94,4.92-4.66,3.44.83,2,3.09,2.3,4.92,2.61-1,.11-1.5.64-1.37,1.61.73.14,6.69,1.75,6.89,1.24,2.07.39,3.58,2.19,5.73,2.27.69-1.76,3.62-1,4.76-.63,7.9,2.2,13.53,7.2,20.72,10-.75,1.88-6.25-1.14-7.34-1.57,2.89.38-1.57-2.65-4.17-.66-2,1.55.73,2.19,1.91,2.37,1.61.29,13.59,3.24,10.81,6.59-1.1,1.36-8.63-.55-10.28-1.16-3.1-1.2-3.81-5.28-7.3-6.08.93-2.39.22-2.78-.72-4.91-2.19,5.51-9.3-.42-11.61-1.23s-5.65-3.52-6.38.63c-.25,1.41,1.74,2.12,2.65,2.48a2.28,2.28,0,0,0,0,3.32,1.51,1.51,0,0,1,1.94-1.15c1.59,1.46-2,1-2.51,1.77-.35.57-.5,2.63-1.26,2.87-2.3.73-3.56-4.93-5.37-.35,1.83.72,2.79,1.3,2,3.41-1.92-1.27-5.14-3.31-7-.78a43.4,43.4,0,0,1,13.8,6.43c2,1.45,4,3.09,6.09,4.49a2.44,2.44,0,0,0,1.55.35.58.58,0,0,1,0-.13.17.17,0,0,0,.06.12c1.09-.08,2.23-.52,3.25-.1-.83,2-2.22,1.52-3.25.1a.18.18,0,0,1-.1,0c-2.05,5.54,9.61,2.49,7.63,7.55,2.12.11,4.36-.28,6.42.54-5.39,4.8,6,4.17,6.09,3.52-.66-.18-1.14-.29-1.31-.32l-.08,0,.08,0c1,.07,1.34.21,1.31.32,2.87.77,9.23,2.57,10,2.84,5.14,1.66,5.1,5.36.51,3.55-.76,1.93,1.64,2.56.94,4.35-3.52-2.63-3.7,1.34-7.58-1-.5,3.8,4.66,5,7.2,6.18.87.42,4.11,4.81,4.29,1.7a7.56,7.56,0,0,0,3.44,1.36c-3,2.11-6.18.5-6.44,4.75s2.61,2.15,4.93,3.53c2.74,1.65,3.52,2.78,7.41,3.47a95.77,95.77,0,0,1,12.83,3c-3,2.13,2.94,1.55,4,1.71a102.24,102.24,0,0,1,10.69,2.47c9,2.47,17.86,5.31,26.65,8.36,6.76,2.33,13.19,2.45,20,5.35,12,5.06,26.71,4.11,39.46,7.41a4.85,4.85,0,0,0-2.63,1.6c.88.54,8.63,3.39,8.16,4.54C224.71,1438,235,1446,238,1440a13.65,13.65,0,0,1-4.37-2.38,1.78,1.78,0,0,1-2.24.9c-1.42-.33-2.74-1.74-2.11-3.3,5.28,1.14,14.61.87,18.9,4.17-.8,2-7.5-.64-8.93-.88.27,3.61,1.89,3.15,4.19,4.21,2.53,1.18,3.2-1.21,4.82-.39,2.13,1.05,3.66,4.62,6.1,1.52a13.23,13.23,0,0,1,7.25.18c.52-1.3-11.58-3.92-12.86-4.41.83-2,23.91,2.15,25.46,2.77-1.1,2.78-3.36,3.25.05,5.61,2.55,1.75,2.53.59,5.16.15,2.15-.34,10-.49,8.35,3.57-2.17-.7-3.91-2.44-6.31-2.48-.42,3.19,1.07,2.42,3.33,3.31-1.18,3,1.93,2.09,3.56,2.73-3.57,2.6,1.69,3.42,3.62,3.56,2.29.21,6.94-2.75,2.23-3.23.15-2.87,4.18-.53,5.25-3.24-3.79-1.31-6.5-2.57-10.31-4.08.9-2.33,3.66-1.39,4.46.45,1.23-3.12,11.62,0,11.12,3.71-1.58-.6-3.12,1.22-1.59,2.43,2.22,1.76,6.53,1.16,9.17,1.92-1.18,3-5.83-.3-6,3.56,2.16.62,4.39-.22,6.54.53,1.82.62,2.5,2.27,4.68,2,4.16-.55,3.35-2.38,4-5.77-2.65,0-5.42,1.18-8,.14a8.38,8.38,0,0,0,2.86-2.19,18.91,18.91,0,0,0-4-1.59c1.21-2.2.72-8.34,3.54-7.22a1.66,1.66,0,0,1-1.06-2.41c2.92,1.16,5.83-.62,8.4,1.66a3.14,3.14,0,0,0,3.36.14c.25-1.77,1.08-2,2.45-.76,2.63.21-.37-1.94-2-2-1.94,0-4.67.6-6.5-.12,3.54-5.73,11.18-4.87,16.84-4a18.44,18.44,0,0,0-3,4.15c1.63.78,4.76,2.48,5.78-.14.73-1.84-2.21-.56-1.1-3.33,2.65,1.06,2.37,8.48,1.11,10.4-2,3-8.06,4.34-11.29,4.87-2.7.47-.87,3.18,1.16,3.16a20.69,20.69,0,0,0,5.29-1.2c3.32-1,3.83,2.45,6.56,2.28,1.9-.11,2-1.56,3.28-2.48-.9.63,3.77,1.88,5.68.35s3.32-1.42,5.46-.6c-1.25,3.15-6.13,1.18-6.38,3.35-.36,2.66,2.67,2.36,4.17,3.38,5.56,3.75,10.45,3.39,16,.56,2.9-1.44,11.28-4.64,3.18-4.8-3,0-2.68-2.24.6-1.19,2.56.83,4.87-1,5.77-3.33-2.63,0-5.24.59-7.8-.43.72-1.82,6.71-.95,8.18-.71,1.06.14,3.13.64,2.49,2.28,1.71-.37,3.32.29,4.95.73a2.8,2.8,0,0,1,.67.16l-.67-.16a1.58,1.58,0,0,0-1.74,1.21c5.06.9,6.63.86,11,3.54,1.44.86,3.93.15,5.5.21,2.26.11,1.53,2.07,3.43,2.8-.74,1.85-3.43-.58-4.25-1-2.11,6.12,5.41,2.14,8,3.19a17.84,17.84,0,0,1-1,4.24c5.34,1.44,11.72-2.61,16.66.58s9.85,8.27,16.45,6.38c5.41-1.55,7.85-3,13.29-2.41,3.06.3,3.07-.76,5.77,0,2.23.6,4.43-.46,6.63-.53.32,2.28-.32,4.62,1.4,6.53.83-2.07.17-4.29.55-6.42,2.62,1.92.38,6.39,3.16,7.44,2.06.78,4.34.65,6.44,1.49s4,2.65,6.28,3.34c4.73,1.44,7.12,1.11,11.24-.9,2.75-1.34,7-3.68,10.15-3.26-2.21,2.8,4.16.52,5,.33,3.58-.8,6.8-.09,10.09-2.4,6.4-4.51,13.07-4.91,16.25-12.94.7-1.77,2.25-1.09,1.68-3.09-.77-2.65.26-2.35,2-4,3.42-3.3,7-7.15,10.18-10.7,3.25-3.72,3.62-9.32,7.5-12.55,2.78-2.32,6.87-4,6.95-8.22.05-3.6-2.51-8.33,1.13-11,3.25-2.44,2.7-5.91,1.88-9.4-1.35-5.76,1.46-7.76-.84-13.64-1.4-3.57-4.9-5.83-6.15-9.36-.84-2.3-.3-5.39-.33-7.78-.07-3-.12-6.62-1.76-9.32-1.26-2.1-3.74-3.26-4.05-1-1.52-1.28-1.85-.68-3.69-.79,2.7-4.18,7.79-7,7-12.53-.62-4.35.82-6.58-4.08-8.22,1.29-3.15,2.84-5.44,1.08-8.78-1.1-2.06.8-2.79.82-4.82,0-2.37-6-7.59-6.21-4-2.22-1.86-4.53-4.24-4.73-7.35-.09-1.73,1.54-3.91.54-5.6-.23-.36-6.15-3.84-6.09-4.35-3,4.5-2.63-1.66-3.34-4.56-.77-3.08-1.85-.33-.62-4.28a6.21,6.21,0,0,0,.37-3.14c-.56-2.81-3.65-4.79-5-7.21a86.9,86.9,0,0,1-5.13-11.65c-1.41-3.81-6.49-6.4-9.12-9.69-3-3.71-5.79-7.52-8.74-11.24-5.65-7.07-13.81-11.82-19.24-18.7-2.75-3.48-4.54-8-8.53-10.33-3.51-2.08-7.79-2.64-10.7-5.72a68.79,68.79,0,0,1-11-15c-2.36-4.31-6.47-5.79-10.87-7.31-2.85-.95-3.7-2.81-6.38-4.33-7-4-12.48-9.4-17.7-15.51-7.28-8.51-19.88-13.13-29.45-18.74s-19.1-11.9-28.59-18c-9.14-5.88-18.41-12.26-28.57-16.24-3.88-1.55-7.59-1.21-11.51-2.68s-8.4-1.81-12.66-2.35c-9.65-1.2-19.91-5.32-28.58-9.59s-16.82-6.87-26-10.09c-3.44-1.21-5.58-1.17-9.14-1-3,.15-.68-1.74-3-1.47s-4.83,1.68-7,1.07c-2.38-.67-3.79-5.48-7-4.17-.86.38,1.08,1.93.84,2.34-7.49-4.5-16.59-5-25-6.56-9.33-1.68-18.26-5.06-27.68-6.3,1.88-4.77,10.62-8.64,14.5-11.58,5.15-3.88,11.21-6.54,15.78-11.18,9.38-9.51,19.08-19,27-29.92,4.29-5.91,9.18-11.19,13.61-17,3.79-5,7.22-10.43,12.23-14.21,5.19-3.94,7.31-8.56,11-13.73,3.25-4.56,7.92-8.49,11.83-12.47,2.28-2.28,5.4-3.24,7.38-5.94,1.47-2,.81-4.22,2.51-5.91,2.62-2.62,5.89-4.54,8.52-7.15,3-3-1.35-5.66,5-7.62,1.08-.33,4.89-.8,5.47-1.73.9-1.46-.12-3,1.19-4.58,3.05-3.76,8.2-4.1,11.36-8.77,2.05-3,3.64-2.52,6.46-3.55,1.07-.4,1.35-3.8,1.6-4.69.61-2,1.24-4.64,3.1-5.86,2.24-1.49,1.08-2.06,2.36-4.7.56-1.11,7-4.95,8-4.79-.59,3.77,2.55,9.12,3.29,12.91.86,4.37,3.28,9.24,2.08,13.77-1.42-.36-2.84-.68-4.24-1,.53,2.17,3.8,3.51,5.61,4.22-3.14,2.31,1,.87,0,3.33-.76-.31-18.77-14.34-18.25-8.2.36,4.22,6.88,7.1,9.16,10.25,1.92,2.66,7.87,2.45,7.64,6.67-3.76-2-7.47-5.29-12.05-4.77a22.68,22.68,0,0,1,.37,4.11,12.19,12.19,0,0,0-3.79-2.16c.6,4.33,4.43,6.95,7.47,9.6-2.18,1.26-3.15,2-5.5.49-1.62,4.07,4.33,5.82,3,9.14-3.87-1.52,2.79,7.09,4.85,7.89.55-4.24,3.25-.7,5.26.11-5.67,5.19,8.78,5.38,10.95,6a144.9,144.9,0,0,1,23.59,9,24.12,24.12,0,0,1,.23-3.89A68.17,68.17,0,0,0,400.49,996c2.94,1.24,3,3.43,5,5.58,3.24,3.47,6.18,6.34,10,8.36a9.71,9.71,0,0,0-1-2.72,1.51,1.51,0,0,1-.54-.86c.19.28.37.57.54.86,1.44,1.23,4.84-.69,6.15.25,2,1.41-1.1,2.83.24,4.43a10.23,10.23,0,0,0,3.77,1.67c-.26.65-3.55.77-3.62.69,1.92,4.39,5-1.94,5.55-3.91,3.38,1.35,12.16,10.66,15.5,6.14-1.65.16-2.08-.46-1.27-1.84,6.66,2.56,10.29,1.7,17,1.47,3.28-.12,9.5-2.29,11.71,1.28-6.7,3.78,2.43,5.11,5.08,7.33.06-1.31.61-1.53,1.61-.69,1.45-6.81,6.13-1.15,9.86,0,5.5,1.64,8-9.85,14.52-10.17,9.2-.46,13.45-5.65,20.51-10.74,4.92-3.52,10.38-6.1,14.83-9.72.9-.72,4.41-4.37,5.68-3.86.71-1.79,3-2.12,4.57-1.51a15.52,15.52,0,0,1,2.07-2.84c2.42-2.12,4.16-1.57,6.34-4.69a8.85,8.85,0,0,1,5.16-3.29c8.76-.84,10.64-5,16.14-11.49,1.45-1.69,5.55-6.18,7.4-2.4,1.45,3-2.49,3.47-3.6,5.47,3.83.59-1.93,3.22-3.43,3.08.06,0,.5-2.92-.46-3.32a29.26,29.26,0,0,1-3.33,3.35c2.21,1.31,5.13,4.63,2.69,7.1-2.19,2.21-4.81-.32-7.21.17-7,1.45,1,18.51,4.7,8.26,2.13-5.89,6.83-15.35,11.4-19.62,3.13-2.9,6.74-6.59.88-8.92,3.5-2.41,7.09-6.13,11.4-7.05,2.31-.5,3.81-.26,5.53-2.22,2.82-3.24,3.18-8.13,5.68-11.64,1.27-1.78,3.08-2.86,5.28-2.06,2.84,1.06,3.89-3.88,5.23-6.41a173.75,173.75,0,0,0,9.09-20.64c3.29-9,8-16.49,12.91-24.62,4.36-7.21,6.37-15.24,9-23.17,2.4-7.11,3.37-14,5.37-21.11,1.48-5.31.26-12.13,2.28-17.24,2.48.69,6.15,9,7.77,11.24,2.43,3.31,5.71,6.11,7.82,9.63,4.22,7,4.28,16.28,7.28,23.86,3.19,8,4.13,16.61,8.33,24a5.72,5.72,0,0,1,.7,5c1.41.56,2,2.84,2.45,4.09q1.67,5,3.29,10c2.47,7.76,2.11,13.36,9.14,18.16s11.32,4.77,19.68,5.2c5.36.25,11.84,2.54,17.09,3.87,5,1.26,7.35.36,12.18,0,5.54-.44,9.32-1.95,13.43,2.08,1.95,1.9,2.42,1.66,5.06,1.8,2.45-3.86,1.52-4.85,6.29-4.65,3.17.14,4.15-3.08,5.83-5.1.54-.66,2-2.56,3.19-2.11l3.63-9.18c2.16.85,3.54-3.73,4.23-5,1.81-3.27,5-5.44,6.41-9.12C801.27,904.6,799.23,899.72,799.14,897.62Zm-460.65-327c-3.11.83-5.16,2.36-8.24,4-5-2-.34-2.38,1-4.24,3.54,1.4,2.36-5.44-2.06-1.48-.62-.24-6.48,3-5.5.48-3.59-1.43,3.78-3,4.72-2.34.29-.62,2.54-2,3.17-2.5-1.28-1.1-1.83-1.05-3.44-1.36,1.54-1.85,3-3.27,5.49-3.81,1.53-3.9,2.6-3.88,7-2.55,1.63-2.6,6-5.48,9.14-6.34-.08,2.56-2.35,7.06-4.16,8-2.29,1.19-8.26,2.35-2.78,4.53,1.69-2.35,2-2.53,4.57-1.51-.23-2.76,3.84-2.47,5.38-1.86C349.31,564.52,342,565.71,338.49,570.65ZM390,526c-1.59,4-8.53,4.79-10.05,8.64,3.18.17,3.81-2.77,7.21-3.11.53,1.91-4,4.88-5.07,6.93-.93,1.74-4.25,4.63-6.46,3.75-.51,1.31-2.16,2.09-2.74,3.55-2.83-1.1-2-1.31-2.88-4.44-1.63.21-2.78-.68-4.5-.92-2.31-.31-2.86,2-4.91,1.19,3.72-5.18,10.36-7.78,14.18-12.32,1.32.52,9.58-4.14,11.43-5.44,1.28.52,1.8,1.71,3.55-.57l-1.14-.45c.75-1.89,6.93-3.84,9-4.38C397.76,519.63,391.07,526.41,390,526ZM51.84,1357.07c-2-.77-2.63-.4-4.24-1-.22-1.5,1.09-2.57,1-4.25,1.56.63,3.43,2,5.51,2.84l-1.26,1.5c.51.42,1,.84,1.49,1.26C52.73,1358.08,52.86,1357.79,51.84,1357.07Zm8,3.17c-1.45-1.15-1.44.68-2.17.46A13.37,13.37,0,0,0,55,1359c.58-1.58-.22-2.74.23-3.9,2.2.56,2.67,1.62,1.4,3.21,1.52-.28.84-.89,1.81-1.28,2.27,2.51.19.23,1.73.69-.3.75,3.53,2.41,5.5,2.84-1.41,1.8.28,1-.33,2.53C62,1361.75,60.65,1363.94,59.86,1360.24Zm12.52,6.94c-2.34-2-5.76-2.61-4.71-6.51,1.86.67,5.07,1.44,5.85,3.64C71.26,1363.42,72.32,1365.63,72.38,1367.18Zm1.71.69c.34-.84,0-.63-.11-1.37a2.47,2.47,0,0,0,2.4-1c1.32.52.05.83-.44,1.15.35.84,1,.68.69,1.6C73.71,1365.75,75.81,1367.54,74.09,1367.87Zm78.42,30c-1.53,1.37-2.5,4.88-4.78,3.47-1.54-.93-1.61-.38-2.47,1.31-5.29-1-1.15-.12-4.46-2.12-.8-.46-5.75-2.24-6.08-1.4-2.26-.89-4.23-3.1-6.77-1.34-2.76-1.11-4.6.18-6.42-.56,2.44-2.18-1.31,0-.23-2.73,2.14.83,2.69,2.29,4,.48.62-.84-1.31-4.74,1.25-3.73.06-.79-.19-1.24.11-1.94a6.77,6.77,0,0,1,3,2.51l.47-1.15c2.23.9.47-.48,1.94.11-.34.85,6.87,2.71,7.11,2.15,3.16,1.24,7,1,9.41,3.06C150.29,1394.46,155.19,1395.48,152.51,1397.89ZM424.2,632.44c-2.12-.85.19-5.84-3.33,0-2.14-.83-.38,3.85-2.5,3-.4,1-3.12,6.07-3.65,5.86-.86,2.15-2.47,1.79-3,4-.25,1.19-2.56,8-2.68,8.07-1.21.45-3.67,6.53-4.23,7.93-1.49,3.76-1.72,5.85-3.45,9.58-2.29,4.91-4,7.12-6.79,11.25-2.2,3.27-3.53,1.53-5,4.95-1,2.26-4,2.77-4.36,3.61-4.17-.75-7.14,1.83-10.77.4-1.8.1-4.75.27-5.38,1.85,2.58,1,5,.56,7.57,1-1.09,1.3-3.73,4.46-5.14,4.59-1.38,3.47-7.32,1.72-8.7,5.2-3.64,1-11.75,4.76-14.53,2.63-4-3.15,6.45-12.41,7.59-14.68,2.51-5.07,5.43-10.95,7.32-15.69a6.43,6.43,0,0,1-2.75.24c2.14-6.31,3.64-11.63,7.95-16.76l2.4,2.28c1.37-3.43.8,1.36.25,2.75a2.69,2.69,0,0,0,3.21-1.38c2,2.89,4.38.79,7.9,1.8-1.32,1.68-.79,2.57,1.62,2.62-.77,1.77-1.75,3.31.13,4.7,1.63-4.1,3.25,1.83,4.12-.35,1.42.55,2-.28,3.9.23-.89,1.18-2.19,1.53-3.08,2.74,3.45,1.38,3.55.5,6.88-.6.36-1.34-.41-2.35,0-3.32a15.45,15.45,0,0,1-3.33,0c.47-3.61-.09-2.21-2.29-4.23.17-.94-.17-4.7,1.58-4,.15-.38,1-4.26.45-4.47.95-2.58,2.69-4,.54-6.43.66-1.66.12-2.55,1.63-4.74,2.7-3.93,8.15-6.51,9.32-9.51,1.64.65,9.66-4.26,8-.13,2.73.35,2.52-2.33,4.58-1.51.83-3.46,1.71-4.31,2.95-7.47,2.89.52,5.56-2.71,7.19.62C427.53,631.56,426,631.66,424.2,632.44ZM466,909.11c-.94.58-6.09,1.95-5.95,1.63-2.63-1-5.6-1.55-8.26-2.6,3-2.71.59-1.49,1.58-4-1-.09-10.35,2.72-10.29,2.56-1.15-.45-6.39-.68-6.65,0-4.77-1.89-8.3-1.6-13.41-1.32.21,2.41,7.64,4.16,8.26,2.6,4.06.74,5.78-.4,10.31.76-2.26,4.58-2.63,2.06-6.65,3.37-1.8,1.61-3.47-.44-5.38-1.49-.86,1.36-1.86,1.62-3,.82-.56,1.44-5.81-3.63-7-4.1-.28-3.13.53-1.34,1.59-4-4.38-1.2-6.45-.56-10.22-2.72-.05.13-2.81-2.79-2.28-2.82a6.1,6.1,0,0,1,1.24.44c.46-1.16-1.18-1.43-1.61-2.65,3.37-.08,5.68.13,8.7-.09,1.77-.13,2.75,4.72,3.91,1.77,3.11,1.35,3.67.23,7.17,1.18s7.28-.77,10.73.59c.22-.58,6.22.23,7.23.85,1.76,1.07,3.71,3.22,6.05,2.42,1.61.63,7,1.11,4.72,3.19,1.39.49,7.29,1.73,7.78.44,1.92.74,4.19-1.36,6.88-.61C470.86,906.89,467.41,909.66,466,909.11ZM413.1,890.18c1-1,4.59.19,4,1.58Zm5.63.88c1,.8.53.13.93,1C418.64,891.29,419.13,892,418.73,891.06Zm136.14-48.24c-10.24,15-27.88,34.3-46,39.12-10.07,2.68-19.46,7.47-29.8,9.56-1.22.25-22.3,1-15.49,5.36-3.89,4.93-25.42.08-30.65-3.59a28.11,28.11,0,0,1-4.41,1.66c-2.93-1.16,2.41-1,1.58-4-18.22-1-49.71-8.86-38.42-35,4.34-10,10.7-19,17.27-28.13,14-19.45,28.39-42.09,46.84-57.78,14.11-12,24-37.47,46.12-30.39,13,4.16,20.35,11.62,27.84,23,6.65,10.12,19.74,19.24,24.22,30.32C560.66,809.57,565.8,826.81,554.87,842.82ZM328.51,567.35a.2.2,0,0,0-.09-.25A.16.16,0,0,0,328.51,567.35Z"/><path class="cls-2" d="M315.23,538.88c-.17.38-.32.76-.46,1.15.7-.19.65-.41,1.36-.13a1.23,1.23,0,0,0-.9-1"/><path class="cls-2" d="M290,532.22l1.48,1.24c-.83.74-4.23,2.42-5.37,1.85,1-2.52.93-1.42,3.89-3.09"/><path class="cls-2" d="M601.32,656.07c-1.06,2.66-.86,3,1.5,4.57,1.86-2.57,1.27-3.29-1.5-4.57"/><path class="cls-2" d="M701.29,703.6c-6.5-1.85-9.58-5.23-15.95-8.31.34-.89-3.22-2.83-4-3.25l-5.5-2.85c-.47-.23-4.56-4.12-1.5-2.91,4-1.56,11.2,5.1,14.12,6.24-.89,2.25,13.16,6,12.87,11.08"/><path class="cls-2" d="M647.11,676.18l1.49,1.25a2.16,2.16,0,0,1-2.4,1.05c.32-.77.61-1.54.91-2.3"/><path class="cls-2" d="M281.29,534.07c-.76,1.91-3.83,1.25-3.1-.56,2.59,1-.25-.76,3.1.56"/><path class="cls-2" d="M309.4,545.21c.4.9-.09.22.92,1C309.92,545.32,310.42,546,309.4,545.21Z"/><path class="cls-2" d="M274.86,533.52c1.11,0,1.42.35.93,1a1.26,1.26,0,0,1-.93-1"/><path class="cls-2" d="M299.54,543.29c-1.11,1.46-1,.3-1.13,2.88,1.44-.4,3.76-1.84,1.13-2.88"/><path class="cls-2" d="M642.07,678.84c5.9,3.81-1.8,4.59,0,0"/><path class="cls-2" d="M638.42,681.37q2.42.32.81,3c-1.57-.64-1.4-1.49-.81-3"/><path class="cls-2" d="M666.31,693.07c.48,1.61.7,1.6.7,1.6C667.65,694.27,666.41,693.26,666.31,693.07Z"/><path class="cls-2" d="M342.15,571.44c3.15,2,2.91,1.87,4.76-.92,1.57-2.37,1.13-1.46.73-2.89a13.39,13.39,0,0,0-5.49,3.81"/><path class="cls-2" d="M646.34,686.51c-.75.8-.72,1.25.13,1.35a1.19,1.19,0,0,0-.13-1.35"/><path class="cls-2" d="M690.55,710.62c-.17,2.14-1.18,2.41-3,.81-.26,1.24-.51,2.45-.78,3.67-4.7-2.13-3.79-5.79-4.51-10.39,4.58.06,4.51,4,8.27,5.91"/><path class="cls-2" d="M317.83,562.48c.22-.58.46-1.16.68-1.73-1.26-.69-2-.54-2.18.46.71.28.88.77,1.5,1.27"/><path class="cls-2" d="M661.29,699.05c.6-1.52-.92-2.73-1.49-1.26.69.28.87.77,1.49,1.26"/><path class="cls-2" d="M678.5,705.85c-.15.38-.31.77-.45,1.16a5.75,5.75,0,0,1-.7-1.61l1.15.45"/><path class="cls-2" d="M341.14,579c1.5,1.27,2.3.92,2.41-1,.95.37.88,1.33,1.85,2.06,1.34-3.42.68-1.79-1.16-3.79-.44,1.13-2.28,1.24-3.1,2.76"/><path class="cls-2" d="M257.49,543.91c1.06-2.69-1.39-1.13-2.53-.34,1.73.68-.87-1,2.53.34"/><path class="cls-2" d="M693.08,717.6a3.42,3.42,0,0,1,2.08-1.84c-.54,1.38,4.31,2.53,3.45,4.69-1.55-.61-2.91-1.81-5.53-2.85"/><path class="cls-2" d="M253.23,542.88c-.93-.27-2.29-.87-2.74.25.9.34.33,1.19,1.5,1.24.28-.69.76-.85,1.24-1.49"/><path class="cls-2" d="M691.15,717.49c-.16.39-.3.78-.46,1.15-.81-.74-1.62-1.5-2.41-2.28.6-.37.73-.19,1-.92a6.66,6.66,0,0,0,1.83,2"/><path class="cls-2" d="M691.85,719.1c.87.45,2.28.94,1.82,2.07q-3.3,0-1.82-2.07"/><path class="cls-2" d="M245.56,543.82c-.83.37-1.23-.23-1.6.69,3.41,1.35.82-.33,2.53.35a1.26,1.26,0,0,0-.93-1"/><path class="cls-2" d="M304.67,567.22c-1.1,1.12-1.15,1.77-.12,1.95,1.11-1.11,1.14-1.77.12-1.95"/><path class="cls-2" d="M244.93,552.2c-1.11-.06-3.68-.83-4.14.36,2.37.93,15.81.3,16.72-2,2.21.51.65,4.72,3.89.22-1.59-.62-10.15-1.18-10.3-.78-1.67-.64-5,.58-6.17,2.21"/><path class="cls-2" d="M336.34,581.08c-1,1.51-.3,2.46,2.19,2.85.78-2.58.68-2.47-2.19-2.85"/><path class="cls-2" d="M676.25,714.92c1.1,0,1.41.34.92,1a1.22,1.22,0,0,1-.92-1"/><path class="cls-2" d="M238.12,544.2c.39.92-.07.23.93,1C238.64,544.31,239.13,545,238.12,544.2Z"/><path class="cls-2" d="M271.4,557.38a1.24,1.24,0,0,1,.12,1.37c-.84-.12-.88-.57-.12-1.37"/><path class="cls-2" d="M268.65,557.62l1.16.44c-.46.89-1,2.29-2.06,1.85.29-.78.6-1.53.9-2.29"/><path class="cls-2" d="M233.43,544.34c-.16.37-.32.76-.46,1.14.68-.18.66-.4,1.38-.13a1.28,1.28,0,0,0-.92-1"/><path class="cls-2" d="M230.1,544.35a15.93,15.93,0,0,0-2.41,1c.81.31,3.28.12,3.56-.59-.39-.15-.76-.31-1.15-.45"/><path class="cls-2" d="M226.1,546.08c.15-.39.3-.77.46-1.15-.68.19-.66.4-1.38.12a1.28,1.28,0,0,0,.92,1"/><path class="cls-2" d="M702.11,735.11c-.72,1.8.52,2.1,2.18,2.85q1.55-2.28-2.18-2.85"/><path class="cls-2" d="M754.54,758.51a1.24,1.24,0,0,1,.12,1.38c-.84-.12-.88-.57-.12-1.38"/><path class="cls-2" d="M759.37,763.09c0,.64-.07,1.3-.1,1.94-2.64-1.06-3.59-2.73-3.81-5.48,1.91.75,1.64,2.54,3.91,3.54"/><path class="cls-2" d="M772.23,767.5c2.45,1.2,3.78,3.52,6,5,.11.78,2.1,5.94-.06,5.75-3.39-.29-5-7.88-5.91-10.77"/><path class="cls-2" d="M679.05,731.3c.28,1.33.62,1.4,1.85,2.05.62-1.05,0-1.75-1.85-2.05"/><path class="cls-2" d="M681.47,733.58c-.91,1.18-.49,1.79,1.27,1.82.53-.85.11-1.46-1.27-1.82"/><path class="cls-2" d="M685.72,737.91l-1.14-.44c.17.68.4.64.11,1.36a1.26,1.26,0,0,0,1-.92"/><path class="cls-2" d="M707.19,749.06c-1.5,1.79-1.41,2.1.82,3,1-1.77.79-2.76-.82-3"/><path class="cls-2" d="M789.26,788.18c-.23.57-.46,1.15-.68,1.72-1.4-.36-1.82-1-1.26-1.83.7.28,1.15,0,1.94.11"/><path class="cls-2" d="M781.11,787c2.61,1.86,3.78,4.44,6.11,6.39-3.29,2-9.24-2.64-6.11-6.39"/><path class="cls-2" d="M176.18,554.86c-1.05,1.46-.82,2.44,1.71.67-.57-.22-1.15-.44-1.71-.67"/><path class="cls-2" d="M243.88,581.66c-.77.8-.73,1.25.12,1.36a1.21,1.21,0,0,0-.12-1.36"/><path class="cls-2" d="M222.78,578c-.15.38-.31.77-.44,1.15,2.6,1,6.08,1,7.89-1.53-1.71-.67-5.24.79-7.45.38"/><path class="cls-2" d="M220.14,576.23c.14-.38.31-.76.46-1.15-1.2-.33-5-.86-5.51.49,2.61,1,2.62.28,5,.66"/><path class="cls-2" d="M170.79,556.71c-.1.28-3.29,1.58-4.23,2.31,1.8.71,5.59-1.77,4.23-2.31"/><path class="cls-2" d="M212.22,574.44c-1.09,2.76,1.58,1.52,2.53.32l-2.53-.32"/><path class="cls-2" d="M209.25,575.24c-1.17-.06-5.58-1-6.07.25,1.58.64,1.54.19,3.09.58-.79,2,2.73-.51,3-.83"/><path class="cls-2" d="M219,579.11c1.11,0,1.41.33.93,1a1.22,1.22,0,0,1-.93-1"/><path class="cls-2" d="M742.76,791.67c-.77.81-.72,1.27.12,1.38,0-.29-.36-4.16-1.27-1.83.38.15.76.31,1.15.45"/><path class="cls-2" d="M175.08,567.7c-.83,2.09-3.1,2.48-5.39,1.85,1.32-1.88,3.26-2.25,5.39-1.85"/><path class="cls-2" d="M321.16,626.18c-1.07,2.69,2.7,1.05,0,0"/><path class="cls-2" d="M340,635.61c-.66,1.69-2.92.22-2.85,1.07-.18-2.06,1.18-1.3,2.85-1.07"/><path class="cls-2" d="M158.23,565c-.3.76-.61,1.54-.9,2.3-1.83-1.33-1.69-2.43.9-2.3"/><path class="cls-2" d="M334.94,634.94c1.32.51,2.66,1.64,2.19,2.84-1.5-.58-4.63.93-5.86-.31.29-.72.07-.69-.11-1.38a7.75,7.75,0,0,0,3.78-1.15"/><path class="cls-2" d="M160.76,568.66l1.71.68c-.91,1.24-.87,1.2-2.4,1,.23-.58.47-1.15.69-1.73"/><path class="cls-2" d="M304,629.33c-1.19,3,2.62,3.45,1.63,5.94,3.28,1.31,3.49-.44,4.69-3.45-3.14-.67-3.49-1.63-6.32-2.49"/><path class="cls-2" d="M353.16,666c.47,1.3-1.27,4.15-2.74,3.57.68-1.71,2.27-2.39,2.74-3.57"/><path class="cls-2" d="M268.7,634.61c.39.15.77.29,1.15.46-1.77,2.11-2.4,1.25-4.92.69.81-2,2.75,1.44,3.77-1.15"/><path class="cls-2" d="M345.36,665.6l1.15.46c-.36,1.41-1,1.83-1.82,1.27.21-.57.45-1.14.67-1.73"/><path class="cls-2" d="M257.06,647.25c1-1.37.38-2.06-1.84-2-.44,1.11.66,1.59,1.84,2"/><path class="cls-2" d="M355.67,694.9c2.56-3.5,10.3-2.56,12.6-1.64-2.95,2.63-9.14,2.4-12.6,1.64"/><path class="cls-2" d="M133.73,605.1c1.43,1,1.22.66,1,2.38C133.35,606.44,133.57,606.83,133.73,605.1Z"/><path class="cls-2" d="M347.32,697.57c-1.1,1.12-1.15,1.76-.12,1.94,1.11-1.11,1.16-1.75.12-1.94"/><path class="cls-2" d="M324.36,717l2.63,1.72c.68-3.66-.2-4.49,1.25-8.13-2.5-1-3.76,5-3.88,6.41"/><path class="cls-2" d="M294.27,699.14c-2.13,5.38,9.39,3.24,11,5.76.77,1.23-4.18,6.12-3.73,8.69.85,4.71.82,4.66,5.68,6.59-1.4,3.17-6,5.05-7.06,7.81-2.64-1-5.46,2.87-2.47,3.46,2.39.47,5.24-.28,7.52.54-2.41,3.7-7.81,4.63-9.47,8.85-4.33.92-9.15,3-11.9,6.58a7.6,7.6,0,0,0,3.09.56c-2,5.06-9,5.47-12.4,9s-7.55,4.65-11.22,8c-2.1,1.9-3.23,2.22-4.85,4.67-1.1,1.64-2.2,3.27-3.28,4.92-1.73.56-4.23.6-5,2.64-3.88.35-11.1,5.53-14,8-5.38,4.58-9.09,11.08-14.32,16-3.35,3.2-5.11,4.48-7.56,8.68-2.59,4.44-4.92,9.32-7.13,14,2.69.35,5.36-2.5,7.9-1.5-.35.89-5.83,6.39-6.56,5.7a2.26,2.26,0,0,1,.84-1.33c-3.29-1.31-10.65,4-3.43,5.29-1,1.88-3.19,3.05-4,5,.91.37.32,2.29.18,2.8a69.74,69.74,0,0,1-3.28,8.41c-3.45,8.77-9.31,15.91-10.93,25.32-.46,2.69-.71,5.79-1.72,8.34-3.79.21-5.94.61-7.06,4.18-1.82,5.84-6.54,10.91-9,16.49-2,4.39-7.7,10.46-12.21,12.44-2.55,1.13-4,2.52-7,3.43-3.27,1-6.81,1.73-9.92,3.17-2.66,1.23-4.34,4.41-8.17,2.89-.52,1.27-6.74-1.48-7.59-1.76-4.48-1.51-7.74-8.12-12.58-9.49-14-4-22.91-13-32.59-23.16-4.39-4.6-6.69-9.78-11.3-14.27-2.8-2.71-4.08-6.66-6.66-9.67-2.22-2.6-6.55-6-8.23-9-1.94-3.49-1.95-8.55-4.3-11.81a30.82,30.82,0,0,1-4.43-12.12c-.66-6.38,2.16-11.45,4.66-17.46a24.64,24.64,0,0,0,1.22-6.17c.41-3.06,1.55-8.43,1.27-11.82-.66-8.26,5.69-18,9-25.71,3.62-8.4,8.68-14.1,14.32-21.55,2.14-2.83,4.4-6.69,7.3-8.83,1.56-1.18,2-3.64,3.82-4.75s5.44-3.33,6.58-5.24c1.94-3.2,5.77-2.64,8-5s6.19-2.09,8.45-4.78,10.18-8.67,13.55-8.24c3.27-4.75,11.23-3.74,15.8-6.36,5,2,11.74.15,17.18,1.32,11.86,2.57,22,6.73,34.21,4.73,10.59-1.72,21-4.58,31.23-6.69,5.34-1.11,11.23-1,16.85-2.73,4.22-1.29,9.71-1.21,14.21-1.75,13.66-1.65,27.53-5.21,41.54-3.13"/><path class="cls-2" d="M345.93,722.9c1,.42-3.1,4.47-3.43,5.28-.37-.61-.21-.74-.91-1a9,9,0,0,1,4.34-4.25"/><path class="cls-2" d="M324.14,749.45c-1.44,1.42-1.56,2.25-.35,2.52.51-1.26.73-1.11,1.47-2.07l-1.12-.45"/><path class="cls-2" d="M296.75,753.22c2.15.23,2.32.94.47,2.17a3.07,3.07,0,0,1-.47-2.17"/><path class="cls-2" d="M318,761.62c2.7,1.06-1.6,4.08,0,0"/><path class="cls-2" d="M315.59,766c2.71,1.06-1,2.69,0,0"/><path class="cls-2" d="M313.56,771.13c.18-3.33.69-1.7,2.4-1a2.15,2.15,0,0,1-2.4,1"/><path class="cls-2" d="M274.78,761.77c1.41,1,1,1.74,1.4,3.21-2.1-.82-2.22-1.1-1.4-3.21"/><path class="cls-2" d="M278,770.36c2.26.89,0,5-.32,5.84-1.62-1.82-.52-3.74.32-5.84"/><path class="cls-2" d="M273.74,787.9c-2.14-.21-2.3-.94-.47-2.17a3.05,3.05,0,0,1,.47,2.17"/><path class="cls-2" d="M578.19,972.74c-.62,1.6-1.55-1.1-2.18.48.58.16,4.08.28,2.18-.48"/><path class="cls-2" d="M573,974c2.54,1-2.91,7.38,0,0"/><path class="cls-2" d="M549.2,1002.42c.19-1.48-.52-2.63-.36-4.12,2.21-.3,4.27-1.25,6.52-1.4-.91,2.33-3.94,6.41-6.16,5.52"/><path class="cls-2" d="M529.75,1011.31c.8-2,3.19-3.43,5.47-3.79-1.05,2.69-2.21,4.64-5.47,3.79"/><path class="cls-2" d="M519.56,1011.93l-3.67-.79c.94-2.42,4.61-5.51,6.75-2a17.94,17.94,0,0,0-3.08,2.76"/><path class="cls-2" d="M509.28,1021.13c.58-1.45,6.69-4.13,9-4.38-.44,1.14-3.06,4.75-4.33,4.24-.7,1.77-1.86,1.84-3.69,1.86-3.73,0-3.6-.2-5,3.35-1.63-.66-3.48,1.26-3.22-1.94,3.56-1.75,2.2-5.06,7.21-3.13"/><path class="cls-2" d="M327.6,945.27c2.41,1.54,3.25,1.68,2.88,4.45-2.55-1.55-4-1.55-2.88-4.45"/><path class="cls-2" d="M345.27,954.26c-1.72,4.35,6.17,6.57,10,6.6-1.23-4.57-5.95-5.18-10-6.6"/><path class="cls-2" d="M357,961.54c-.22,3.72,0,.81-1.7,2.63,1.85.75,3.45,2.12,5.48,2.86.22-1.78-4.09-8.07-4.94-5.95.39.15.77.32,1.16.46"/><path class="cls-2" d="M354.5,967.86q2.13,2.14,2.52.33s-2.48-1-1.79-1.59a5.3,5.3,0,0,0-.73,1.26"/><path class="cls-2" d="M479.63,1030.64c1-1.78,2.33-3.74,4.46-2.88.12-1.89,2.44-4.34,4.68-3.46-2.09,5.29-.95,9.49-9.14,6.34"/><path class="cls-2" d="M462,1018.32c-.39-.14-.77-.29-1.15-.45.6-.37.74-.19,1-.92a1.32,1.32,0,0,1,.12,1.37"/><path class="cls-2" d="M326.17,964c2,.07,3,1.1,2.79,3.07-1.85-.72-3.56-1.09-2.79-3.07"/><path class="cls-2" d="M385.06,987.91c-.92,1.18-.49,1.79,1.27,1.82.55-.85.13-1.47-1.27-1.82"/><path class="cls-2" d="M459.43,1018c-2.42,3.31-3.83,2.65-6.53,1.37,1.12-2.83,1.46,1.38,2.85-2.18,2.21-.38,1.47-.35,3.68.81"/><path class="cls-2" d="M329.75,966.67c1.7.63,2,1.63.82,3,2.67,0,3.47.7,2.41,2.28-2.54-1.09-5.25-2.85-3.23-5.27"/><path class="cls-2" d="M307.72,958.63c1.42.56-.39,2.5-1.48,2.06a5.75,5.75,0,0,1,1.48-2.06"/><path class="cls-2" d="M472.64,1029.87c-3.39-.7-7.16.84-8-3.18,3.95-.48,12.49-3.7,8,3.18"/><path class="cls-2" d="M305.66,960.46c1.27.5-.25,1.91-1.25,1.5.41-.5.84-1,1.25-1.5"/><path class="cls-2" d="M374.43,993c-2.12,5.32,9.85,3.9,2.86,1.15,1.44-3.65,5.2,4,5.63,4.2,1.5-3.77,11.78,7.89,2,5.11-9.21-2.62-1.29,6.22,1.49,2.91,1,1.54,1.75,3.93,1,5.72-4-.87-5.74-1.41-8.14-4.54q-.06,1-.81.33a9.57,9.57,0,0,0,2,3.44c-5.66,3.5-7.8-5.09-10.21-6-.47,1.17,1.41,1.31-.12,1.94-.73,1.88-5.61-3.18-6.42-3.86,0-5.75-6.13-7.07-11.05-9-.67,1.7-8.28-6.69-9.53-7.75.29-.74-2.55-3.06-3.23-4-3.23-4.9-.23-1.79,2.5-4.22,3.51,1.86,10.58,6.8,13.44,7,1.94.15,5.34,2.54,5.16,3,1.94,1.24,4.88-.06,7.57,1-.78,2,2.16-.44,2.18-.47,2,0,3.81,2.8,5.06,4a1.26,1.26,0,0,1-1.37.11"/><path class="cls-2" d="M334.6,977.9a5.77,5.77,0,0,1,2.07,1.47c-1.3,1.16-1.84,1.07-3.55.6l1.48-2.07"/><path class="cls-2" d="M352.16,985.5c.56,2.87,3.72,4,6.2,4.46.48-1.2-5.05-3.76-6.2-4.46"/><path class="cls-2" d="M456.35,1027.39c-1.21,3.11-5.62.21-8.34-.64,1.94-2.35,6.18-1.08,8.34.64"/><path class="cls-2" d="M407.6,1008.1c-.16.37-.31.77-.47,1.16.38.14,1.27-.24,1.25-.4.26,3,6,3.47,9.09,4.48-2.47,2.94-10.49.55-10.77-2.94-3.25-.42-3.45,0-6.56-1.93.45-1.13,5.52-1.17,7.46-.37"/><path class="cls-2" d="M386.82,1001.88c.61-1.52-.9-2.73-1.47-1.26.68.28.86.77,1.47,1.26"/><path class="cls-2" d="M442.38,1022.52c-1.37,3.45-1.24-.28-2.3,2.42,2.64,0,4.1,1.27,5.51,2.85-2.45,2.92-13.93,0-13.86-.17-3.62-1.45-7.66-1-12.3-2.45-1.32-.4-8.33-2.46-8.36-2.42-2.58-.31-9.05-2.26-9.28-5,3.08.06,6.37,4.31,8.25,2.62,4.55,1.3,10.18,1.37,13.82,2.81,4.36,1.73,9.47,1.37,15.07,1.32.12-2.94.62-3.08,3.45-2"/><path class="cls-2" d="M332,982.84l1.16.44c-.61.38-.74.2-1,.92a1.23,1.23,0,0,1-.12-1.36"/><path class="cls-2" d="M246.6,1103c.4.9-.08.21.92,1C247.14,1103.11,247.61,1103.8,246.6,1103Z"/><path class="cls-2" d="M254.57,1181.82c-2.06,2.8-13.9,2.6-14.21-1,5.15.76,9.28-.83,14.21,1"/><path class="cls-2" d="M15.1,1091c-.76.81-.72,1.28.12,1.38a1.24,1.24,0,0,0-.12-1.38"/><path class="cls-2" d="M416.34,1363.28c1.06-2.64.94-1.22,3.2-1.39-.41.49-.29.76.37.8a7.63,7.63,0,0,1-3.57.59"/><path class="cls-2" d="M405.69,1361.71c2.31.29,3.12,1,2.42,2.29-1.67-.66-5.3,1.15-2.42-2.29"/><path class="cls-2" d="M384.38,1361.91c.83.58,2.59,1.8,2.18,2.85-1.46-.75-1.93-1.24-2.18-2.85"/><path class="cls-2" d="M382.1,1367.65c-5.84-1-7.5-4.14-12.85-4.43,1.77-4.45,5.19-.84,7.23.21,1.69-1.52,5.76,1.78,5.62,4.22"/><path class="cls-2" d="M295.73,1374.61c-1,2.58,1.88,3.65,2.64,1.71a7.56,7.56,0,0,0-2.64-1.71"/><path class="cls-2" d="M293.19,1374.27c-.67,1.28-.51,2,.49,2.18.47-1.23.54.32,1-.92-.71-.28-.87-.76-1.51-1.26"/><path class="cls-2" d="M472.34,1475q-1.15,1.2.12,1.38a1.25,1.25,0,0,0-.12-1.38"/><path class="cls-2" d="M479.92,1479.34c.39.92-.1.25.92,1.05C480.44,1479.46,480.92,1480.14,479.92,1479.34Z"/><path class="cls-2" d="M259.28,1401.33l-.46,1.14c1.4.23,6.55.22,7.1-1.17a21.15,21.15,0,0,0-6.53-1.92c.18,1.1,1.42,1.43,1,2.39l-1.15-.44"/><path class="cls-2" d="M257.55,1400.65c.39.9-.09.22.92,1C258.08,1400.76,258.56,1401.44,257.55,1400.65Z"/><path class="cls-2" d="M350,1440.52c-.54,1.38,1.75,2.29,2.28.9l-2.28-.9"/><path class="cls-2" d="M348.34,1441.22c-1,.57-2.91.61-3.2,1.39,1.35.53,3.08.26,5.05.67.43-1.11-.66-1.59-1.85-2.06"/><path class="cls-2" d="M390.35,1459.18c1.39.35,1.81,1,1.27,1.82-1.77,0-2.18-.64-1.27-1.82"/><path class="cls-2" d="M341.7,1441.24c.36,1.78,1.44,2.42,2.86,1.13a3.09,3.09,0,0,1-2.86-1.13"/><path class="cls-2" d="M257.12,1408.44c.41.92-.08.22.93,1C257.65,1408.55,258.13,1409.23,257.12,1408.44Z"/><path class="cls-2" d="M383.93,1458.62a8.77,8.77,0,0,1,3.22,1.94c-1.92.83-3.38.94-3.22-1.94"/><path class="cls-2" d="M320.36,1434.79c-.3.77-.61,1.53-.91,2.3,1,.38,1.82-.65,2.63-1.62-.58-.21-1.15-.46-1.72-.68"/><path class="cls-2" d="M17.19,1315.48c.88.75,3.73,5.65,4.71,3.2,1.88,1.13,6.31,4.65.94,4.35.9-2.29-7.44-2.21-5.65-7.55"/><path class="cls-2" d="M272.29,1417.1l-1.17-.46c-.49,1.25.63.12.13,1.36a1.24,1.24,0,0,0,1-.9"/><path class="cls-2" d="M30.5,1322.09c.84,1.64.48.47-.11,1.94-1.22-.49.33-.54-.91-1l1-.9"/><path class="cls-2" d="M266.89,1415.63c-.54,1.37,1.75,2.29,2.3.89l-2.3-.89"/><path class="cls-2" d="M32.56,1323.56c1.57,0,2.09.38,1.5,1.26-.69-.28-1.16,0-1.94-.09.14-.4.3-.79.44-1.17"/><path class="cls-2" d="M264.13,1415.85c-3.61,4.32,4.89,1.94,0,0"/><path class="cls-2" d="M261.05,1415.3c-.69,1.26-.53,2,.46,2.18.49-1.25.54.33,1-.92-.7-.28-.87-.77-1.49-1.26"/><path class="cls-2" d="M27.87,1323.69c.58.24,1.16.45,1.73.68-.91,1.25-.89,1.2-2.42,1.05.25-.58.47-1.15.69-1.73"/><path class="cls-2" d="M38.22,1331.09a4.56,4.56,0,0,0-2.52-.32c.79-2-1.32,1.64.55-3.09a3.06,3.06,0,0,1,2,3.41"/><path class="cls-2" d="M331.74,1444.6c1.23.9,1.19.89,1,2.4-1.93-.11-2.28-.9-1-2.4"/><path class="cls-2" d="M33.16,1327.11c2.7,1.07-1.07,2.7,0,0"/><path class="cls-2" d="M335.77,1449.51c-2-1.46-.66-1.68-.24-2.75a6,6,0,0,1,.24,2.75"/><path class="cls-2" d="M357.1,1456c-1,2.56,1,1.27,2,.12-.72-.28-1.17,0-2-.12"/><path class="cls-2" d="M250.16,1414.31c-.17.38-.31.77-.45,1.15-2.43-1.47-2.52-2.43-5.05-.67,1.76,0,2.18.65,1.27,1.82,3.25,1.11,6.34,2.22,8-.14-1.3-.07-1.53-.61-.7-1.61-1-.17-2.06-.36-3.09-.55"/><path class="cls-2" d="M304,1437.6c2.49,1,1.69.25,3.19-1.39-1.55-.62-2.2,0-3.19,1.39"/><path class="cls-2" d="M357.11,1459.28c-.21.58-.45,1.16-.68,1.73,1.16.47,3.66-.78,4.58-1.51-1.24-.49-2.36.23-3.9-.22"/><path class="cls-2" d="M240.19,1414.35c6,2.39,2.68-3.19,0,0"/><path class="cls-2" d="M332.12,1448.74c-1.28,3.15-.61,4.75-4.36,4.23-1.45,1.31-4.43.94-6.29.84,1.69-3.59,7.51-5.75,10.65-5.07"/><path class="cls-2" d="M232.15,1411.16c-.33,1-.09,1.49.71,1.61.47-1.24.53.33,1-.92-.57-.24-1.15-.47-1.73-.69"/><path class="cls-2" d="M312,1444.1a1.43,1.43,0,0,0,1.49,1.26c.57-.87.08-1.3-1.49-1.26"/><path class="cls-2" d="M367.12,1465.9c2.05.8,2.91,1,2.18,2.86-2.38.42-1.49.07-3.67-.8.5-.67,1-1.37,1.49-2.06"/><path class="cls-2" d="M225.62,1412.56c-.5-.41-1-.82-1.48-1.25-1.27,3.19,4.78.57,2.17-.47-.22.58-.45,1.15-.69,1.72"/><path class="cls-2" d="M269.46,1429.25c-.23.57-.46,1.15-.66,1.72,1.5.18,1.45.17,2.39-1l-1.73-.68"/><path class="cls-2" d="M308.49,1444.69c-.7,1.76-2.06-1.53-2.77.25,2.16.84.62.6,3.69.78a1.28,1.28,0,0,0-.92-1"/><path class="cls-2" d="M218.87,1411.22c-.16.38-.31.76-.45,1.13a1.8,1.8,0,0,1-.14-1.36c-2.19-.87-3.75.47-6.77-1.35-.88,2.24-2.67-1.59-4,1.74-1.17,3,2.29,2.07,3.7,4.1.81-2,6.08-1.91,7.9-1.52-2.54,6.38,9.4-1.46-.24-2.74"/><path class="cls-2" d="M261.67,1428.82c-.14.39-.3.77-.45,1.15,2.41,0,2.7,1.54,3.78-1.17-1-.41-2.1.21-3.33,0"/><path class="cls-2" d="M267.41,1431.09c.15-.39.29-.77.46-1.15-.95-.28-2.32-.86-2.77.24l2.31.91"/><path class="cls-2" d="M269.93,1434.74c-.38-.14-.76-.29-1.13-.45-.94,2.36,2.89,1.16,3.43,1.36.14-2.62-.93-2.69-2.3-.91"/><path class="cls-2" d="M297.59,1443.69c-1.88-1.38-3-1.38-3.32,0,1.46.58,1.12,2.64,3.32,0"/><path class="cls-2" d="M266.73,1432.81c-.16.38-1,.78-1.13.65,1.16,1.28,1.09,0,2,.38a1.24,1.24,0,0,0-.91-1"/><path class="cls-2" d="M204.77,1411.62c.5-.71,1-1.38,1.48-2.07-1.11-.21-5.91-1.81-6.41-.55l4.93,2.62"/><path class="cls-2" d="M291.16,1443.15c-1.57.7-3,.13.7,1.59a2.84,2.84,0,0,0-.7-1.59"/><path class="cls-2" d="M262,1432.94a1.46,1.46,0,0,0,1.51,1.26c.57-.88.07-1.31-1.51-1.26"/><path class="cls-2" d="M197,1407.87c-.13.36-.31.76-.46,1.12,1.29.71,2,.55,2.2-.45l-1.74-.67"/><path class="cls-2" d="M194,1408.69l-1.15-.47c-.49,1.23.62.13.13,1.36a1.26,1.26,0,0,0,1-.89"/><path class="cls-2" d="M205.93,1415.39c.53-1.33-5-4.18-5.74-2.27,2.79,1.1,3.33,1.17,5.74,2.27"/><path class="cls-2" d="M275.36,1442.86l1.14.45c.49-1.23-.6-.12-.12-1.37a1.25,1.25,0,0,0-1,.92"/><path class="cls-2" d="M277.53,1442.4c-1.08,2.71,2.71,1.06,0,0"/><path class="cls-2" d="M194.68,1410.28l-1,.91c.64-.08,2.41-.37,1-.91"/><path class="cls-2" d="M245.06,1432.21c.16-.38.31-.78.46-1.14-1.26-.71-2-.55-2.17.46l1.71.68"/><path class="cls-2" d="M188.49,1409.16l-.9,2.28c6.54,1.78,6.91.88.9-2.28"/><path class="cls-2" d="M286.61,1448c.38.91-.1.22.92,1C287.14,1448.1,287.61,1448.78,286.61,1448Z"/><path class="cls-2" d="M238.18,1429.48c.4.91-.09.22.93,1C238.72,1429.59,239.2,1430.28,238.18,1429.48Z"/><path class="cls-2" d="M172,1404c-.5,1.28.55,2.47-.78,3.66a3.52,3.52,0,0,0,3.9.22A10.94,10.94,0,0,0,172,1404"/><path class="cls-2" d="M182.3,1408c-.49.68-1,1.38-1.47,2.08.53.21,2.63-1.62,1.47-2.08"/><path class="cls-2" d="M184,1408.72c0,.64-.08,1.3-.13,1.94,1.38.33,2.19,0,2.4-1l-2.27-.9"/><path class="cls-2" d="M235.08,1428.91c-.15.38-.29.78-.45,1.16,1.26.68,2,.53,2.18-.47l-1.73-.69"/><path class="cls-2" d="M179.2,1407.47c-.07,1.29-.59,1.53-1.59.7.72,1.67,1.66,2.34,3.09.54-.49-.4-1-.82-1.5-1.24"/><path class="cls-2" d="M298.66,1456.06c.84,1.64.48.49-.1,2-1.26-.5.32-.54-.92-1,.34-.31.68-.6,1-.92"/><path class="cls-2" d="M169.93,1405.77c-1.09,2.71,2.7,1.08,0,0"/><path class="cls-2" d="M292.25,1455.53c1.23-3.15-2.38-.57-3.32,0,1,.38,2-.37,3.32,0"/><path class="cls-2" d="M302.45,1458.23c1.12,0,1.42.34.93,1a1.26,1.26,0,0,1-.93-1"/><path class="cls-2" d="M275,1452c1.12,0,1.42.35.92,1a1.27,1.27,0,0,1-.92-1"/><path class="cls-2" d="M271.38,1451.24c.42.23,2.37.47,1.51,1.26C271.27,1452.48,271.91,1452.7,271.38,1451.24Z"/><path class="cls-2" d="M263.46,1449.44q-.94,2.55-3,.81.93-2.55,3-.81"/><path class="cls-2" d="M264,1449.66c1.58,0,2.06.38,1.5,1.27-.72-.29-1.17,0-2-.12.16-.38.31-.76.46-1.15"/><path class="cls-2" d="M227.79,1437.31c.85-2.17-2.19-2.85-2.88-1.14l2.88,1.14"/><path class="cls-2" d="M177.3,1420.64c.41.92-.08.23.92,1C177.83,1420.76,178.31,1421.45,177.3,1420.64Z"/><path class="cls-2" d="M203.7,1431.08c-.15.4-1,.77-1.14.66,1.16,1.28,1.11,0,2.06.38a1.32,1.32,0,0,0-.92-1"/><path class="cls-2" d="M164,1417.38a1.44,1.44,0,0,0,1.5,1.25c.56-.87.06-1.3-1.5-1.25"/><path class="cls-2" d="M168,1419c.41.92-.08.24.93,1C168.55,1419.08,169,1419.76,168,1419Z"/><path class="cls-2" d="M165.16,1421.16c.4.91-.08.22.92,1C165.69,1421.26,166.18,1422,165.16,1421.16Z"/><path class="cls-2" d="M186.29,1431.51c2-.09,2.71.41,2.07,1.48,0,0-2.48-1-2.41-.08a5.21,5.21,0,0,1,.34-1.4"/><path class="cls-2" d="M192.62,1440.64c1.11,0,1.41.35.93,1a1.25,1.25,0,0,1-.93-1"/><path class="cls-2" d="M202,1447c1.1,0,1.41.33.93,1a1.26,1.26,0,0,1-.93-1"/><path class="cls-2" d="M207.32,1450.45c-1.76,3.91-4.74,7.42-8,6.1-2.42-1-8-4.41-6.5-7.87.27.09,5.22-1.47,5.36-1.86,4.63,1.31,5.74,2.47,9.19,3.63"/><path class="cls-2" d="M189.21,1449.27c.25.83.25,2.08-1.25,1.48l1.25-1.48"/></g></g></g></svg>