<svg xmlns="http://www.w3.org/2000/svg" width="1097.44" height="866.36" viewBox="0 0 1097.44 866.36"><defs><style>.cls-1{opacity:0.2;}.cls-2{fill:#7c1929;fill-rule:evenodd;}</style></defs><title>アセット 1</title><g id="レイヤー_2" data-name="レイヤー 2"><g id="レイヤー_1-2" data-name="レイヤー 1"><g class="cls-1"><path class="cls-2" d="M432.49,277.74c-.07.06-.14.12-.2.1S432.42,277.8,432.49,277.74Zm20.16-106,0,0S452.63,171.7,452.65,171.75Zm-157.1-67.29c.08,0,.14.09.25,0C295.75,104.4,295.69,104.41,295.55,104.46Zm787.9,230.16h0S1083.45,334.6,1083.45,334.62ZM467,398.41c.18,0,.29-.1.46-.13C467.2,398.15,467.1,398.25,467,398.41Zm-121.93,205a1.4,1.4,0,0,1,.19.33C345.26,603.5,345.24,603.35,345.07,603.4ZM2.75,565l3.56-1.26c-1.45-4.12,9.62-2.54,5.8-1.16a1.73,1.73,0,0,0,2.54.89c-.6-1.66-.75-2,.7-3,.91,1.7,2.14,3.66,4.3,3.44-.53-1.6,1.21-4.18,2.4-.85,3.79.49,6.74.75,6.52-4.15,4.13-.27,8,5.74,11.36,4.49-.15-1.59,1.08-1.77,2.34-2.15,1.65,1,3.82-1.82,5.36-2.37,2.9,1.68,9.3,4.59,12.8,3.56-2-5.55,6.62-.12,8.71-.44.73,2,6.79-1.51,8.49.14,4.53-.42,7.39,2.25,6.78,7.95-1.48,1.62.4,4.39,1,6.45.14-.05,1.59-12.08,4.88-2.62-.91,2.28,1.66,5.17,1.76,7.48-.07,3.33-.57,6.41.84,8.73-1.39,1.86-.4,3.22.13,5.4,2.64-.94,0-11,1.67-12.81-.69-2,.23-9.44,2-10.67,1.74,5,0,10.93.11,16.67,1.29-.44,1.22-6.6.9-7.53.24-.1,1.26-11.52,3.59-4.91a5.53,5.53,0,0,0,1.53-1.93c2.17,6.12.86,10.3,2,15.6.36-.14,1.18-6.4,1.82-7.44-1.09-1-2.36-5.48,0-6.31,1.3,3.64,1.51-2.07,1.79,4,.06,1.81-.42,3,.46,3.86s2.36,5.38,1.24,5.8c.74,2.07.47,4.69.69,7-.77.25,2.77,4.34-1.06,5.78a3.31,3.31,0,0,0-.43-2.55c-1.46.5-.44,15.11.1,16.67-1.45,1.52,3.91,13.06,2.18,13.68.53,1.56.61,3.83-1.1,4.44-1.59-2.81-2.73-3.46-3.05.21-.87-.44-.22-.81-1.47-.39.34,1.46,2.27,6,.56,6.61a65.58,65.58,0,0,1-1.48-6.72c-2.89,1,3.18,22.82,4.16,25.63,1.9-.7-1.85-4.33.43-5.12.36,1,1.63,6.64.3,7.11-.21-.55.24-2.34-1.1-1.85.59,1.72.78,8.75,3.2,7.88,1.23,1.47,2.7,9.45.93,10.08a8.47,8.47,0,0,0-1.82-3.9c.63,1.9,3.42,12.36,1.48,13-3.33-9.48-3.06-20-6.34-29.36.67-.25-5.34-30.32-6.88-33.26-.76,1.62,0,5.12.13,6.74-.59.2-.79-.25-1.47-.37,2.57,7.17,0,13.91,2.48,20.77-2.58,1,4.85,15,2.09,16-1.14-3.26-7.39-26.69-5.66-27.34-2.75-7.77-1.3-17.56-3.9-24.82-1.24,2.73,2.91,20.66,1.69,21.07,1.08,3.75,6.26,28.06,4.78,28.61,1,2.85,7.13,32.23,6.17,32.58,1.92,5.36,2,10.54,4,16.21-1.08.38,3.78,13.81,4.2,15.68,3.37-2.18-8.21-23.74-3.64-25.36.95,3.46,3.87,23.73,7,23.67.13,1.36,1.73,16.55,5,15.4-1.9-2-2-3.21-.33-3.5,1.22,2.95,5.6,8.82,2.76,11.64a2.79,2.79,0,0,1,1.76,1.19c-3.23,1.16-.84.3-3.44.32a14.25,14.25,0,0,1,.68,4.93c-.25,2.85-2,.72-2,2.75.44,1.24,3.64,8.66,2,9.29-1.67-4.69-5.37-1.71-8.23-.7.22,1.86-2.46,3.13-2.15,3.94-3.64,2.47-2.9-3-4.84-2.31.26.73,2.22,7.79.71,8.3-.39-1.19-.11.91-1-1.46-2.31.84-1.08,7.08.33,8.49-.72.22-1,1-1.69,1.51-.07-.72-.51-3.45-1.92-3a28.75,28.75,0,0,1,.78,4.71c-1.72.58-.16-.86-1.87-.25,0,2,2.79,7.26,1,9.12.44,3,10,9.91,8.19,13.61-1.29,2.72,5.53,11.53,7.42,14.26,4.94-1.78,4.71,4.49,8,7.54,1.59-.57,6.16,7.85,8.69,8.22,1.49,2.22,2.86,9.33,6.41,8.08,1.88,1.43,3.48-.8,5.67-1.58,1.12,1.71,2.42,2.75,4.64,1.94a3.36,3.36,0,0,1,.21,1.78c3.43-1.27,6.31,5.69,10.66,3.83,3,5.47,1.66,6,8.08,6.55-.38,2.36-.4,1.75.74,3.38,3.84-.61,2.8-.75,3-4.2,2.42-.24,4.06-1,7.11-1.19-.42-.86-1.19-1.84-2.29-1.42-.69-2,2.14-1.39,3.13-2.51-.76-2.16,5.43-1.68,5.26-1.42.58-1.28-1.54-2-2-3.33a40.45,40.45,0,0,1,9.33-2.45c3.33-.78,5.29-4,9.15-5.53,5.69,3.77,5.2-2.21,10.68-1.78a23.07,23.07,0,0,0,9.63-1c-.09-.17,6.92.78,6.58-.12,1.32-.26,4.18,1.79,3.73-1.18s2-2.15,3.88-2.4c1,2.81,10.49-2.43,12.25-3,0-.2,4-3.09,4.11-5.32.11-2.62-.74-2-1.67-4.17,3.15-1.36,5.6-1.32,8.14-2,2.21-.61,2.22,1,5.22.87-1.42,3.06,1.47.45,2,2,5.27-2.91,2.33-3.46,4.3,2.13,4.57-1.8,6.27.45,9.9-.86.14.48,2.41-4.92-.51-3.9-.83-3.35,2.05-11.55,5.27-12.71.13-1.22,7.86-7.65,6.71-2.38,3.36-1.2,3.27-8.73,7.69-10.9.42,1.16.13-.92.95,1.47,2.25-1.07,2.69-3.68,4.68-4.39.18-1.71,2-2.19,3.34-3-.1-1.08.63-3.83,1.24-4.07-.36-1-.76-5.23-.25-5.76.58-1.45,2-2.45,2.34-4,.65-2.4,3.21-3.27,3.78-6.29-3.49-.52-1.07-2.51-1.33-5.13-.52-4.94-.14-1.54-2.08-3.07-1.27-1,.25-2.21.07-3.73a37.43,37.43,0,0,1,5.23-2.77c1.31,1.23,1.13,1.35,3.08,1.18-1-3,2.19-5.77,4.34-6.54.46,1.23-1,7.37,2.59,3.6,1.77-1.87,1.28-2.92,1.23-5.44,2.47-.62,1.39,1,2.71,2.67.82-.59,6.91-14.26,8.64-9.4,1.61-.59.43-2.17,1.52-3.26-2.45-4.36-2-3.94-.21-7.91.91-2-1.35-6.53-1.76-7.66.77-.53,2.48-3.8,2.73-4.7.49-1.78-2.3-4.22-2-3.25-3.1,1.76-3.6.61-5.1-3.17,1.05-.34,2.17-5.2,1.71-6.46,1.42-1.5,4.14-8.44,3.64-9.89a44.42,44.42,0,0,0,3.52-7.77c1.05-3.66,3.45.3,4.33,0,1.49,1.19,6.54,7.45,6.41,1.79-2.16.78-3.68-5-3.38-6.53.92-4.78-.6-3.9-3.45-2.78-.73-3.14,1.75-3.65-.48-5.73-.57-.5-1.36-2.65-1.86-3.39,1.34-.45,2.83-8.65,3.1-10.13-4.16,1.52.42-8.88.41-10.1,2.86-1,1.62-8.72,4.54-9.76-.08-1.14-1.63-4.61-1.45-5.35-.16-1.18,1.16-5.72,1.83-5.92.95-.3,5.36-3,2.55,1.56-1.06,1.74,3.32,4.91,3.24,6.57s-1,2.58-.44,4.25c-1.39.49,1.57,4.78,1.58,5.76-2.52.9,3.82,5.71,3.12.74-.43-3.39,4.33,2.94,3.09,4.29.45,3.16,6.76,8.68,2.13,12.33,1,4.18-2.4,5.58-1.65,9.16,2.42-.86,1.64-5.09,2.53-5.4-.78-2.23,2.84-4.5,3-2.27-.33-4-8.33-31.56-11.45-30.46-1.7-4.82-2.46-8.27-3.82-12.14,2.47-3.39,3.58-3.63,5.14.84,1.27-.43,4.79,6.87,5.65,8.41,1.78-1.44-3.93-8.9-3.71-11.78,1.16-1.2.31-5.09,1.18-5.41a27.07,27.07,0,0,1,.53-6.07c-.3-.9.12-1.55,1-2.15,1.19,3.37,2.55-2.32,4.3,2.08,4.8-3.22.81-10.26,4.68-14.34-1.36-3.8,3.53-4.52,2.82-7.12-.54-1.77-.24-2.08,1.47-2.11.62,1.92.43,4.36,2.6,3.59-1-1.65-2.46-5.75,1.18-6,1.83-.13,2.23-1.17,3.91-2.13-.51-3.47.57-2.44,3.23-3.4-.95-2.73-7-6.29-.62-9.29-.86-6,4-4.31,7.58-5-.57-1.61-2.68,0-2.63-2,0-1.42,3.4-2.12,4.27-2.24a5.21,5.21,0,0,1-.09-6.29c2.43-3.44,4.47,1.66,5.57,3a2.33,2.33,0,0,0,1.06-2.1c.16-3.07,1.06-1.85,2.93-2.94,0,0,3-2.79,3.25-2.06,2.76-1,7.3-5.76,7.1-8.86a41.31,41.31,0,0,1-5.15,1.84c-1.26-4.58,1.54-4.37,3.31-5.58s.2-1.16,1.43-2.44c-.34-.88,3.22-2.38,3.9-2.78-.37-1,1.86-4.79,2.48-5.27,1.51-1.18-.46-4.93,2.24-4.89,3.35,0,2.92-3.4,5.66-4.39-.93-2.64,3.19-6.62.16-9.55,3.09-1.1,8.82-11.51,11.56-3.69,2.34-.82,7.55,7.7,10.35,6.69,1,.58,1.2.44,2.55,1.23a5.93,5.93,0,0,1,2.29,2.45,10.73,10.73,0,0,1,6.19,1.11c4.36,2,10.13,6.66,14.66,6.34,1.06,3.1,8.41,2.77,11,4.7,5.11-1.83,12.48,2.29,18.24.22.45,1.2,13-2.28,13.25-1.55,5.48-.42,11.62-5.52,16.89-7.44-.24-.65,18.45-9.31,19.18-12.27a22.11,22.11,0,0,0,6.32-5c1.78-2.65.8-2.93,4.17-4.18.16-1.11,2.78-3.47,2.57-4.06,1.37-1.44-.38-2.56,1.88-3.4.36-2.89,2.83-3.42,3.44-6.62,4.91-.73,4.14-5.61,8.18-7-2.65-5.1-.19-1.65,0-4.69.15-1.88-1.09-2.49-1.85-4.14.93-1.38,3.37-2,4.87-2.65,1.61,1.94-.14,3,.11,5.37,1.43-.47,2.22-6,3.7-7.21.09-.14,1.93-7,2.49-5.39,3.14-.57,3.62-2.2,6.66-3.77-3-5.38,3.37-5.53,2.74-7.3,5-1.8,7.63-6.79,11.34-8.11,1.32,3.71,1.4-4,1.52-3.26.5-.73,3.71-6.07,3.71-6-.39-3.73,5-3.34,7.16-4.67-.18-.47-.49-.62-.82-1a3.67,3.67,0,0,1,1.74-.18c0-1.83-.79-2.17-2.16-1-.75-2.88.44-2.83,2.82-3.29.11,3.94,7.27-3.3,7-6.6,1.14-.41,7.8-6.84,7.62-7.25,4.35-1.54,5.17-8.36,10-10.78.68,1.91,10,.75,10.64,2.54,2.22,0,17.85.34,17.85.36,4.55-1.62,7.77-1.14,12.74.19,1.46.39,9.14,1.39,9.3,1.85,1.2-.4,9.36-.18,6.14,1,.54,1.52,32.2-10.58,32.88-8.63,2.41-.86,2.75-2.77,6.22-2.86s4.47-.48,5.26-3c.62-1.85,11.07-5.62,10.48-7.35,1.92-.72,5.83-.28,7.65-1,.71,2.07,2.73-2.77,3.75-3.14.46-3.88,5.37-4,6.19-7.65.41-.14-1.08-4.18,1.31-5.65,2.07-1.3,1.35-5.69,4.09-6.67,1.4-4.72,9.19-7.33,13-9.62.41-3.79,8.87-5,6.87-10.62.74-.74,1.18-6,2.18-8,2.07-4.14,4.64-7.21,7.63-10.88,1-.37,7-5.36,6.84-5.63,1.29-.44,5-2.53,5.23-4.12,5-1.79,2.24.44,5.89,3.19,1,.73-.11,1,0,1.78.19,1.7,2.79,1.88,4.12,2.77a35.73,35.73,0,0,1,10.09,10.15c.39.71,3.37,4.41,3.71,4.32,1,1,5.18.84,5.33,1.25,2.26.61,3,2,5.88,2.88.86,1.34,4.53,6.51,6.12,6,2.31,4.51,6.66,6.21,8.19,10.61,3.21.4,9.25,7.88,11.19,10.43,1.34-.47,3.49,4.48,5.68,4.75.7,2,11.74,10.71,13.33,10.14.88,2.44,5.11,4.11,7.3,5.07,4.11,1.8,14.88,4,17.29,7.84-1.63.57-1,.46-2.8,1,1.12,3.14,12.28,1.81,15.19,4,2.66-1,7.8,3,10.83,3.52,3.49.58,9.9,2.27,13.31,4.54a10.39,10.39,0,0,1,4.65.62c3.23,1.56,6.29-2,9.17.78,3.23-.28,7,.21,10.27-1,4,3,8.23.3,12.59,4.08-4,1.41-6.16,0-10.06.43-.18-.43-9.27-3-9.86-2.79.66,1.92,4.37,3.28,6.43,3.14,1.24,2.09,2.78,3,5.19,2.16.72.73,4.51,1.13,5.59.75.17.48,8,2.11,9.42,1.59.76,2,9.27-.12,10,1.85.88-.32,13,.49,13.25,1.12,1.35-.45,11.27-.88,11.53-.06,1.14-.41,11.92-3.23,12.55-2.83.76.55,16.31-5.87,16.08-6.5,1.6-1,4.08-2.42,4.27-4.23,4.09-1.48.58-4.28,3.85-5.47-1.18-3.4.21-6.94-.6-9.27,1-.36-1.82-9.27.92-11.18,1,2.59.35,4,.41,6.2,2-.74,2,2.2,1.69,3.46,3-1.09,2.94-7.41,2.66-10-1.34.32-2.72.68-4,1-.34-.77-1-2.39-2.07-2-.46-2-1.5-3.27.18-4.56-.39-1.13,1.29-.14.89-1.26a2.43,2.43,0,0,0,1.54-3.25c-2-.37-3,1.1-4.24.61-1.11-3.14-2.76-1.86-3.94-4.89.65-1,3.44-4,3.32-4.39,2-1.59,5.47-9.06,2.7-10-.5,2.09-4.51,4.38-6,3-5.19-4.59,6.08-5.31,5.73-10.13-.56.35-6.08,4.28-6.06,4.14-.53,1.5-2-6.1-1.83-6.3-.59-.11-6-10.44-4.89-11.37,0-1.78-1.59-3.79-2.51-5.85,2.33-2.26,1.07-3.92,1.7-6.47,2.73-2.18-.92-9.27-2.29-12.08-.65-1.38-2.21-8.93-1.21-9.28-1.47-6.12,1.14-9.68.53-16-.4.14-1.67-.95-1.9-1.57,3-1.08-6.22-4.49-6.57-4.87-3.07-.49-2.86.09-4.08-4,1.17-.69,4.68-3,4.36-.2,2-.74,4.8-2.59,5.31-5.07-2.44-.51-5.67-1-6.57-3.53-1.17.44.89.15-1.44,1,.26.68,1,.3,1.61.76-2.68,1-3.94,1.52-2.93,4.25-5,1.77-5.11-8.15-5.91-7.85-1.23-1.17-1.11-2.15-1.9-2.93.2-.08,1.28-3.15,1.51-3.24,1.35,3.78.83-4.38,1.48-4.61a5.86,5.86,0,0,1,1.14-3.13c-2-3.33-1-1.48.13-4.56-1.74.62-.43-4.82-1.54-4.39-.28-.76-4.11-6.69-4.92-6.39-1.25-2-6.47-16.22-5.41-16.6.5,1.49,3.83,6.28,6.07,5.95-.18-1-1.11-7.74-2.54-7.22a51.17,51.17,0,0,0-2.13-6c-2.1.35-3.71-1.68-4.46-3.53-2-4.72-3.69-9.52-5.34-14.19-.26.07-8.13-14.72-9.46-14.24.08.25-6.7-4.85-5.83-5.16-1.46-2-1.41-6-3.87-7.2-.13-.39-4-1.81-2.65-4.91,2.73,4.51,1.41-1,.77-2.31a58.37,58.37,0,0,1-2.26-5.75c.77-.27-8.77-14.77-7-9.71-3.38.3-8.82-27.12-12.65-25.75.52,1.38,2,4.2,2.66,6.3-2.75,1-3.92-5.1-5.06-6.79,2.4-.85.44.76,2.28.09-.66-1.83-.94-1.48-3-.76-.92-2.68-2.58-4.39-3.85-7.2-1.87-.48-4.87-10-6.44-9.45-1.05-2.92-10-18.12-12.33-17.26C974,81.87,979,89,983.19,98.44c0,0,6,19.48,6.88,22s6.83,22.42,5.77,22.78c2.92,8.14,2,15,6.24,21.29-8,4.73-1.47-10.92-9.85-7.78-1-2.75-1.68,4-1.19,5.41-1.74.62.94,4.15-1.72,5.13,1.49,4.29-3-.77-3.65-2.75-.55.18-.53,3.67-1.48,4.59-.91-2.58-7.9-17.09-9.41-16.53-2-5.72-6.28-13.62-6.42-19.4-1.51.53-1.71,10.12-1.32,12.62.93,5.67-.3,8.57.88,13.75-.39.15-.83,11.93-.45,13.72a21.39,21.39,0,0,1-2,5.68c.09,3.91-7.7-1.7-8.15-3-1.4-.39-4.9-2.59-5.38-3.95a8.13,8.13,0,0,1-4.71-3.29c-2.46-.77-6.85-2.45-8.3-4.7-1.48-.18-5.1-3.12-5.57-4.35a9.6,9.6,0,0,1-6.51-2.17c-6.82-2.69-13-8.75-20.16-9.7-5.36-.71-18.46,12.08-21.16,4.59-2.38-2.62-8.22-4-10.63-2.51-3.81-2.91-6.89-1.16-9.43-.26-.39-1.1-1.69-.74.38-1.45-.59-1.73-8.19-1.25-10.17-.85-2.15.48-5,2.72-7.26,3-3.22,1.16-3.74,2.3-5.85-.17-1.83,1.51-5,1.47-4.9,3.57-.93-.09-3.3,4.07-3.32,5.73,2.5-.92,10.43-8,9.45-3.38,1.79-.4,5.5-1.37,6.76.28-1.76.24-9.82,3.57-9.44,4.71-5.18,1.85-10.93,5.73-15.56,7.4-.39,3.1-6.41,2-5.45,4.65-1.76.64-2.05,2.55-3.78,3.17,0,.18-2.35,4-3.36,4.34.06-.54-.18-.77-.67-.65.82,2.35-1.45,2.88-3.09,3.84.53,1.46-2.44,5.39-3.65,5.83-.24,1.74-5.7,8.8-7.37,9.4-.21,1.59-2.75,4.58-4,5-.66,1.9-3.09,7-4.86,7.62-.1.89-2.8,4.61-3.6,4.87-.89,2.32-4.3,6-4.45,7.47-1.59,2.59-3,3.52-4.22,7-2.72,1-2.12,6.64-4.83,7.6-1.2,3.88-5.57,7.09-6,10.73-1.28.44-8,7.54-8,7.38-1.61.58-13.22,10.33-13.25,10.2-6.94,2.46-10.65,9.22-17.63,11.71-.82-2.38-11.71-4.7-12.77-3.56-.12-.3-9.23-4.38-9.91-4.12a10.65,10.65,0,0,0-4-1.33c-1.73-5-11.07-2.51-11.74-4.35-1.36.31-11.48,1.35-11.77.57-.79.3-7.08,1.32-7.26.83L664,268.72c-1.92-1.84-5.57.77-5.37,3.75,2-.25,4.38-.21,6-.78.15.48-19.75,7.42-22,9.24.48.59,1,1.16,1.46,1.72-8.08,2.78-13,10.56-18.27,16,.67,1.91-8.89,4.4-8.83,7.7-.76.63-12.36,11.55-12.44,11.22-3.07,1.08-4.9,4.93-7.68,5.91-.14,1.17-4.31,5.62-5.42,6,.1.31-8.67,7.16-9.37,7.42,0-.16-18.44,12.92-20.06,13.51,1,2.87-16.07,8.59-15,11.67-1.29.47-9,7.05-8.94,7.28-2.1.76-6.36,6.77-8.27,6.25-.88-.2-5.57,3.6-7,4.55-2,1.24-4.83,2.29-7.13,3.57-3.08,1.7-4.64.4-7.59,1.12-1.89.49-15.63,7.21-15.79,6.78-1.63.3-1.62,2.59-3.15,1.15-2.37.85-.11-.43-2.51.42.18.42-5.74,1.16-6.6,1.46-.18-.53-10.52,3.33-10.75,3.43.48,1.38-.55,1.9-1.8,2.42a4.62,4.62,0,0,1-.37-2.14c-4.73,1.41-7.84-2.17-8.95-5.36-1.05,0-.08,2.1.17,1.74.9,4.87-2.72,2.9-6,4.41-.68-1.95-.47-2.43,1.51-3.27-1.43-4,1.73-11.52,1.59-16.82-2.75,1-1.38-2.77-1.9-4.77-1.24-5.06,1.79-1,3.64-.38-.92-2.66,0-5.37,0-7.66,1.42-.08,1.28-.14,1.88,1.59,3.06-1.09,5.89-17.65,5.37-20-1,.36-1.47,4.18-3,5.17-2.08-6.48,3.44-12.49,2.85-18.2,1.91-2.92,2.35-7.9,2.28-11.2,1.77-1.9,3.72-13.32,2.93-15.52,1.56-.56,1-8.83,2.54-10.39-.06-2.4.52-8.28,1.9-9.74-.66-1.87.32-11.64,2-13.32-2-5.53,3.55-13.75,1.77-18.73,2.23-.83,1.07-13.81,3.23-16.06-.21-7.84,3.63-14.1,2.52-21.71,1.45-1.95,2.83-8.33,2-10.67,1.38-2.16,1.2-5.34.75-8,1-1.37,1-9.38,1.88-9.69-.89-2.53,1.55-6.92,1.47-9.58,3.43-3.6.07-11.08,4-15,.9,2.44-.39.09.46,2.55.89-.32,2.05-11.87,1.93-13.38-2.74,1-.44,4-4.34.21-1.77,2.69-1.74,8.28-1.51,10.94-1.05,1.16-1.52,6.72-1.74,8.77.33.91-.25,5.94-.93,6.19,1.58,4.48-1.54,10.92-1.07,15.76-2.91,1-3.24,11.12-3.95,13.69-.59,2.26-4.38,18.67-3,18.17.12,1.32.89,3.31-.46,3.8-.92-6.41-2.49,2.94-2.27,4.82a6.12,6.12,0,0,0,1.68-1.48c-.14-.42-1.16-1.85.1-2.29,1,2.7-.45,13.11-2.43,15.8.3,3.11-.46,7.51.38,9.79-1.35,1.85-1.34,3.94-1.9,6.21a30.9,30.9,0,0,0-.88,4.65c-.55,3.53-.95,0-2.63,1.47.54,1.5-.95,4-1.18,5.41-4.45,1.59,0-6.35-2-5.61-1.31-3.75,1.3-6.88,1.68-10.64.3-2.8,1.33-18.91,4.35-20,.74-4.26-.43-10.58,2.31-14.86-.61-1.68.36-6.1,1.43-7.27-1.22-3.43,3.48-9,2.21-12.54,1.95-2.08,1.41-6.13,1.81-8.78-2.15.76-3.27,9.37-3.05,11.48-2.29,2.44-.41,7.63-2.68,10,.29,2.88-3.21,21.94-5.32,22.69-.58-1.82.65-12.91,1.56-13.22-.65-1.88,1.51-7.15-.87-8.71-2,3-7,15.48-4.21,18.21-2.5.89-.61,2.91-2.63,6.37.61,1.74,0,6.35-1.12,8.12.06,2.33-1.23,3.5-1.05,5.77-2.46,1.72-.1,4.2-1.85,6.1.88,2.44-1.57,7.61-1.47,10.91.45-.18.61-.51,1-.83a9.45,9.45,0,0,1,.4,4.83c3.51-1.27,1.52,8.05.7,8.33.27,2.5-.48,3.39-.1,5.93-1.37,1-2.07-.18-2.66,0,.7,1.91.24,3.37,1.05,5.48-2.39.25-1.48,5.45-.74,8,.2-.08,2.47-11.79,2.2-12.57a.83.83,0,0,0,1,.13c.09.92.86,5.56,1.05,5.49.89,2.57-1,3.79-.79,6.6,3.89-1.38,1.78-8.65,1.56-11.72-.16-1.85,1.26-.79,1.56-2.06a27.67,27.67,0,0,1-.27-7.44c.08-2.06,3.87-5,3.53-5.93,1.51-1.41,1,1.11,1.24,1.57,1.18,2.49-2.36.16.17,3.68,2.76,3.86,0,1.36.75,3.47-1.58.59.88,9.24-3.08,8.79,1.16,3.24-2.5,7.92-1.45,10.93-.21,2-1,8.52-2.27,9.85,1,2.76-1.2,5.93-1.1,9.45-1.53,2.27-.82,14.11-4.31,14.18.49,1.46-1.71,11.55-2.34,13.17-2.12,5.59-3.35,10-3.26,15-1.45,1.16-3.24,9.57-2.65,11.34-1.85,2.86-1.24,6.3-3.07,8.81,0,2.94-5.62,20.54-8.49,12.48-2.84,2.05-2.53,3.35-6.06,4.57-2.33.84-4.53,2.41-7.51,3.47.49,1.35-9.08-.35-6.63-1.22-.8-5.41,7.35-5.52,6.72-7.39-5.26.09-3.25-3.35-4.79-6,0,0,3.95-7.71,3.13-7.42.28-2.28,1.72-9.09,3.17-11.09,1-4.11.63-9.32,2.78-12.67,1.41-2.2-.62-5.31.63-6.62,2.48-.89,2.53-2.94,1.74-5.13,1-1.53,1.16-8.55,1.75-8.81-.2-.65,1.05-9.4,1.13-9.42a23.75,23.75,0,0,0,1.64-4.18c-.33-2.66.14-7.6,1.63-9.18-.6-1.75,1.25-12.1,2.73-13.65-.9-2.55,2.06-6.77.94-9.82,1.48-.54,3-15,2.81-17.27,1.75-2.43,2.7-12.38,1.77-15.09a65.79,65.79,0,0,0,3-6.52c.54-1.09-.37-1,.62-2-.54-3.88.46-1,1.4-3.64-.85-2.3,1.29-6.27.45-8.76.82-.28,2.15-12.73,1.64-14.12,3.07-5.49.85-12.88,4.09-17.32a31.07,31.07,0,0,1-.08-4c1.17-4.79,1.8-3.77.05-8.65-1.39.52-1.43,4.06-1.18,5.43.79-.3,1.08.69,1.33,1.3-1.88.7-2,3-1.44,4.6-.87.32-.1-.43-.94-.13-.22-.56.43-2.11.19-3.22-1.49.56-2.44,10.33-3.17,12.28-1.08,2.88-3.89,10.5-3,13-2.08.76-3.38,18.74-3.2,21,3.61-1.3,1.25,8.61-.31,9.18-1.16-3.33.59-5.09,0-8.65-2.08,1.51-1.11,4.91-2.46,6.76,1.4,4-3.91.66-1.34,5-.08,0-.64,3.85-.67,4.56-.18,3.78,1.73,4.11-2.4,5.59.08,3.71-.64,7,.48,10.19-1.52.56.89,1.51-1.81,2.46-.12,2.68-.52,5.37-.46,8.09,0,1.09-.61,5.86-.38,5.77.91,2.65-1.18,6.32-1.12,9.47a2.27,2.27,0,0,1,2-.73,8,8,0,0,1-.94,4.86c-.44-1.26.34-2.69-1.8-2.52.21,8.26-4.29,16-3.53,23.85-1.23,1.32-3.15,11.22-2.64,12.68-.88.32-2.23,11.8-3.26,13.84-3.4,6.66-1.8,14.32-5.75,19.68.09,3.8-1.66,9.63-3.27,13.34-.56,1.25-3.52,2.66-4.08,1-3.23,1.16-1.89-2.79-5.57-.72-.49-1.89,1.52-5.77,1.34-6.34,3-1.11,1.52-1.34,3.45-3.95,0-3.11-2.25-5.05-.32-8.35,1.16-2,1.16-4,2.61-6.47-.65-1.9.33-8.92,2-10.67-.83-2.37,1.65-12.44,3.5-15.27-.6-1.68.47-6.58,1.68-7.82-.37-1,2.09-13,2.83-13.24-.47-1.47,2.23-15.71,2.85-15.93.45-2.44-1.49-1,2-3-.18-1.16-1.08-2.26-1.14-3.23-.13,0,.3-5.44.37-6.46,1.22-.08,1.26-.14,1.75,1.19,1.58-.58,2.34-8.2,2.28-9.86-1.11-2-1.33-6.31-.05-2.7,1.07-.39.81-5,.76-6.6-1.7.6-1.43-1.31-1.39-2.66,1.54,0,1.75,1.21,1.51,1.54,2.08-2.11,6.89-44,7-46.62s2.64-6.48,1.66-9.16c1.79-2.46.57-6,2.57-9.05,0-.47.74-7.51,1.27-7.71-.07-4,4.54-9.77,3.26-13.36-.19.07,1.86-13.6,3.24-4.76,2.41-1.69,3.63-10,3-12.83-1.21.42-.4,2.67-2.47,1.81a19.81,19.81,0,0,1,.68-4.31c-1.28.25,1.15-11.33,1.05-12.13,1.37-.48,2.52-9.07,1.86-10.41-1.17-2.4.21-6.77,2.6-8.39a9.9,9.9,0,0,1,.08,2.72c3.39-1.24,1-13,3.05-15.15,0-3.39,1.21-6.69.34-9.14.67-.24.76-7.5.6-8.35.92-1.25,1.15-6,1.08-7.63-.39-7.66,1.15-14.92-1-23.57.63-.24.59-10.62.67-12.57,0-3.38-.89-2.69-.49-5.56s-1.29-.67-1.8-3.92c2.18-.75,1.06,1,3.21.24-.5-1.32-5-7.72-3.35-8.28-.77-2.15.51-12.17-5.44-11.63.33,2,1.53,3.23-.16,4.57-1.86-5.2-5.43-6.28-6.78-11.59a4.9,4.9,0,0,1,1.73-.19c-1.23-3.51-2.43-10.62-6-8.21-2.48-7-7.85-3.8-12.18-7L425,10.38C424.26,8.43,414.78-.91,412,.07c3.22,5.74,9.23,6,11.41,12.19,1.16-.41,8.06,9.11,8.57,10.51,2.95,2.81,5.08,1.85,6.5,5.81-.17,0,2.34,4.12,2.62,4.92,1.24,3.52,3.73,4.29,4.81,7.32.83-.29,7.82,22.51,5.58,23.3,2.68,7.66-1.58,15.68,1.05,23.13-.22.1-2.1,10.55-2,12,2-.73-1.39,13.58-1.11,14.39-1,.38-.15,7.12.18,8.06-1.5,1.63,1.9,3.46,0,6.35.47,3.25-.38,6.56.75,9.65a19.55,19.55,0,0,0-3,12.82c-1.09,1.17-.61,5.23-2.8,6,.27,2.41-1.45,4.56-.76,6.61-1.34,4-4,6.18-3.34,10.67-2.58,2.74-1.37,10.11-3.1,13.76-1.2,2.57-3,7.92-2.29,9.87-.11.05,1.19,5.44-1.32,6.34.08,2.68-3,7.35-1.63,9.19-2.48.87-.44,7-2.16,8.9.05,3.59-.86,12.66-3.64,14.85.82,1.1,1.1,1.28,0,2.09-2.26,1.63.59,3.13-.76,4.52.07,3.16-.19,7.76-2.33,8.52.19.52.3,1.71-.2,1.88,2.47,2.65-1.56,5.65-2.32,3.54.89-.34.94-6.79.42-8.16-.65-1.63.31-4.6,1.78-5.73-.77-2.25-1.46-6.16,2-5.69-.48-1.38,1.33-1.07.58-3.38-.74.26-.71-3.33-1-4.17,1.43-1.5,0-3,1.57-5.52-.86-2.5,3.81-13.3,2.83-15.68a.94.94,0,0,0-.16-.3.84.84,0,0,1,.16.3,1.43,1.43,0,0,1,.27.57c2.08-1.59,4.39-14.07,3.46-16.61,2.11-2.25.84-8.47,3-11.48-.66-1.89,0-7.67,1.27-9-.38-2.42.66-3.49.64-5.65-.47-.15-.44-.29-.91-.12.77.94.63,1.43-.38,1.5-1.17-3.34,2-9.32,4.21-11.9.52-2,2.11-5.45,1.6-6.88,1.34-.51,2.58-3.41,2.35-5.12-.4-2.5,1.81-2,3.12-3.2-2.58-4.42,1.08-7.84.52-12.36-2.45.86-1.36-7.55-1.92-9.27,2-.7-.69-7.89.6-8.35-1.55-4.38.69-9.3-.73-13.31,1.81-2.75,0-6.86,1.81-8.76-.35-5.82-.73-5.7-2.68-11.26,1-.34-.11-12.12-.59-14.23-1.76.63.54,2.05-.85,2.56-1.86-2.38-1.31-3.78,1.6-4.23-2.08-1.74-2.21-3-.48-3.86-.3-.87.71-3-.09-5.4a18.28,18.28,0,0,1-4.21-8c.84-.25,1.24.36,2.29.12-.75-1.12-1.28-1.45-2-.64-2.14-6-4.88-11.09-7.2-15.95-1.08-2.36-3.65-3.16-5.95-3.76-.77-2.08-4.52-3.46-6.26-5.69-2.37-3.06-12.86-15.51-17.12-14,1,2.86,5,3.29,6.5,5.82,1-.36,2.66,3.2,3.28,4.23-4.56.43-7.08-7.84-11.16-6.42a10.54,10.54,0,0,0-6.38-1.75c-2.24-1.31-4.62-2.66-7.1-2.45.54,1.52,7.38,4.38,9.89,4.16,1.18,3.33,11.61,6.22,3.29,9.21-.24-.67-10-1.29-11-2.37-4.56,2.41-9.52.69-14.23,2.39-.43-1.16-13.6,1.7-15.19,2.28.81,2.28,3.76,1.85-.52,3.6-3.71,1.52-8,1.87-11.49,3.85,1.12,3.17-9.52,5.59-12,6.47s-16.95,10.71-16.55,11.88c-2.18.79-17.11,9.37-16.68,10.49-1.91,1.25-7.42,5.21-7.65,7.25-3.26,1.19-5.82,6.16-9,7.3.36.27.5.16.66.66,3.93-1.41,8-10.07,11.35-6.78-1.18.41-5.44,5.89-5.42,6a7.49,7.49,0,0,0-4.12,4.64c-1.09.4-4.46,2.33-4.59,3.44-1.7.63-6.32,5.84-6.56,7.75-2.43.92-8.45,6.35-8.77,9-2.89,1-4,5.93-6.86,7,.84.82-5,9.91-6.9,10.63.35.94-5.38,8.69-6.52,9.1-1.65,4.86-5.8,6.3-4.76,11.62-2.6.29-1.33,2.3-3.38,3,.68,1.93-5.05,5.37-5,8.56,3-.19,6.54-6.17,7.49-9,3.19-1.17,4.27-7.72,7.57-9.94,2-6.08,7.95-11.84,12.6-15.83.71,2-4.9,9.73-7.39,12.06-1.35,1.26-8.14,9.34-7.57,10.92a23.83,23.83,0,0,0,2.62-1.36c.54,1.55-2.89,5-4.23,5.58a5.2,5.2,0,0,1,.47-2.44c-3.31,1.19-2.83,6.42-5.8,7.47.19.53,1.41.58,2,.66.27,2.47-1.33,3.25-2.7,5.28-1.86,2.78-1.72,8.64-5.26,11.13.85,2.44-5.72,11.39-6.55,14.08,1.08-.36.74-.82,1.67-1.5.14,1.34-1.06,5.79-2.17,2.61-1.43.5-1.07,2.78-2.17,3.93.78,2.16-.56,4.47-2.24,6.22.92,2.58-3,4.34-2.2,7.55,1.47-.93.32-1.89,1.79-2.43.46,1.25-1.79,6.52-2.91,6.91a2.21,2.21,0,0,1,.48-2.43c-3,1.09,1.24,4.06-.9,4.85-.82-2.27-.34-.79-1.1-.53,1,2.79-2.65,3.79-1.84,6.1-2,2.82-2.57,5.75-4.37,9-.9,1.62-4.85,12.36-4.16,12.11-1,3.68-3.4,7.64-3,11.5,1.39-.54.13-2.78,1.52-3.27.76,2.23-2,14.06-4.82,15.29-.45-1.32.43-2.65.68-4.33-2.74,1-5.19,16.91-4.81,20.25a11.29,11.29,0,0,0-3.1,10.16c-.42,5.82-5.47,9.77-4.13,15.94,2.2-.79.67-6.13,2.1-6.62,1.4,4,1.35,8.85,2.52,12.18,2.38-1.87-1.49-3.61,2.19-3.94-1.66-2.16-1.21-.22-1.28-.27-1.15-1.15.5-2.48,1.45-3a6.17,6.17,0,0,1,.19,8.07c2.08,3.55.52,6.48,1.68,9.8-1.89,2,.72,11.48-.63,12-2-5.59-7.52,7.61-10.91-2-.17-.08-2.16-2.84-1.13-3.19-.74-3.6-3.9-6.05-3.31-10.6-2.28.85-1.88.95-3.5-2.34,3-1.07-4.16-3.92-.14-5.38.9,2.45.59,3.84,3.66,2.75.89,2.4.89,4.75,1.23,7.24,2.8-1,.65-18.74.55-22.35-.46.17-1.2,5.37-1.48,4.6-2.62,2.1-1-2.52-3.84.47-1.53-3.38-2.14.83-3.38,1.68-.88-1.8-10.86-6.64-10.71-3.88-1,.85.28,12.88-4,8.7-3.08,2-4.1,1.93-7.62,2.28.22.73,1,1,1.49,1.72-3.55,1.27-2.89-8.91-7.46-7.28-1-1.43,4.17-3.67-.79-4.78a2.92,2.92,0,0,0-3.5,2.69c-1.73,1.18-.88,1.47-2.9,2.08-1.54.43-2.14,1.53-1.85,3.26-2-.86-2.91-.54-2.78,1-2.15,1.74-6.25.07-9,.92,1,2.79-2,3.91-4.15,4.65,3.76,8-1.16,1.36-2.09,4.82-1,3.72-6.31.84-6.18,3.13a2.79,2.79,0,0,1,2.69,1.29c-3.46,1.23-2.11,6.15-5.34,7.18-2.31.78,3,3.33-2.45,2.09-3-.66-5.66-.75-4.12,3.59-1.13.12-2.26.23-3.42.33.65,1.88-3.3,4.87.6,4.52,4.29-.35,6.4-1.33,2.66,3-2.59,3-3.31,1-5.69,1.92-1-.95-2.91-2-2.09.29-1.28,1.55-1.8.84-3.88.58-3-.38-1.66,1.58-1.89,3.27-2.72-.71-2.17-.12-5.42-.31-4.33,1.56-3.09,3.18,1.31,4.95.17,2.84,1.12,2.72,2.54,5.89-1.72.59-2.46-.42-3.35-2-2.2.33-4-.36-6.09.38,1.34,4,4.56,5,6,8.23-4.14,2.31-2.88,3.25-4,.07-2.26.81-1.67-1.41-1.53-3.06-3.86.92-5.3.51-8.42,1.2.61,1.78,1.9,2.15.21,4.43,2.11,1.85,2.12.75,2.9,4.39-2.62.95-5.87-1.51-8,.12,1.48,1.46,2.21.4,3.5,2.41-1.52-.09-1.94.37-1.29,1.33-2.13-1.05-4.11-.32-6.46.5,1.69,2.57,11.07,3.29,5,5.46-.18-.55-8.61-1.47-8.91-1.34a4.1,4.1,0,0,1,1,1.45,47.76,47.76,0,0,1-5.52,2c.61,1.64,3.58,1.45.08,2.68.9,2.62,5.45,5.29,6.72,8.91-.63.21-.86-.25-1.5-.38.4,1.1-2,8.73-2.54,10.4-1,1.75-2,3.06-2.15,5.13-.11,1.58-1.52,6.46-2.33,7.3.13,5.64-2.06,10.16-1.34,16.33,6.06-2.18-.36-16.9,4.69-20.67,2.46,3.48,1.37,18.34-2,20.61,1.34,2.25,2.43,16.31-.51,17.36-1.06-3.9,1.26-5.85-2.67-6.28,1.33,3.75-1.91,7.13-.53,11-.38.15-2,11.92-1.55,13.21-1,6.26-4.32,12.11-7.46,17.8-2.79,5.07-.36,15.53-3.88,19.26.54,1.54-.82,8-2,9.31.35,3.95-2.61,8.41-4.11,12.32-2.77,1-3.52,7.59-6.28,8.56-.41,3.34-5.06,6.82-6.78,9.66.72,2.11-9.14,11.39-11.25,12.15C9,555.42-.14,554,0,561.06c1.27-.48,1.69-.23,2.56.89C.11,562.83,2,563.88,2.75,565Zm429-467.62c-.41-2.16-1.91-23.26,0-23.94-1.43-4,.24-6.82-1.05-10.47,2.91-3.08-3.94-9.81,1.54-11.85-.06-.12-.15-.26-.23-.41-1.49-1.78-4.87-1.71-2.51-5a45.39,45.39,0,0,0,2.51,5c.08.15.2.24.28.39l-.05,0a12.31,12.31,0,0,0,2.36,3.09c.53.4.77,5,1.46,6.37-1.43.53,1.05,11.37-.23,11.86.7,2,1.61,10.4-.12,12.23.79,2.26,1.34,13.53-1.54,14.55-1.86-5.31,1.06-10.29-.33-16.12C431.79,83.82,434.53,95.35,431.7,97.41ZM394.63,79.07c-2.82,3,1.81,9.37-2,12-1.45-4.13,1-8.32-.27-12.1.59-.24.53-8.49.17-9.56,1.06-.37-.43-5.73.5-7.39C396.82,66.71,393,74.48,394.63,79.07ZM420,178.45c-1.33-6.08,3.32-12,1.6-16.82.25-2.75,1.47-8.56,3.17-10.57,3-3.48-.49-1.26-.69-4.65-.1-2,1.63-.79,2.3-1.41-1.06-3-1.85-2.65.39-6.49-.32-.8,1.48-7.29,2.2-7.54.35,1,.26-.5.8,1.05,2.28,2.44,1.42,5.27,1.22,9.06,0,1-1.08,7.15-1.2,7.2.47,1.44-.42,11.8-4.29,10.6.87,2.4,1.26,2.13-.2,3.23a9.3,9.3,0,0,1-3.08,8.77C423.63,173.33,422.86,176.58,420,178.45ZM617.51,315.63c.54-.34,2.49-1.78,2.36-2.2,1-.36,4-.64,4.85-1.26.18-1.48,12.48-7.95,14.27-7.38,1.15,3.3-3.21,1.55-1.6,5.56-1.13.88-3.51,2.62-3,4.19,0,.13-4.37,4.3-1.91,3.4,2.2,1.85.89,3.68.58,6.6-.8.47-6.7,6.16-7.29,4.42-4.18,1.47-4.06-5.83-9-2.89C608.52,330.94,617.5,315.53,617.51,315.63Zm-372.8,29.95c1.27-1.1,2.1-.63,3.59-1.28,2,5.95,7.44,11.37,11.2,16.74,3-.21,4.94,8.19,5.89,7.86,1.93,5.47,5.59,8.94,7.76,14.41-5.47,1.93-2.9-5.72-7.32-5.54,1,1.78,8,16.59,5.73,17.4-2.39-6.7-6.63-10-8.72-15.86-1.07.39-2.7-5.36-3.56-5.05-2.47-4.21-1-4-2.07-8.3-3.55,3.16-7-6.94-8.3-9.62C247.26,352.84,246,349.21,244.71,345.58ZM384,99.14c2,.51,1.73,8.09,1.64,9.78-1.16-.14-1.34-.48-1.87-1.57.36-.27.7-.57,1.05-.84-4-4-.89-8.92-1.78-13.8.78-.86,1.24-5.64,1.12-7.1-.33-4.32,4.21.68,1.79,1.53C387.15,90.59,386.19,95.94,384,99.14Zm25.65,130.44c-2.42-6.82,6.14-16.48,4-22.64,1-1.59,1.91-4.66,1.33-6.34,1.9-.69,2.86-8.07,3.3-10.67h0c-3.81,1.35-.36,3.8-2.51,5.43-.66-1.85-.43-6.62,2.09-6.66a7,7,0,0,1,.42,1.23l0,0,0,0c1.22,4.53,1.05,14.7-3.1,15.08C417.36,205.74,412,228.43,409.64,229.58ZM391.47,388c1.68-.58,1.21-1.09,1.24-4.06,2.66-.89,2.67-3.65,3.47-4a8.81,8.81,0,0,1,1.31-6.35c0-2.58.75-1.21.16-4.57.52-1.91,2.8-.83,1.9-3.38,1-.36,1.23-7.85.83-8.89,1.18-1.2.39-2.89.19-4.58,1.22-.43-1-1.46.23-1.9.91-3,1.6-.58,3.15-1.11-.66-1.44-1.31-2.85-2-4.28,4.55-.64-1.21-6.43,3-6.49a6.35,6.35,0,0,1-.33-2.15,5.24,5.24,0,0,0,1.74-.15c-.39-1.1,0-3.7.76-1.66,2.32-3.54,1.35-7.51,0-11.28.8-.28,1.66.6,2.25.07-1.53-4.35,1.74-7.4.25-11.85,3.25-1.13,2.12-9.7,4.56-9.74-.89,7.36-2.87,14.49-2.15,21.56-2.11,1.68-.46,5.76-2,8,.06,3.8-.25,7.26-2.12,10.26.57,3.24-2.21,6.41-1.29,9-1.47.53-1.37,6.58-2.46,8.13.19,1.94-.9,8.09-2,9.33.47,1.39-1.9,8-2.85,9.58.47,4.42-3.67,8-3.3,12-.56.62-.84,2.42-1.2,3.56-.91,3.18-2.32,2.37-2.57-.4C389,393.83,391.73,388.66,391.47,388ZM274.83,353.58c-1.13-2.36-2.79-1.94-4.07-4.66-5.13.72-11.13-16.46-12.7-20.79-2,.72-3.64-13-4.29-14.71,1.53-.56-5.25-14.4-5.9-14.16-1.41-4-4-18.26-7.61-20.34.57,2.14,2.48,5,.56,6.59-.72-2.07-1.62-4.95-4-4.91,1.46,2.23,6.73,16.59,5.46,17.93-.2,3.29,4.41,4.25,2.15,7.37l2.12,6c-1.3.48,11.83,26,12.43,27.64.42-.16,11.82,19.71,12.71,22.12,1.09-.39,4.8,7.42,5.19,8.52,2.68-.95-.13,6-1.69,1.49-.33.14-2.24-4.15-3.88-3.55-.65-2.25-.78-2.12-1.72-4.81-1.39.49-2.56,3.65-4.19-1.23-.95-2.67-3-3.93-3.8-6.3-1.91.68-4.29-12.69-8-12.52.77,2.58,1.54,5.18,2.28,7.77-1.92.69-5.85-9.73-5.81-11.47a14.69,14.69,0,0,1,2.82,1.68,81.83,81.83,0,0,0-7.5-14.93c-.09,0-7.22-25.19-8.17-26.89-2.4.87-7.89-23.51-9.46-25.53.44-.16-1.67-8.3-1.76-9.3-.35-4-2-3.68-3.36-6.51a25.62,25.62,0,0,0-.4-4.83c-1.7.61.43,12.51,1,14.1-3.11,3.29,1.36,14,2.94,18.38-.94.35,2.11,12.23-2.13.3-.42-1.28-3.12-8.36-1.77-8.85-.06-2.07-1.51-3.16-2.53-4.75s-.85-4.7-1.1-6.59c-.41-3-.89-6-1.33-9,2.11-.78,1.75-2.49,1.21-4,.12,0-.23-3.55,1.1-4.46,0,.13,5.21-2.42,1.44-3.88-.5-.19,1.26-10,1-11.23-.45-1.94.3-8.49,2.32-9.18.57-2.36,1.25-6.06,2.81-8.27-.89-2.65,2.52-5.24,1.44-8s.66-2.46,2.7-3c.36-1.31.47-4.55,2.54-4.09a4.87,4.87,0,0,1,2.77-6c-1.18-3.36,2.5-4.59,1.49-5.91,2.94-1.65,2-7.07,5.1-8.16-.51-1.46,4.09-7.58,5.2-9.1-1-2.79,2.54-4.52,4-5.06-.35-2.34,4.06-8.68,1.28-7.71-.85-2.26,1.64-3.74,2.36-.83,1.79.42,2.9-.63,2.83-3.25,2.1-.75,1.41-3.69,3.74-4.51.95-2.84-.65-6.25,1.65-7.83a6.1,6.1,0,0,0,1,2.8c2.5-3.55,5.06-7.12,7.56-10.65,1.65-2.34,1.17-4.34,3.26-5.85,2.55-1.85.8-2.61-.08-4.51,1.64-1.1,2.83-1.39,3.05,1.13,2.7-1.54,1.85-2.67.72-4.28,1.16-.25,1.56-.61,2,.62,2.16-3.62,5.54-5.78,7-10.2.9-.7,5.5-6.42,6.61-7-.53-.43,1.59-4.77,1.59-5-1.83.66-6.24,6.15-5.95,7.09-2.74,1-8,15.54-11.25,10.84,2.09-.77,2.95-6.5,5.39-7.4,0,.16,3.5-11.35,5.26-6.37,1.59-.59,3.1-4.8,4.14-6a18.29,18.29,0,0,0,3.13-6.06c1.92-.13,1.6.86,1.59,2.6s3.66,1.74,1.5-1.43c2.39-2.31,3.74-4.87,7.12-6.18.64,1.75-3.37,3-3.58,4.9,1.29-.94,1.93-.38,1.92,1.59.59-.23,6.12-2.71,5.69-3.86,2.33-1.55,13.61-9.22,12.88-11.36.68-.27,9.49-3.28,9-4.62.66-.08.67-.48.11-1.21-.84-2,5.17-2.92,6.29-3.33.26.81,4-3.47,4.29-4.14,0,0,0,0,0-.08s.07,0,0,.08c.82,2.15,2.14.19,4.08.23a2.52,2.52,0,0,1-.62,2c1.87-.71,14.83-3.27,14.78-3.47,2.93-1.07,6,.11,8.56-.85.09.31,3.46,1.25,4.14,1.7,2.21,1.48,2.68,7.63,3.1,7.48,1,2.73.88,7.09-.71,9.32.93,2.62-.38.13.06,2.12.24,1.19,1,1.39,1.77,3.08-.9.32-2,7.74-1.08,10.77,2.6-.91.32-4.78,2.22-6.2,1.1,3,1.83,8.54-2,8,2.53,7.17-1.14,17,1.33,23.92-1.51.53-.71,11.21-2.47,13.09.56,5.77-4.14,11.27-3.56,17.56,2.74-1,.42-5.43,2.62-7.73-.59-1.58,1.88-10,3-11.48-.39-1,1.2-7.67,1.66-7.82-1.11-3.09,2.06-7.65.8-11.6,6.21-.53-4.95,32-3.93,36.66,2.27-1.55.59-5.6,2.57-7.71-.3-.94,1.56-5.72,1.83-7.44,1.14,0,2.14.07,2.05-1.56-.13-1.33.83-5.38.57-6.13,2.48-.9-.36-6.7,1.9-8.4.63,1.76,2.18,1.5,1.69,3.5,2.38-.88-.19-.41,2.23-1.24.06,3.79-1.46,9.72-.53,12.38-4.67,1.67.6,14.18-3.06,16.44,1.52,6.39,2,14.93-.62,20.85-.94,2.08-3.08,4.84-2.13,7.17.46,1-.7,6.66-1.31,6.88.3,1-.52,6.06-.95,6.22.09,3.72-1.55,7-1.44,10.91-1.81,2.48-2.84,9.5-2.77,12.29-1.5,1.61-3.09,7.62-2.29,9.87-.31.52-2.95,6.72-3.31,5.69a6.08,6.08,0,0,0-.45,3.78c1.43-.52.27,13.29.46,13.85-1.58,2.16-3.5,10.19-2.77,12.27-1.57,1.65.46,4.25-1,5.82.73,2.1-1.07,2,0,5-.65.21-.29,2.55-.17,3.23-1.73,1.8-.2,6.52-1.94,8.38.13,5.52-3.36,9.21-2.85,14.55-.75.28-2,9.38-1.59,10.52-2.11.76-1.85,12.44-3.65,14.87.8,2.23-1.28,5.18-1.93,7.51-1,3.48-2,.77-.93,5.73-2,.62-2.12,1.86-.44,3.77a6.71,6.71,0,0,0-2.18,2.57c.93,2.63-2.73,10.14-4.77,11.65,1.37,3.87-4.66,9.42-3.54,12.58-1.32,2.57-2.57,8.84-5.32,10-1.48-1.48-6.92-5.48-2.72-7.63.67,1.43,1.32,2.85,2,4.27.9-.34.55-.68,2.86-1.93-.45-1.29-2.45-2.55-3.68-4.09,2.74-2.17,1.36-9.42-.24-4.44-1.28.45-1.71,5.46-3.42,6.61l-1.4-4c2-1.22,1.7-3.14.52-4.7-3.65,2.42-5.65,5.27-7.79-.8-1.26.43-1.67-1.21-2.56-.9-2-3.91-2.52-4.19-6.57-3.54,1.4,3.14,3.61,4.35,5.45,6.64,3-1.07,3.34,8.5,3.54,10.39.9,8.95-1.95-.12-4.48.79-3.07-3-6.32-4.11-7.59-7.69-.92.33-.62-4.16-.36-4.57.6-1-2.06-1-2.53-1.16-1-.92-3.25-6-4.13-5.6-1.57.69-4.57-5.23-5-6.48-2.61-.69-7.44-11.82-9.68-11a13,13,0,0,0,2.59,3.57c-.46.19-.58.51-1,.84-2.1-2.94-4.66-5.6-5.64-8.37-1.63-.22-4-3.73-4.51-5.21-2.69,1-8.81-18.36-9.28-19.47-1.81-3.88-.68-6.68-2.77-11,.94-.33-3.4-10.78-3.89-12.17-.58.23-9.31-25.11-11.28-24.42.09.26,3.32,10.7.25,5.46-1.62-2.84-1.64-10.42-5.51-10.35.6,1.74.71,3.55,1.44,5.38-2,0-1.57-2-3.15-3.86-1.22,1.83.64,3.38.65,5.62-2.69-.83-2-5.4-3.16-6.52-4.1,4.31,13.06,36,8.41,37.66,2.36,4.76,2.85,11.82,5.27,16.85a94.18,94.18,0,0,1,4.07,11c1.5-.51,6.08,15.48,9.1,14.38-1.7-4.78-2.2-6.83-4.21-10.69.73-.26,3.63,4,4,4.91,2.65.7,1.6,2.8,4,4,1.4.78,5.24.72,1.42,2.65a7.28,7.28,0,0,0,1.48,1.75c1.88-2.09,2.64-.69,1-4.24-1.19-2.63-2.63-5.13-4-7.64-2.56-4.53-5.65-9.52-5.56-14.89,2.54.81,4.66,6.71,4.87,8.65.31-.12,4,6.4,4.27,7.08-.3.07,9.7,12.76,6.67,13.85.79,2.34,5.79,5.16,6.78,8,2.63-.95,1.71,8.14,1.91,8.57,1.41,3,3.25,3.82,4.27,7.73-4.17,1.5-6.37-9.91-9.72-8.72.69,2,.6.63,2.07,3.33-4.83,1.74-16.37-20.1-18.41-23.24-3,2.12,5.51,10.49,6.09,12.29-.62.24,9.68,16.14,8.36,17.32-.57-1-2.86-4.38-3.92-4.87.62,1.79-.55-.22.3,2.13-2.65.25-5.16-7.2-6-6.89C278.33,355.3,276,356,274.83,353.58Zm61.72,263.28c-.71-2,3.53-7.35,4.12-9.63,1.63-2.09,4.81-4,3.54-7.59,1.75-1.86,1.55-5.45,4.49-7.45,0,.44.17.5.54.26a4.41,4.41,0,0,1-.23,1.87c3.87-1.39-.81-1.36.79-5.26.25.7,1.29-3.36,1.5-4.06,1.11-3.41,4.51-1.9,6.94-2.13.76,2.07-3.38,12.06-5.22,12.75-.85,2.72-5.61,13.32-7.76,8.11-.13,1.71-2.85,9.23-3,9.61-1,3.85-3.26,8.55-6.22,10.93C334.93,621.11,334.22,621.07,336.55,616.86Zm-20.68,50.79c-.74-2.21.63-3.74,2.13-5.29.15.43,2-5.68,3.19-6.1.29-1,4.61-10.79,4.76-5.32-1.86,1.34-4,7.65-4.87,9.82C319.54,664.33,319.28,665.72,315.87,667.65Zm-6-6.9c1.6-4,3.11-8.76,7.41-10.34,2.6,4.5-1,4.51.09,7.66.64-.25-.6,3.28-.61,3.36C314.21,662.38,311.25,664.63,309.89,660.75ZM181.8,617.1c-2.3-6.42-.12-12.81-2.32-19.06,0-1.45,1.27-1.43,1.12-3.1-1.31.47-1.55-3.56-1.58-4-.65-3.83-.24-7.47-1.25-10.4.33-.11-.64-6.78-1-7.79,2-.71-3.17-10.15-3.42-11,.93-.33-.07-15.28-.12-16.69,6.48,2.33.08-10.87.14-10.89-.12-4.52,1.54-7.51,1.43-12.27.53,0,.85.18,1.36,0,.22,2-.58,3.28.07,5.39.91-.32,1.16-7.67,1.14-9.46-1.16.42-.42,1.5-1.82,2.45,0-.43-.18-.54-.55-.25,0-2.23,1-4.71.43-6.47.93-1,.37-1.13.45-2.42,2.38-.36,2.05-.08,3-2.41,1.11-2.86-.65-4.67,1.19-7.2-.51-1.5.66-4.84.67-7,2.19-2.34.67-6.46,1.75-8.76,1.53-3.25,1.17-9.36,3.17-12.11,1.69-2.28,4.39-7.87,4.35-10.8-.05-4.59,7.09-12.36,5.6-16.58,4.36-7.57,4.22-15.47,6.58-24.06-2.77,1-5.83,16.35-5.65,19.19-2.52.9-3.53,11.19-5.72,14.21s-1.64,10.73-5.43,13.28c-1.88-8,4.43-16.37,1.82-23.69,1-.37.29-4.11.83-5.28s1.86-3,2.18-3.93c-.37-2.61,1.28-2.64.53-4.72,1.56-.55-1.13-2.35-1.12-3.19,2.23-3.7,1.49-9,1-12.13.19-.07-2.71-9.89-1.43-10.33-.47-4.53.77-9,.08-13.59.7-.27,1.2-5.44,1.25-6.68.13-1.74,1.11-6.36,2.42-6.83.59,2.18,1.25,4.36,1.87,6.55.35-.13-.33-16-.81-17.33-.6.21,1.76-7.56,2-7,2.88-1.06.49-5.16,2.4-5.84-1.13-3-.43-3.18,2.41-4.46,1,3,.22,2.58,2.16,3,1.26.27.67,3.08.94,4.31.69,2.84,1.34,5.63,2,8.44.43-.14,1.92,1.72,2.18,2.38.33-.09,3.52,11.28,4.41,13.81-1,.36-2.94-2.33-5.06-1.84.9,2.56,1.77.84,2.85,3.08-.48,1.12.59,4.17.79,5.31.48,2.58,1.66,1.28,2.51,3.45.72,1.73,1,6.06,2.8,3.51a123.66,123.66,0,0,1,5.72,12.42c-2-.27-4.42-6.13-5.08-8.12-2,1.33,7.3,18.15,8.45,21.38,2-.74,6.09,20.42,9.43,19.21-.79-2.27-2-3.19-2.16-6-.2-3.35,1.68-1.34.44-4.51-1.55-4-2.83-6.16-4.31-10.41-2.81-7.93-7.21-15.64-11.58-25.23,4-1.42,6,11.75,9.15,13.44-3.06-8.75-6.26-17.14-9.88-25-1.37-2.95-1.12-3.79-2.52-7.7-3.27.08-4.56-4.38-1-5.48-1.4-2.37-1.38-3.71-4.34-4.79-1.24-1.2-1.05-3.36-1.34-4.94,1.48-.26,3.31.64,3.74.48a62.76,62.76,0,0,1-2.8-11.66c-.83.53,3.5-2.37,3-1.53,2.73-1.8-2.21-8.22-.08-9-.53-1.54-1.63-8.88-.19-9.39-.87-2.47-1-12.87,1.87-4.73,2.81-1-.09-12-.36-14.26-1.15-9.16,3.66.44,1.9,1,2.23,6.29,2.59,13.63,4.69,19.59-1.71,1.83.7,9.31,1.21,12.21,2.8.45,4.66,8.74,3.27,9.23,3,6.85,3.79,13,8.25,18.27,4.39-3.84,2.28,6.42,5,5.44-1.65-4.69-.41-3.35,3.08-3.81-1.45-4.23-4.63-7.15-6.29-10.7-1.19-2.53-1.72-4-3.67-5.39-1.67-1.16-.25-4.09.14-3,4.7.32,7.44,13.58,10.61,12.47-.53-1-1.3-1.54-1.79-2.53,5.73-2.06,7,11.5,8.31,11,1.84,2.79,15.25,20.76,10.6,22.44,1.06,2.95,4.43,3.38,0,5,1.81,5.06,6.61,8.69,7.49,13.55,1.38-.46.26-1.95,2.29-.67,1.19.76,3.23,5.49,3.75,5.32,1.24,1.59,3.41,6,1.11,6.83-1.41-2.59-3.73-4.5-4.84-7.32-2.14,1.5.26,4-.09,5.92-2.3.82-2.33-6.39-5.43-5.31,1.88,4.54,4.57,9.75,7,14.7-4.35,1.55-1.16,6.8.41,11.17-2.05.71-4.61-5.51-4.68-6.64-.13-2-6.92-13.88-7.69-7.81-.8,6.38,6.21,8.35,7.82,12.91.62-.24,10.86,15.65,11.38,17.17,1.45-.53,11.56,11.81,4.2,15.65-1-2.81-3.51-4.34-5-6.78a2,2,0,0,1-2.51.45c-.16-.37-4.3-6.13-5.55-5.68-.73-1.95-2.53-4.54-3.22-6.56.26-.06-5.86-6.88-6.29-7.68,3.74-1.35-2.09-5.59-3.13-5.2.64,1.82,2.67,2.95-.33,4.17.43,1.08,8.23,18.29,9.83,17.74.22.65,4.09,7.55,4.41,7.43,1.07,3,3.27,8.23,5.7,11.08,1.51-.2,3,.73.55,1.61,1.28,3.58.18,1.76-.54,4.73-2.38.86-1.36-.61-3.85-.88,1,2.92,4,3.3,1.85,6.55-1.41,2.18-1.1,4-2.49,6.08-.42.62-1.54,3.5-1.68,3.54,1,2.74-4.81,6.25-4.13,9.63,3,0,1.89-1.49,2.57,2.62.28,1.81-.71,2.37-2.3,3.16.18,2,1.83,3.53,1.07,5.15-.64,1.3-9.3,14.09-7,15,1,.37-5.1,12-7,13.39,0,1.71-3.6,6.23-3.31,7.06-1.49,2-.61,2.47-3.24,3.41.78,2.27.91,3.57-1.48,4.61a2.42,2.42,0,0,1-.61,2.62c-1.54,1.56-1.1,2.18-.79,4.67a9.05,9.05,0,0,0-3.2,6.1c-1,.34-2.9,4.48-2.74,5.94,4.94.65.27,3.32,1.14,5.91-1.09,2.86-2.87,3-1.33,6.73,2.54,6.21,2.54-2.19,1.36-1.75-.23-3.32,5.24-2.67,4.7-8-.13.17,2.86-5.11,1.5-4.62-.46-1.26,1.51-.75,1.5-.4.21-2-.29-1,1.14-3.13,1.69-2.52-.47-7.83,1.74-8.31,2.49-.54,2.7-.38,2.78-2.79.17-3.81,3.26-6.71,5.45-10.07,1.43-2.25,6.83-10.88,6.67-13-.19-2.36.69-4.49,1.37-6.71,1.55-.57,2.33-6.14,3.72-8,.81-1.07,1.27-6,3.47-3.17a13.57,13.57,0,0,1,3.48,2.73c1.86,3.28-4.7,11.17-6.75,14.18-1.66,2.4-7,10.47-6.26,12.72a17,17,0,0,0-3.41,6.65,49.92,49.92,0,0,0-5.13,6.79c.32,2-1.66,9.09-3.29,9.87-3.95,2-3.46,8.3-6.15,11.13.14.45-4.74,10.76-5.06,10.87.28.23-4,13.65-6,14.34.09,3.28-4.84,11.68-7.1,12.48.44,1.33-2.12,3.12-2.56,4.12-1.09,2.35-.08,4.14-1.54,6.73-.43.83-2.75,2.51-2.62,2.87-1.33.45-3.41,7.76-5,5.52-1.2-1.75,2.11-4.55,1.89-6.69,3.06-2.83,0-4.19,1.59-5.55,1-.82,1.32.87,2.27.13-.19-.58-.09-2.06.54-2.38,2.38-1.3,2.55-4,1.64-6.57,1.76-2.35,1.17-5.08,4.22-6.9-.73-2,1.54-5.33,3-6.51-1-2.8-1.72-7.5,2.16-8.92-2.13-2.76,3-2.91,2-5.69-1.92.66-3.57,1-3.68-1.23-.3-4.82,6.45-5.89,4.84-10.48-2.06,1.24-4,1.19-3.09,3.84-1.38,1.65-1.25,4.69-4.14,4.64.06,2-1.3,5.78-3,6.47.8,2,.8.65.2,2.75-1,3.24-.92.2-2.1.65,1,3-2.51,5.41-3.63,7.53-2,3.81-4.2,11.31-8.33,13.92.86,2.4-5.49,13.68-8.27,14.27-1,.22-4.73,9.18-6.48,6.33-.91-1.47-1.32-3.43-2.11-5.53-.06-3.53-3.48-4.62-3.85-8.92-.11-1.14-2.11-5.66-1.36-5.91-1.35-3.73-2.52-3.69-4.16-6.66C183.59,627.31,181.1,617.35,181.8,617.1Zm-9.09,59.75c-.91-2.54-1.76-2.15-.5-3.9-1.24-3.49-2.42-3.69-4.23-6.31-3.27-4.73-2.89-11.3-4.47-15.86,3.32-1.2-6.73-22.46-4.26-23.36-2.58-7.23-1.1-15.61-3.58-22.65,2.21-.79-6.48-23.45-1.75-25.14,5.36,8.71,2.42,22,5.88,31.79-1.39.51,3.41,15,2.35,15.43,1.6,4.54,0,7.43,1.63,12.06,1.85-.66-.63-2,1.24-2.7.44.68,1.09,3.21,1.91,2.93,1.66,2.54-1.24,4.06-2.36.88-1,.35.14,4.74.42,6.15,2.33-.85,3.36-.81,4.8,4.17,1.61,5.73,1.42,9.66,3.86,15.33-1.19.87-1.75.47-1.76-1.19-.28.11,2.8,17.65,3.93,19.85.57-.21,1.94,3.06,2.19,3.74.44,1.27-.42,3.85-.87,2.59C176.84,690.71,168.49,676.92,172.71,676.85Zm-48.34,56.61c-2.35.86-6-18.08-6.83-20.59C121,712.8,123.79,729.8,124.37,733.46Zm10.28-65.12c2.75,10.79,4.9,20.75,8.43,32.68C141.22,701.68,131.53,670.63,134.65,668.34Zm-8.21-50.85c2.88,3.56,8.24,50.36,7.29,50.74-3.19-9.05-2.63-17.42-5.21-24.82C131.05,642.52,123.06,620.16,126.44,617.49Z"/><path class="cls-2" d="M641.53,11.91c3.5,4.57,7.15-4.85,10.71-4.63,4,.28,2.42,1.87,6.25.28,5.11-2.13,1.14.44,5-.93,0,.23,3.38.58,4.26.55,1.58,1.59,12-.4,12.7,1.63,2.45-2.57,11.78,2.35,14.6,4.06,2.54.35,5.07,4.39,8.27,3.25a26.53,26.53,0,0,0,6.35.84c1.85,1.78,8.71,3.39,11.87,3.45,3.5,0,5.16,1.62,9,1,0,.07,15,1.32,16.48.78,2.38,1.64,6,1.83,8.39,3.72,4.28-1.52,6.6-8.57,5-13.15.87-.32,6.12,3.66,7.49,4,2,4.06,3.24,6.45-.67,9.54,2,4.66,8.45,7.38,13,8a7.65,7.65,0,0,1,3.72,1.93c2.06,1.92,2.28-.12,4.87,1.71,2.83,2.05,6.24,1.68,9.05,3.89,2.2,1.66,5.3,4,7.9,4.77,2.1,1.7,4.07,3.47,7.34,4.21,2.5-.7,3.49.46,3,3.42,1.54-.4,2.6.24,3.21,2,3.33-1.19,1.55,1,4.26,2-1.25,3.39-2.47,4.49-1,8.64.12,0,3.05,2.44,3.1,3-1.5.5-1.31,6.64,2.42,5.32.47,1.73-.36,2.74-2.52,3-1.46-3.8-4.16-1.74-5.39-5.31-1,0-3.9.47-3.81.85-.88,1.52-4.51,14.51,1.35,12.43,2.26,3.79,12,15.15,6.93,18.16,1.69,4.72-7.86-.81-6.42,3.32-2.11,2.92.1,10-5,10.1.44,1.27-10.57,4.59-12.27,5.42,1,6.93-5.95,5.19-9.37,6.42,1.89-3.41-5.35-1.8-6.8.88-.53,2.11-2.12,2.9-2.94,4.66-1.31,2.87-4,4-6.39,4.87-.47-1.36-.24-3.58-1-5.82,5-1.79,3.55-4.87-1.13-3.22-4.06-4.76-7,4.08-10.33,5.27.41,1-9.18,4.07-8.44,6.11-1.5,1-10.41,6.41-9.67,8.61-1.49.56-10.9,3.51-10.12,5.71-5.15,1.39-4.83,3.79-9.82,6.58.55,1.57-6.29,5.24-5.73,6.7-2.77,1-3.65,7.38-7.07,7.44-4,0-5.33,3.77-8.51,5.91.27.67-9.4,7.72-10.73,9.6-2.1,3.09-9.62,2.11-10.2,7.16-1.73,1-12.18,5.68-11.31,8.18-3.22,2.19-6.07,7.84-10.35,9.36a15.67,15.67,0,0,0,.77-4.9c-1.12,0-4.57-.06-4,1.43-3.71,1.36-4.43,4.69-7.13,5.66-.27,2.26-3.24,3.51-3.51,5.9-2.54,2.05-1-4.25-5.92-2.52-.47-4.66-6.51,4-9.25,5.39,1.23,3.52-5.67,4.38-6.06,7.31-1.09,2-7.39,12.21-4.78,13.1,5.09,1.7-4.55,9.19-3.72,11.64-3.61-.1-3.05-2-6.8-.69,1.43-7.33-3.11,1.31-5-3.92-2.34,1.18-1.61,1.78-4.11,2.56-.12-3.33-4.73-3-7.16-1.6-3.68,2.09-4.64,5.4-6.27,9.49-3.13,1.12-4.22,6.65-7.85,7.94-.71-1.93-1.55-7.56-4.81-5,3-10.7-9.31-3.39-10.13,0-5.36,1.93-2.86,7.13-7.79,9.48-.35-3.45-.24-3.53-2.62-1.58-.62-3.08,1.53-4.3.59-7-1.35.52-1.91.19-2.82.5,1.28-6.85,5.73-11,5.33-17.91,1.69-1.82,4.29-9.25,3.64-11.12,1.09-1.43.52-9,0-8.75-.57-1.6-2.78,7-3.29,7.9a4.51,4.51,0,0,1-2.61,5.56c0-1.76-.25-5,1.41-6.17-1.51-6.22.29-3.19-3.7-1.76-.22-1.55.72-12.15-.57-11.69-.38-1-1.94,1.74-2.92-1,2-.68-1.53-3.77.48-5.84-2-5.79,2.32-12.8,1.25-19.54,2.83-1,.54-14.88.45-17.23.62-.2,1.33-7.34,2.38-9.09-1.08-3,2.37-8,2-11.54,1.33-1.43,3.86-9.14,3.25-11,2.12-3.47,5.1-11.73,4.42-16.08,5.47-3.43-.26-8.81,1.71-10.92-.09-4.45,5.52-10.17,4.09-14.34,2.13-.78-2.18-17.79-6.29-16.34-1.86-1.53-7.78-5.44-10.67-4.13-4,1.79-5.43-2.51-8.49-1.38-.56-.7.85-2.52-.78-.76-2.89-8.17-18.1-5.27-21.23-14.08,2.48-.56,8.66-1.39,7.17-5.66,1.83-.67,11.93-4.86,11.65-5.73,6.15-.52,13.89.46,19-3.76,2.88-2.43,10.17-6.44,13.17-6.58s9.3-6.31,12.22-6.18c2.51.14,12.51-3.53,12.87-6.54,3.51-1.25,6.75-8.45,10.88-9.34,1.92-.38,10.3-3.86,9.47-6.2,1.25-.46,8.72-5.5,8.47-6.12,5.44-1.92,9.19-3.79,14.26-5.62"/><path class="cls-2" d="M675.1,219.57c1.09-.78,1-.49.86-1.86C674.84,218.5,675,218.19,675.1,219.57Z"/></g></g></g></svg>