<svg xmlns="http://www.w3.org/2000/svg" viewBox="0 0 434 561.14"><defs><style>.cls-1{opacity:0.05;}.cls-2{fill:#69262c;}</style></defs><title>アセット 3</title><g id="レイヤー_2" data-name="レイヤー 2"><g id="レイヤー_1-2" data-name="レイヤー 1"><g class="cls-1"><path class="cls-2" d="M429.85,90.66c-8.32-33.19-28.8-61.33-59.2-81.41L356.64,0l-4.05,16.06a30.9,30.9,0,0,1-1.21,3.58c-4.77,11.92-25.47,48-98.5,34.27-45.78-8.65-73,8.53-87.78,24.44-8.76,9.42-15.55,20.81-20.62,33.51-18.92,47.37-14,113,1.76,163l0,0c-15.43-3.6-33.44-3.51-54.07,2.26-28.61,8-53.8,27.53-70.93,55a139.23,139.23,0,0,0-11.12,22,143.27,143.27,0,0,0-8.58,74.11c3.5,23.74,14.9,48.34,32.09,69.27a174.94,174.94,0,0,0,73.85,52.32c59.18,22.24,107.25,7.52,137.15-8.76,35.36-19.26,64.91-51.9,79.07-87.35,19.1-47.8,15.28-99.3-11-149a249,249,0,0,0-26.24-39.62,204,204,0,0,0,37.56-4c48.05-9.8,82.12-36.78,98.59-78C434.68,153,437.26,120.11,429.85,90.66Zm-29.14,84.26c-13.57,34-40.78,55.43-80.85,63.79a185.24,185.24,0,0,1-59,2.29L223,235.11l28,25.47a221.86,221.86,0,0,1,41.16,55.24c23.17,44.11,26.42,87.74,9.67,129.67-12.25,30.66-37.92,59-68.66,75.7-25.5,13.88-66.5,26.42-117.15,7.39-55.48-20.85-85.77-67-91.15-103.56A120.13,120.13,0,0,1,41.38,344C55.24,321.7,76.13,305.34,98.7,299c23.53-6.57,43.75-4.8,60.13,5.26S185.4,329,188,335.19c17.74,42.58-12,67.82-25.12,71.8-7,2.13-19,2.71-28.47-3.32-8.37-5.35-15.16-16.45-13.59-28,3.94-28.61,36.68-42.47,36.68-42.47a46.56,46.56,0,0,0-24.73-6.55c-18.82.63-38.13,9.71-49.62,38.47-6,15-5.61,33.6,2.55,48.65s22.77,27.14,41.16,34c30.07,11.3,53.07,3.23,67.09-5.51,15.31-9.57,28.18-25.24,35.27-43,14.09-35.29,6.83-70.55-21-102A178.31,178.31,0,0,0,167.5,264c-13.83-46.61-17-104.2-1.18-143.73,4.1-10.26,9.46-19.3,16.26-26.61C198.16,76.83,220.3,71,248.39,76.29c55.45,10.45,86.94-4.54,103.58-19a78.86,78.86,0,0,0,16.94-20.6c19.15,15.9,32.28,36.14,38.11,59.33C413.29,121,411.05,149,400.71,174.92Z"/></g></g></g></svg>